AnekTamil-ExtraLight.ufo
<glyph name="exclam" format="2">
  <advance width="437.25"/>
  <unicode hex="0021"/>
  <outline>
    <contour>
      <point x="251.38" y="372.6" type="line"/>
      <point x="261.15" y="1278.0" type="line"/>
      <point x="175.365" y="1278.0" type="line"/>
      <point x="185.87" y="372.6" type="line"/>
    </contour>
    <contour>
      <point x="217.89" y="-14.385" type="curve" smooth="yes"/>
      <point x="260.875" y="-14.385"/>
      <point x="281.97" y="11.505"/>
      <point x="281.97" y="60.105000000000004" type="curve" smooth="yes"/>
      <point x="281.97" y="70.105" type="line" smooth="yes"/>
      <point x="281.97" y="117.705"/>
      <point x="260.875" y="142.86"/>
      <point x="217.89" y="142.86" type="curve" smooth="yes"/>
      <point x="176.11" y="142.86"/>
      <point x="155.28" y="117.705"/>
      <point x="155.28" y="70.105" type="curve" smooth="yes"/>
      <point x="155.28" y="60.105000000000004" type="line" smooth="yes"/>
      <point x="155.28" y="11.505"/>
      <point x="176.11" y="-14.385"/>
    </contour>
  </outline>
</glyph>
<glyph name="numbersign" format="2">
  <advance width="1182.205"/>
  <unicode hex="0023"/>
  <outline>
    <contour>
      <point x="255.45" y="0.0" type="line"/>
      <point x="324.045" y="0.0" type="line"/>
      <point x="478.695" y="1278.0" type="line"/>
      <point x="410.1" y="1278.0" type="line"/>
    </contour>
    <contour>
      <point x="77.17" y="366.775" type="line"/>
      <point x="1047.3" y="366.775" type="line"/>
      <point x="1047.3" y="428.19" type="line"/>
      <point x="77.17" y="428.19" type="line"/>
    </contour>
    <contour>
      <point x="706.305" y="0.0" type="line"/>
      <point x="775.9" y="0.0" type="line"/>
      <point x="927.285" y="1278.0" type="line"/>
      <point x="858.425" y="1278.0" type="line"/>
    </contour>
    <contour>
      <point x="137.905" y="858.69" type="line"/>
      <point x="1105.3" y="858.69" type="line"/>
      <point x="1105.3" y="920.105" type="line"/>
      <point x="137.905" y="920.105" type="line"/>
    </contour>
  </outline>
</glyph>
<glyph name="dollar" format="2">
  <advance width="1025.48"/>
  <unicode hex="0024"/>
  <anchor x="504.24" y="0.0" name="bottom"/>
  <anchor x="504.24" y="1278.0" name="top"/>
  <outline>
    <contour>
      <point x="543.055" y="1256.005" type="line"/>
      <point x="543.055" y="1496.555" type="line"/>
      <point x="470.485" y="1496.555" type="line"/>
      <point x="470.485" y="1256.005" type="line"/>
    </contour>
    <contour>
      <point x="543.055" y="-224.29" type="line"/>
      <point x="543.055" y="29.945000000000007" type="line"/>
      <point x="470.485" y="29.945000000000007" type="line"/>
      <point x="470.485" y="-224.29" type="line"/>
    </contour>
    <component base="S"/>
  </outline>
</glyph>
<glyph name="percent" format="2">
  <advance width="1399.135"/>
  <unicode hex="0025"/>
  <outline>
    <contour>
      <point x="288.435" y="0.0" type="line"/>
      <point x="365.655" y="0.0" type="line"/>
      <point x="1111.76" y="1278.0" type="line"/>
      <point x="1034.54" y="1278.0" type="line"/>
    </contour>
    <contour>
      <point x="1051.04" y="-20.12" type="curve" smooth="yes"/>
      <point x="1206.375" y="-20.12"/>
      <point x="1292.675" y="81.94"/>
      <point x="1292.675" y="244.095" type="curve" smooth="yes"/>
      <point x="1292.675" y="342.65" type="line" smooth="yes"/>
      <point x="1292.675" y="505.54"/>
      <point x="1207.11" y="606.335"/>
      <point x="1051.04" y="606.335" type="curve" smooth="yes"/>
      <point x="895.235" y="606.335"/>
      <point x="809.2" y="505.01"/>
      <point x="809.2" y="342.65" type="curve" smooth="yes"/>
      <point x="809.2" y="244.095" type="line" smooth="yes"/>
      <point x="809.2" y="81.94"/>
      <point x="894.235" y="-20.12"/>
    </contour>
    <contour>
      <point x="1051.04" y="39.175" type="curve" smooth="yes"/>
      <point x="939.435" y="39.175"/>
      <point x="877.06" y="112.225"/>
      <point x="877.06" y="242.3" type="curve" smooth="yes"/>
      <point x="877.06" y="344.18" type="line" smooth="yes"/>
      <point x="877.06" y="473.52"/>
      <point x="938.435" y="547.305"/>
      <point x="1051.04" y="547.305" type="curve" smooth="yes"/>
      <point x="1162.175" y="547.305"/>
      <point x="1224.285" y="473.52"/>
      <point x="1224.285" y="344.18" type="curve" smooth="yes"/>
      <point x="1224.285" y="242.3" type="line" smooth="yes"/>
      <point x="1224.285" y="112.225"/>
      <point x="1163.175" y="39.175"/>
    </contour>
    <contour>
      <point x="348.77" y="671.93" type="curve" smooth="yes"/>
      <point x="504.105" y="671.93"/>
      <point x="590.405" y="773.99"/>
      <point x="590.405" y="935.615" type="curve" smooth="yes"/>
      <point x="590.405" y="1034.435" type="line" smooth="yes"/>
      <point x="590.405" y="1196.795"/>
      <point x="504.84000000000003" y="1297.855"/>
      <point x="348.77" y="1297.855" type="curve" smooth="yes"/>
      <point x="191.965" y="1297.855"/>
      <point x="106.66499999999999" y="1196.795"/>
      <point x="106.66499999999999" y="1034.435" type="curve" smooth="yes"/>
      <point x="106.66499999999999" y="935.615" type="line" smooth="yes"/>
      <point x="106.66499999999999" y="773.725"/>
      <point x="191.965" y="671.93"/>
    </contour>
    <contour>
      <point x="348.77" y="730.96" type="curve" smooth="yes"/>
      <point x="237.165" y="730.96"/>
      <point x="174.79" y="803.745"/>
      <point x="174.79" y="933.82" type="curve" smooth="yes"/>
      <point x="174.79" y="1035.965" type="line" smooth="yes"/>
      <point x="174.79" y="1165.04"/>
      <point x="236.165" y="1239.09"/>
      <point x="348.77" y="1239.09" type="curve" smooth="yes"/>
      <point x="459.905" y="1239.09"/>
      <point x="522.015" y="1165.04"/>
      <point x="522.015" y="1035.965" type="curve" smooth="yes"/>
      <point x="522.015" y="933.82" type="line" smooth="yes"/>
      <point x="522.015" y="803.745"/>
      <point x="460.64" y="730.96"/>
    </contour>
  </outline>
</glyph>
<glyph name="ampersand" format="2">
  <advance width="1198.415"/>
  <unicode hex="0026"/>
  <outline>
    <contour>
      <point x="1100.81" y="0.0" type="curve"/>
      <point x="1200.245" y="0.0" type="line"/>
      <point x="1200.245" y="6.445" type="line"/>
      <point x="1113.885" y="94.6"/>
      <point x="1009.415" y="198.6"/>
      <point x="929.73" y="277.96" type="curve"/>
      <point x="910.395" y="299.09000000000003" type="line"/>
      <point x="404.28" y="780.06" type="line" smooth="yes"/>
      <point x="326.545" y="854.795"/>
      <point x="282.665" y="921.82"/>
      <point x="282.665" y="1012.135" type="curve" smooth="yes"/>
      <point x="282.665" y="1019.34" type="line" smooth="yes"/>
      <point x="282.665" y="1142.62"/>
      <point x="356.57" y="1224.285"/>
      <point x="543.2" y="1224.285" type="curve" smooth="yes"/>
      <point x="688.575" y="1224.285"/>
      <point x="795.165" y="1180.935"/>
      <point x="874.815" y="1129.115" type="curve"/>
      <point x="865.37" y="1207.42" type="line"/>
      <point x="801.395" y="1252.3"/>
      <point x="691.395" y="1296.855"/>
      <point x="534.865" y="1296.855" type="curve" smooth="yes"/>
      <point x="300.565" y="1296.855"/>
      <point x="198.675" y="1187.47"/>
      <point x="198.675" y="1020.195" type="curve" smooth="yes"/>
      <point x="198.675" y="1012.46" type="line" smooth="yes"/>
      <point x="198.675" y="907.135"/>
      <point x="241.615" y="833.46"/>
      <point x="326.675" y="749.075" type="curve"/>
      <point x="338.77" y="735.39" type="line"/>
      <point x="863.835" y="238.855" type="line"/>
      <point x="877.075" y="223.615" type="line"/>
      <point x="929.775" y="171.915"/>
      <point x="1040.435" y="61.11"/>
    </contour>
    <contour>
      <point x="501.625" y="-19.59" type="curve" smooth="yes"/>
      <point x="700.395" y="-19.59"/>
      <point x="828.72" y="69.905"/>
      <point x="927.575" y="221.54500000000002" type="curve"/>
      <point x="946.295" y="243.0" type="line"/>
      <point x="1023.715" y="378.65"/>
      <point x="1072.305" y="560.77"/>
      <point x="1096.305" y="785.71" type="curve"/>
      <point x="1016.025" y="785.71" type="line"/>
      <point x="995.88" y="588.84"/>
      <point x="955.265" y="424.26"/>
      <point x="889.735" y="297.705" type="curve"/>
      <point x="870.075" y="269.455" type="line"/>
      <point x="785.17" y="130.175"/>
      <point x="674.265" y="51.125"/>
      <point x="507.865" y="51.125" type="curve" smooth="yes"/>
      <point x="301.5" y="51.125"/>
      <point x="191.04000000000002" y="156.115"/>
      <point x="191.04000000000002" y="360.36" type="curve" smooth="yes"/>
      <point x="191.04000000000002" y="408.735" type="line" smooth="yes"/>
      <point x="191.04000000000002" y="565.955"/>
      <point x="243.535" y="661.15"/>
      <point x="380.49" y="722.115" type="curve"/>
      <point x="334.555" y="780.0" type="line"/>
      <point x="165.965" y="698.29"/>
      <point x="107.315" y="577.265"/>
      <point x="107.315" y="402.29" type="curve" smooth="yes"/>
      <point x="107.315" y="354.855" type="line" smooth="yes"/>
      <point x="107.315" y="112.53"/>
      <point x="242.965" y="-19.59"/>
    </contour>
  </outline>
</glyph>
<glyph name="quotesingle" format="2">
  <advance width="322.285"/>
  <unicode hex="0027"/>
  <outline>
    <contour>
      <point x="193.175" y="860.4" type="line"/>
      <point x="201.41500000000002" y="1327.675" type="line"/>
      <point x="120.87" y="1327.675" type="line"/>
      <point x="129.57999999999998" y="860.4" type="line"/>
    </contour>
  </outline>
</glyph>
<glyph name="parenleft" format="2">
  <advance width="551.43"/>
  <unicode hex="0028"/>
  <outline>
    <contour>
      <point x="241.09" y="634.46" type="line" smooth="yes"/>
      <point x="241.09" y="939.75"/>
      <point x="315.56" y="1150.76"/>
      <point x="474.68" y="1350.265" type="curve"/>
      <point x="388.075" y="1350.265" type="line"/>
      <point x="237.015" y="1157.35"/>
      <point x="163.075" y="949.4"/>
      <point x="163.075" y="637.99" type="curve" smooth="yes"/>
      <point x="163.075" y="474.42" type="line" smooth="yes"/>
      <point x="163.075" y="162.215"/>
      <point x="236.22" y="-45.47"/>
      <point x="387.545" y="-238.12" type="curve"/>
      <point x="474.68" y="-238.12" type="line"/>
      <point x="315.56" y="-37.35"/>
      <point x="241.09" y="172.66"/>
      <point x="241.09" y="478.215" type="curve" smooth="yes"/>
    </contour>
  </outline>
</glyph>
<glyph name="parenright" format="2">
  <advance width="551.96"/>
  <unicode hex="0029"/>
  <outline>
    <contour>
      <point x="310.87" y="634.46" type="curve" smooth="yes"/>
      <point x="310.87" y="478.215" type="line" smooth="yes"/>
      <point x="310.87" y="172.66"/>
      <point x="236.4" y="-37.35"/>
      <point x="77.28" y="-238.12" type="curve"/>
      <point x="164.41500000000002" y="-238.12" type="line"/>
      <point x="315.74" y="-45.47"/>
      <point x="388.885" y="162.215"/>
      <point x="388.885" y="474.42" type="curve" smooth="yes"/>
      <point x="388.885" y="637.99" type="line" smooth="yes"/>
      <point x="388.885" y="949.4"/>
      <point x="314.945" y="1157.35"/>
      <point x="163.885" y="1350.265" type="curve"/>
      <point x="77.28" y="1350.265" type="line"/>
      <point x="236.4" y="1150.76"/>
      <point x="310.87" y="939.75"/>
    </contour>
  </outline>
</glyph>
<glyph name="asterisk" format="2">
  <advance width="754.3"/>
  <unicode hex="002A"/>
  <outline>
    <contour>
      <point x="210.19" y="702.8" type="line"/>
      <point x="379.06" y="934.73" type="line"/>
      <point x="374.975" y="934.73" type="line"/>
      <point x="543.375" y="702.8" type="line"/>
      <point x="601.405" y="744.82" type="line"/>
      <point x="416.97" y="967.04" type="line"/>
      <point x="415.03" y="960.75" type="line"/>
      <point x="682.78" y="1028.8" type="line"/>
      <point x="665.095" y="1096.335" type="line"/>
      <point x="399.815" y="1009.54" type="line"/>
      <point x="404.9" y="1004.19" type="line"/>
      <point x="414.405" y="1278.0" type="line"/>
      <point x="340.63" y="1278.0" type="line"/>
      <point x="350.135" y="1004.19" type="line"/>
      <point x="353.75" y="1009.54" type="line"/>
      <point x="88.47" y="1096.335" type="line"/>
      <point x="71.52" y="1028.8" type="line"/>
      <point x="339.005" y="960.75" type="line"/>
      <point x="337.065" y="967.04" type="line"/>
      <point x="152.63" y="744.82" type="line"/>
    </contour>
  </outline>
</glyph>
<glyph name="plus" format="2">
  <advance width="995.18"/>
  <unicode hex="002B"/>
  <outline>
    <contour>
      <point x="533.815" y="207.555" type="line"/>
      <point x="533.815" y="1041.06" type="line"/>
      <point x="462.1" y="1041.06" type="line"/>
      <point x="462.1" y="207.555" type="line"/>
    </contour>
    <contour>
      <point x="114.435" y="591.245" type="line"/>
      <point x="880.745" y="591.245" type="line"/>
      <point x="880.745" y="657.37" type="line"/>
      <point x="114.435" y="657.37" type="line"/>
    </contour>
  </outline>
</glyph>
<glyph name="comma" format="2">
  <advance width="325.705"/>
  <unicode hex="002C"/>
  <outline>
    <contour>
      <point x="206.065" y="239.165" type="curve"/>
      <point x="128.315" y="239.165" type="line"/>
      <point x="134.05" y="202.31"/>
      <point x="136.785" y="164.31"/>
      <point x="136.785" y="123.985" type="curve" smooth="yes"/>
      <point x="136.785" y="-21.605"/>
      <point x="104.05" y="-136.93"/>
      <point x="27.494999999999997" y="-246.93" type="curve"/>
      <point x="80.705" y="-273.7" type="line"/>
      <point x="178.945" y="-151.315"/>
      <point x="215.32999999999998" y="-25.87"/>
      <point x="215.32999999999998" y="126.84" type="curve" smooth="yes"/>
      <point x="215.32999999999998" y="174.31"/>
      <point x="209.32999999999998" y="218.04500000000002"/>
    </contour>
  </outline>
</glyph>
<glyph name="hyphen" format="2">
  <advance width="852.39"/>
  <unicode hex="002D"/>
  <outline>
    <contour>
      <point x="144.135" y="497.125" type="line"/>
      <point x="708.99" y="497.125" type="line"/>
      <point x="708.99" y="564.515" type="line"/>
      <point x="144.135" y="564.515" type="line"/>
    </contour>
  </outline>
</glyph>
<glyph name="period" format="2">
  <advance width="332.90999999999997"/>
  <unicode hex="002E"/>
  <outline>
    <contour>
      <point x="165.72" y="-14.385" type="curve" smooth="yes"/>
      <point x="208.70499999999998" y="-14.385"/>
      <point x="229.8" y="11.505"/>
      <point x="229.8" y="60.105000000000004" type="curve" smooth="yes"/>
      <point x="229.8" y="70.105" type="line" smooth="yes"/>
      <point x="229.8" y="117.705"/>
      <point x="208.70499999999998" y="142.86"/>
      <point x="165.72" y="142.86" type="curve" smooth="yes"/>
      <point x="123.94" y="142.86"/>
      <point x="103.11" y="117.705"/>
      <point x="103.11" y="70.105" type="curve" smooth="yes"/>
      <point x="103.11" y="60.105000000000004" type="line" smooth="yes"/>
      <point x="103.11" y="11.505"/>
      <point x="123.94" y="-14.385"/>
    </contour>
  </outline>
</glyph>
<glyph name="slash" format="2">
  <advance width="788.26"/>
  <unicode hex="002F"/>
  <outline>
    <contour>
      <point x="58.485" y="-233.915" type="line"/>
      <point x="136.115" y="-233.915" type="line"/>
      <point x="729.775" y="1337.12" type="line"/>
      <point x="652.41" y="1337.12" type="line"/>
    </contour>
  </outline>
</glyph>
<glyph name="zero" format="2">
  <advance width="1085.585"/>
  <unicode hex="0030"/>
  <outline>
    <contour>
      <point x="542.66" y="-20.12" type="curve" smooth="yes"/>
      <point x="821.645" y="-20.12"/>
      <point x="962.8" y="147.59"/>
      <point x="962.8" y="451.13" type="curve"/>
      <point x="962.8" y="825.4" type="line"/>
      <point x="962.8" y="1129.41"/>
      <point x="821.645" y="1298.12"/>
      <point x="542.66" y="1298.12" type="curve" smooth="yes"/>
      <point x="263.675" y="1298.12"/>
      <point x="122.785" y="1129.41"/>
      <point x="122.785" y="825.4" type="curve"/>
      <point x="122.785" y="451.13" type="line"/>
      <point x="122.785" y="147.59"/>
      <point x="263.94" y="-20.12"/>
    </contour>
    <contour>
      <point x="542.66" y="50.595" type="curve" smooth="yes"/>
      <point x="316.03" y="50.595"/>
      <point x="205.51" y="193.32"/>
      <point x="205.51" y="448.01" type="curve" smooth="yes"/>
      <point x="205.51" y="828.99" type="line" smooth="yes"/>
      <point x="205.51" y="1084.68"/>
      <point x="315.765" y="1227.405"/>
      <point x="542.66" y="1227.405" type="curve" smooth="yes"/>
      <point x="769.555" y="1227.405"/>
      <point x="880.075" y="1084.68"/>
      <point x="880.075" y="828.99" type="curve" smooth="yes"/>
      <point x="880.075" y="448.01" type="line" smooth="yes"/>
      <point x="880.075" y="193.32"/>
      <point x="769.555" y="50.595"/>
    </contour>
  </outline>
</glyph>
<glyph name="one" format="2">
  <advance width="640.165"/>
  <unicode hex="0031"/>
  <outline>
    <contour>
      <point x="387.895" y="0.0" type="line"/>
      <point x="469.56" y="0.0" type="line"/>
      <point x="469.56" y="1278.0" type="line"/>
      <point x="370.905" y="1278.0" type="line"/>
      <point x="62.495" y="1070.925" type="line"/>
      <point x="59.7" y="986.44" type="line"/>
      <point x="376.1" y="1198.155" type="line"/>
      <point x="387.895" y="1198.155" type="line"/>
    </contour>
  </outline>
</glyph>
<glyph name="two" format="2">
  <advance width="912.515"/>
  <unicode hex="0032"/>
  <outline>
    <contour>
      <point x="80.435" y="0.0" type="line"/>
      <point x="822.14" y="0.0" type="line"/>
      <point x="822.14" y="71.51" type="line"/>
      <point x="142.86" y="71.51" type="line"/>
      <point x="177.085" y="50.004999999999995" type="line"/>
      <point x="177.085" y="78.305" type="line"/>
      <point x="470.595" y="386.335" type="line" smooth="yes"/>
      <point x="670.21" y="595.12"/>
      <point x="799.73" y="734.615"/>
      <point x="799.73" y="942.905" type="curve" smooth="yes"/>
      <point x="799.73" y="956.17" type="line" smooth="yes"/>
      <point x="799.73" y="1176.615"/>
      <point x="677.43" y="1296.59"/>
      <point x="438.71" y="1296.59" type="curve" smooth="yes"/>
      <point x="278.915" y="1296.59"/>
      <point x="165.06" y="1238.035"/>
      <point x="92.94" y="1187.36" type="curve"/>
      <point x="83.76" y="1108.32" type="line"/>
      <point x="173.965" y="1170.875"/>
      <point x="288.025" y="1224.285"/>
      <point x="427.11" y="1224.285" type="curve" smooth="yes"/>
      <point x="622.16" y="1224.285"/>
      <point x="717.005" y="1126.175"/>
      <point x="717.005" y="949.545" type="curve" smooth="yes"/>
      <point x="717.005" y="938.075" type="line" smooth="yes"/>
      <point x="717.005" y="755.385"/>
      <point x="593.28" y="623.455"/>
      <point x="402.845" y="424.115" type="curve" smooth="yes"/>
      <point x="80.435" y="86.305" type="line"/>
    </contour>
  </outline>
</glyph>
<glyph name="three" format="2">
  <advance width="963.07"/>
  <unicode hex="0033"/>
  <outline>
    <contour>
      <point x="450.41" y="-19.325" type="curve" smooth="yes"/>
      <point x="728.455" y="-19.325"/>
      <point x="856.08" y="113.265"/>
      <point x="856.08" y="327.095" type="curve" smooth="yes"/>
      <point x="856.08" y="367.71" type="line" smooth="yes"/>
      <point x="856.08" y="547.0"/>
      <point x="771.32" y="653.845"/>
      <point x="561.775" y="667.735" type="curve"/>
      <point x="560.425" y="657.025" type="line"/>
      <point x="564.835" y="662.035" type="line"/>
      <point x="766.26" y="673.13"/>
      <point x="844.61" y="789.505"/>
      <point x="844.61" y="948.59" type="curve" smooth="yes"/>
      <point x="844.61" y="975.205" type="line" smooth="yes"/>
      <point x="844.61" y="1177.325"/>
      <point x="731.19" y="1296.59"/>
      <point x="469.59" y="1296.59" type="curve" smooth="yes"/>
      <point x="301.265" y="1296.59"/>
      <point x="175.53" y="1246.975"/>
      <point x="104.28999999999999" y="1197.77" type="curve"/>
      <point x="95.375" y="1121.525" type="line"/>
      <point x="183.23" y="1177.875"/>
      <point x="304.615" y="1225.08"/>
      <point x="459.845" y="1225.08" type="curve" smooth="yes"/>
      <point x="674.775" y="1225.08"/>
      <point x="762.15" y="1133.62"/>
      <point x="762.15" y="966.99" type="curve" smooth="yes"/>
      <point x="762.15" y="941.23" type="line" smooth="yes"/>
      <point x="762.15" y="793.36"/>
      <point x="689.27" y="696.225"/>
      <point x="478.485" y="693.695" type="curve" smooth="yes"/>
      <point x="255.99" y="690.9" type="line"/>
      <point x="255.99" y="625.98" type="line"/>
      <point x="472.34" y="624.185" type="line" smooth="yes"/>
      <point x="691.065" y="622.39"/>
      <point x="772.825" y="534.725"/>
      <point x="772.825" y="366.445" type="curve" smooth="yes"/>
      <point x="772.825" y="331.275" type="line" smooth="yes"/>
      <point x="772.825" y="158.64499999999998"/>
      <point x="673.1" y="53.775000000000006"/>
      <point x="445.905" y="53.775000000000006" type="curve" smooth="yes"/>
      <point x="302.845" y="53.775000000000006"/>
      <point x="173.7" y="98.98"/>
      <point x="88.11" y="152.655" type="curve"/>
      <point x="97.555" y="68.17" type="line"/>
      <point x="160.675" y="31.494999999999997"/>
      <point x="288.615" y="-19.325"/>
    </contour>
  </outline>
</glyph>
<glyph name="four" format="2">
  <advance width="992.235"/>
  <unicode hex="0034"/>
  <outline>
    <contour>
      <point x="696.17" y="0.0" type="line"/>
      <point x="775.45" y="0.0" type="line"/>
      <point x="775.45" y="1278.0" type="line"/>
      <point x="619.645" y="1278.0" type="line"/>
      <point x="60.615" y="361.235" type="line"/>
      <point x="60.615" y="269.605" type="line"/>
      <point x="959.765" y="269.605" type="line"/>
      <point x="959.765" y="339.85" type="line"/>
      <point x="109.85" y="339.85" type="line"/>
      <point x="142.015" y="304.335" type="line"/>
      <point x="142.015" y="351.90999999999997" type="line"/>
      <point x="669.085" y="1216.91" type="line"/>
      <point x="698.76" y="1216.91" type="line"/>
      <point x="696.17" y="955.31" type="line"/>
    </contour>
  </outline>
</glyph>
<glyph name="five" format="2">
  <advance width="1016.25"/>
  <unicode hex="0035"/>
  <outline>
    <contour>
      <point x="505.145" y="-19.325" type="curve" smooth="yes"/>
      <point x="776.02" y="-19.325"/>
      <point x="907.73" y="123.975"/>
      <point x="907.73" y="356.6" type="curve" smooth="yes"/>
      <point x="907.73" y="443.855" type="line" smooth="yes"/>
      <point x="907.73" y="669.035"/>
      <point x="794.525" y="802.215"/>
      <point x="566.465" y="802.215" type="curve" smooth="yes"/>
      <point x="394.97" y="802.215"/>
      <point x="283.8" y="724.13"/>
      <point x="222.775" y="621.31" type="curve"/>
      <point x="226.535" y="617.635" type="line"/>
      <point x="229.535" y="835.615" type="line"/>
      <point x="229.535" y="1207.96" type="line"/>
      <point x="881.225" y="1207.96" type="line"/>
      <point x="881.225" y="1278.0" type="line"/>
      <point x="150.93" y="1278.0" type="line"/>
      <point x="150.93" y="570.05" type="line"/>
      <point x="219.62" y="555.485" type="line"/>
      <point x="292.525" y="670.15"/>
      <point x="398.515" y="732.765"/>
      <point x="545.71" y="732.765" type="curve" smooth="yes"/>
      <point x="736.81" y="732.765"/>
      <point x="826.065" y="622.63"/>
      <point x="826.065" y="440.06" type="curve" smooth="yes"/>
      <point x="826.065" y="357.865" type="line" smooth="yes"/>
      <point x="826.065" y="165.03"/>
      <point x="718.87" y="54.040000000000006"/>
      <point x="500.375" y="54.040000000000006" type="curve" smooth="yes"/>
      <point x="348.17" y="54.040000000000006"/>
      <point x="233.665" y="99.775"/>
      <point x="148.605" y="152.45" type="curve"/>
      <point x="159.05" y="68.76" type="line"/>
      <point x="223.64" y="29.085"/>
      <point x="337.88" y="-19.325"/>
    </contour>
  </outline>
</glyph>
<glyph name="six" format="2">
  <advance width="1043.08"/>
  <unicode hex="0036"/>
  <outline>
    <contour>
      <point x="543.95" y="-20.12" type="curve" smooth="yes"/>
      <point x="806.08" y="-20.12"/>
      <point x="936.765" y="131.0"/>
      <point x="936.765" y="355.36" type="curve" smooth="yes"/>
      <point x="936.765" y="438.35" type="line" smooth="yes"/>
      <point x="936.765" y="668.71"/>
      <point x="816.705" y="805.095"/>
      <point x="583.525" y="805.095" type="curve" smooth="yes"/>
      <point x="359.125" y="805.095"/>
      <point x="232.54500000000002" y="674.61"/>
      <point x="194.485" y="510.92" type="curve"/>
      <point x="176.92000000000002" y="510.92" type="line"/>
      <point x="196.065" y="445.495" type="line"/>
      <point x="244.68" y="620.57"/>
      <point x="367.705" y="736.97"/>
      <point x="564.95" y="736.97" type="curve" smooth="yes"/>
      <point x="763.76" y="736.97"/>
      <point x="855.63" y="621.715"/>
      <point x="855.63" y="436.085" type="curve" smooth="yes"/>
      <point x="855.63" y="356.155" type="line" smooth="yes"/>
      <point x="855.63" y="176.995"/>
      <point x="754.845" y="50.595"/>
      <point x="545.01" y="50.595" type="curve" smooth="yes"/>
      <point x="329.32" y="50.595"/>
      <point x="200.655" y="180.44"/>
      <point x="200.655" y="434.25" type="curve"/>
      <point x="200.655" y="817.86" type="line" smooth="yes"/>
      <point x="200.655" y="1079.235"/>
      <point x="317.27" y="1224.285"/>
      <point x="564.995" y="1224.285" type="curve" smooth="yes"/>
      <point x="712.055" y="1224.285"/>
      <point x="800.175" y="1186.08"/>
      <point x="885.705" y="1133.67" type="curve"/>
      <point x="876.73" y="1212.24" type="line"/>
      <point x="807.815" y="1253.445"/>
      <point x="711.045" y="1296.59"/>
      <point x="556.25" y="1296.59" type="curve" smooth="yes"/>
      <point x="264.53" y="1296.59"/>
      <point x="119.255" y="1122.17"/>
      <point x="119.255" y="819.45" type="curve" smooth="yes"/>
      <point x="119.255" y="440.345" type="line" smooth="yes"/>
      <point x="119.255" y="138.975"/>
      <point x="275.085" y="-20.12"/>
    </contour>
  </outline>
</glyph>
<glyph name="seven" format="2">
  <advance width="886.225"/>
  <unicode hex="0037"/>
  <outline>
    <contour>
      <point x="240.16" y="0.0" type="line"/>
      <point x="329.8" y="0.0" type="line"/>
      <point x="821.875" y="1207.635" type="line"/>
      <point x="821.875" y="1278.0" type="line"/>
      <point x="67.495" y="1278.0" type="line"/>
      <point x="67.495" y="1207.96" type="line"/>
      <point x="736.825" y="1207.96" type="line"/>
    </contour>
  </outline>
</glyph>
<glyph name="eight" format="2">
  <advance width="1083.78"/>
  <unicode hex="0038"/>
  <outline>
    <contour>
      <point x="541.625" y="-24.06" type="curve" smooth="yes"/>
      <point x="835.5" y="-24.06"/>
      <point x="971.585" y="102.89"/>
      <point x="971.585" y="319.915" type="curve" smooth="yes"/>
      <point x="971.585" y="350.325" type="line" smooth="yes"/>
      <point x="971.585" y="539.29"/>
      <point x="855.86" y="644.905"/>
      <point x="667.11" y="665.265" type="curve"/>
      <point x="667.11" y="662.77" type="line"/>
      <point x="844.04" y="675.07"/>
      <point x="955.645" y="777.215"/>
      <point x="955.645" y="949.735" type="curve" smooth="yes"/>
      <point x="955.645" y="979.145" type="line" smooth="yes"/>
      <point x="955.645" y="1185.085"/>
      <point x="818.525" y="1299.59"/>
      <point x="541.625" y="1299.59" type="curve" smooth="yes"/>
      <point x="265.52" y="1299.59"/>
      <point x="129.135" y="1185.085"/>
      <point x="129.135" y="979.145" type="curve" smooth="yes"/>
      <point x="129.135" y="949.735" type="line" smooth="yes"/>
      <point x="129.135" y="777.215"/>
      <point x="240.005" y="675.07"/>
      <point x="416.935" y="662.77" type="curve"/>
      <point x="416.935" y="665.265" type="line"/>
      <point x="229.185" y="645.17"/>
      <point x="112.46000000000001" y="539.555"/>
      <point x="112.46000000000001" y="350.325" type="curve" smooth="yes"/>
      <point x="112.46000000000001" y="319.915" type="line" smooth="yes"/>
      <point x="112.46000000000001" y="101.565"/>
      <point x="251.4" y="-24.06"/>
    </contour>
    <contour>
      <point x="542.42" y="46.655" type="curve" smooth="yes"/>
      <point x="310.26" y="46.655"/>
      <point x="194.92000000000002" y="147.35500000000002"/>
      <point x="194.92000000000002" y="323.01" type="curve" smooth="yes"/>
      <point x="194.92000000000002" y="356.3" type="line" smooth="yes"/>
      <point x="194.92000000000002" y="525.75"/>
      <point x="306.765" y="623.125"/>
      <point x="540.565" y="628.69" type="curve"/>
      <point x="776.22" y="623.39"/>
      <point x="889.125" y="526.28"/>
      <point x="889.125" y="356.3" type="curve" smooth="yes"/>
      <point x="889.125" y="323.01" type="line" smooth="yes"/>
      <point x="889.125" y="147.62"/>
      <point x="774.315" y="46.655"/>
    </contour>
    <contour>
      <point x="543.215" y="691.78" type="curve"/>
      <point x="321.53499999999997" y="694.165"/>
      <point x="210.535" y="783.95"/>
      <point x="210.535" y="945.82" type="curve" smooth="yes"/>
      <point x="210.535" y="974.785" type="line" smooth="yes"/>
      <point x="210.535" y="1139.235"/>
      <point x="318.46500000000003" y="1229.67"/>
      <point x="541.625" y="1229.67" type="curve" smooth="yes"/>
      <point x="765.58" y="1229.67"/>
      <point x="874.245" y="1139.235"/>
      <point x="874.245" y="974.785" type="curve" smooth="yes"/>
      <point x="874.245" y="945.82" type="line" smooth="yes"/>
      <point x="874.245" y="783.95"/>
      <point x="761.98" y="694.165"/>
    </contour>
  </outline>
</glyph>
<glyph name="nine" format="2">
  <advance width="1040.14"/>
  <unicode hex="0039"/>
  <outline>
    <contour>
      <point x="503.07" y="1297.385" type="curve" smooth="yes"/>
      <point x="239.47" y="1297.385"/>
      <point x="106.315" y="1144.06"/>
      <point x="106.315" y="919.7" type="curve" smooth="yes"/>
      <point x="106.315" y="840.94" type="line" smooth="yes"/>
      <point x="106.315" y="611.17"/>
      <point x="223.7" y="471.11"/>
      <point x="471.025" y="471.11" type="curve" smooth="yes"/>
      <point x="682.075" y="471.11"/>
      <point x="807.86" y="597.185"/>
      <point x="845.655" y="754.995" type="curve"/>
      <point x="863.22" y="754.995" type="line"/>
      <point x="844.075" y="820.42" type="line"/>
      <point x="795.255" y="651.225"/>
      <point x="673.025" y="539.235"/>
      <point x="490.13" y="539.235" type="curve" smooth="yes"/>
      <point x="277.97" y="539.235"/>
      <point x="187.45" y="656.96"/>
      <point x="187.45" y="845.47" type="curve" smooth="yes"/>
      <point x="187.45" y="919.64" type="line" smooth="yes"/>
      <point x="187.45" y="1098.065"/>
      <point x="288.5" y="1226.67"/>
      <point x="502.01" y="1226.67" type="curve" smooth="yes"/>
      <point x="727.025" y="1226.67"/>
      <point x="839.485" y="1094.415"/>
      <point x="839.485" y="840.52" type="curve"/>
      <point x="839.485" y="457.635" type="line" smooth="yes"/>
      <point x="839.485" y="195.235"/>
      <point x="723.87" y="52.980000000000004"/>
      <point x="466.615" y="52.980000000000004" type="curve" smooth="yes"/>
      <point x="326.495" y="52.980000000000004"/>
      <point x="235.495" y="89.715"/>
      <point x="150.495" y="137.45" type="curve"/>
      <point x="160.47" y="55.025" type="line"/>
      <point x="226.12" y="19.29"/>
      <point x="321.77" y="-19.855"/>
      <point x="472.71" y="-19.855" type="curve" smooth="yes"/>
      <point x="777.02" y="-19.855"/>
      <point x="920.15" y="150.975"/>
      <point x="920.15" y="456.045" type="curve" smooth="yes"/>
      <point x="920.15" y="836.69" type="line" smooth="yes"/>
      <point x="920.15" y="1135.145"/>
      <point x="778.055" y="1297.385"/>
    </contour>
  </outline>
</glyph>
<glyph name="less" format="2">
  <advance width="1037.82"/>
  <unicode hex="003C"/>
  <outline>
    <contour>
      <point x="177.79" y="634.145" type="line"/>
      <point x="880.745" y="855.27" type="line"/>
      <point x="880.745" y="928.25" type="line"/>
      <point x="114.435" y="683.85" type="line"/>
      <point x="114.435" y="564.235" type="line"/>
      <point x="880.745" y="319.835" type="line"/>
      <point x="880.745" y="392.815" type="line"/>
      <point x="177.79" y="613.94" type="line"/>
    </contour>
  </outline>
</glyph>
<glyph name="equal" format="2">
  <advance width="1033.205"/>
  <unicode hex="003D"/>
  <outline>
    <contour>
      <point x="133.57999999999998" y="385.51" type="line"/>
      <point x="899.625" y="385.51" type="line"/>
      <point x="899.625" y="451.84000000000003" type="line"/>
      <point x="133.57999999999998" y="451.84000000000003" type="line"/>
    </contour>
    <contour>
      <point x="133.57999999999998" y="796.04" type="line"/>
      <point x="899.625" y="796.04" type="line"/>
      <point x="899.625" y="862.37" type="line"/>
      <point x="133.57999999999998" y="862.37" type="line"/>
    </contour>
  </outline>
</glyph>
<glyph name="greater" format="2">
  <advance width="1037.82"/>
  <unicode hex="003E"/>
  <outline>
    <contour>
      <point x="860.03" y="634.145" type="line"/>
      <point x="860.03" y="613.94" type="line"/>
      <point x="157.075" y="392.815" type="line"/>
      <point x="157.075" y="319.835" type="line"/>
      <point x="923.385" y="564.235" type="line"/>
      <point x="923.385" y="683.85" type="line"/>
      <point x="157.075" y="928.25" type="line"/>
      <point x="157.075" y="855.27" type="line"/>
    </contour>
  </outline>
</glyph>
<glyph name="question" format="2">
  <advance width="880.94"/>
  <unicode hex="003F"/>
  <outline>
    <contour>
      <point x="281.715" y="315.455" type="line"/>
      <point x="354.61" y="315.455" type="line"/>
      <point x="354.61" y="577.48" type="line"/>
      <point x="310.65" y="543.265" type="line"/>
      <point x="413.18" y="550.735" type="line"/>
      <point x="671.505" y="580.76"/>
      <point x="772.745" y="691.7"/>
      <point x="772.745" y="895.675" type="curve" smooth="yes"/>
      <point x="772.745" y="984.7" type="line" smooth="yes"/>
      <point x="772.745" y="1184.94"/>
      <point x="668.65" y="1295.59"/>
      <point x="422.29" y="1295.59" type="curve" smooth="yes"/>
      <point x="264.615" y="1295.59"/>
      <point x="143.35" y="1240.77"/>
      <point x="77.28999999999999" y="1194.155" type="curve"/>
      <point x="67.315" y="1120.5" type="line"/>
      <point x="151.7" y="1176.585"/>
      <point x="269.785" y="1225.61"/>
      <point x="411.425" y="1225.61" type="curve" smooth="yes"/>
      <point x="615.44" y="1225.61"/>
      <point x="692.815" y="1139.825"/>
      <point x="692.815" y="977.34" type="curve" smooth="yes"/>
      <point x="692.815" y="893.085" type="line" smooth="yes"/>
      <point x="692.815" y="725.72"/>
      <point x="608.295" y="631.815"/>
      <point x="390.22" y="607.79" type="curve" smooth="yes"/>
      <point x="281.715" y="600.585" type="line"/>
    </contour>
    <contour>
      <point x="317.53" y="-14.65" type="curve" smooth="yes"/>
      <point x="360.25" y="-14.65"/>
      <point x="381.345" y="11.24"/>
      <point x="381.345" y="59.31" type="curve" smooth="yes"/>
      <point x="381.345" y="69.045" type="line" smooth="yes"/>
      <point x="381.345" y="116.38"/>
      <point x="360.25" y="141.26999999999998"/>
      <point x="317.53" y="141.26999999999998" type="curve" smooth="yes"/>
      <point x="276.545" y="141.26999999999998"/>
      <point x="255.715" y="116.38"/>
      <point x="255.715" y="69.045" type="curve" smooth="yes"/>
      <point x="255.715" y="59.31" type="line" smooth="yes"/>
      <point x="255.715" y="11.24"/>
      <point x="276.545" y="-14.65"/>
    </contour>
  </outline>
</glyph>
<glyph name="at" format="2">
  <advance width="1622.38"/>
  <unicode hex="0040"/>
  <outline>
    <contour>
      <point x="747.965" y="75.615" type="curve" smooth="yes"/>
      <point x="900.52" y="75.615"/>
      <point x="992.305" y="165.99"/>
      <point x="1022.955" y="293.715" type="curve"/>
      <point x="1041.7" y="293.715" type="line"/>
      <point x="1027.05" y="360.3" type="line"/>
      <point x="993.435" y="228.875"/>
      <point x="901.65" y="140.945"/>
      <point x="778.37" y="140.945" type="curve" smooth="yes"/>
      <point x="652.62" y="140.945"/>
      <point x="585.775" y="211.26"/>
      <point x="585.775" y="343.335" type="curve" smooth="yes"/>
      <point x="585.775" y="377.505"/>
      <point x="590.92" y="434.05"/>
      <point x="603.715" y="555.35" type="curve" smooth="yes"/>
      <point x="622.39" y="735.39"/>
      <point x="693.97" y="841.645"/>
      <point x="845.985" y="841.645" type="curve" smooth="yes"/>
      <point x="963.24" y="841.645"/>
      <point x="1050.375" y="767.21"/>
      <point x="1051.11" y="621.93" type="curve" smooth="yes"/>
      <point x="1051.11" y="613.93"/>
      <point x="1051.11" y="605.665"/>
      <point x="1050.845" y="597.4" type="curve"/>
      <point x="1082.06" y="667.235" type="line"/>
      <point x="1061.255" y="667.235" type="line"/>
      <point x="1065.305" y="814.13"/>
      <point x="979.315" y="904.915"/>
      <point x="831.35" y="904.915" type="curve" smooth="yes"/>
      <point x="641.64" y="904.915"/>
      <point x="549.965" y="778.23"/>
      <point x="526.905" y="546.52" type="curve" smooth="yes"/>
      <point x="514.845" y="426.425"/>
      <point x="508.965" y="368.41"/>
      <point x="508.965" y="331.18" type="curve" smooth="yes"/>
      <point x="508.965" y="167.675"/>
      <point x="595.965" y="75.615"/>
    </contour>
    <contour>
      <point x="995.255" y="90.085" type="line"/>
      <point x="1067.09" y="96.65" type="line"/>
      <point x="1150.535" y="888.65" type="line"/>
      <point x="1076.905" y="888.65" type="line"/>
      <point x="1076.64" y="885.735" type="line"/>
      <point x="1058.905" y="684.445" type="line"/>
      <point x="1056.375" y="665.265" type="line"/>
      <point x="1019.785" y="316.445" type="line"/>
      <point x="1021.315" y="299.41" type="line"/>
    </contour>
    <contour>
      <point x="1046.26" y="149.44" type="curve"/>
      <point x="995.255" y="90.085" type="line"/>
      <point x="1031.23" y="83.555"/>
      <point x="1056.445" y="81.555"/>
      <point x="1102.565" y="81.82" type="curve" smooth="yes"/>
      <point x="1340.235" y="82.615"/>
      <point x="1456.15" y="198.675"/>
      <point x="1487.005" y="476.845" type="curve" smooth="yes"/>
      <point x="1499.125" y="582.12"/>
      <point x="1505.125" y="663.23"/>
      <point x="1507.86" y="700.675" type="curve" smooth="yes"/>
      <point x="1534.68" y="1103.445"/>
      <point x="1286.97" y="1323.445"/>
      <point x="873.925" y="1323.445" type="curve" smooth="yes"/>
      <point x="408.445" y="1323.445"/>
      <point x="192.93" y="1064.94"/>
      <point x="149.485" y="597.46" type="curve" smooth="yes"/>
      <point x="138.365" y="482.885"/>
      <point x="127.485" y="363.64"/>
      <point x="122.34" y="270.675" type="curve" smooth="yes"/>
      <point x="102.495" y="-126.385"/>
      <point x="350.76" y="-345.735"/>
      <point x="778.66" y="-345.735" type="curve" smooth="yes"/>
      <point x="1026.045" y="-345.735"/>
      <point x="1211.865" y="-287.12"/>
      <point x="1341.575" y="-191.335" type="curve"/>
      <point x="1354.08" y="-114.715" type="line"/>
      <point x="1230.105" y="-216.03"/>
      <point x="1039.78" y="-284.38"/>
      <point x="784.515" y="-284.38" type="curve" smooth="yes"/>
      <point x="392.225" y="-284.38"/>
      <point x="173.15" y="-82.775"/>
      <point x="192.26" y="271.06" type="curve" smooth="yes"/>
      <point x="197.405" y="359.965"/>
      <point x="209.02" y="475.56"/>
      <point x="220.67000000000002" y="602.725" type="curve" smooth="yes"/>
      <point x="256.79" y="1022.15"/>
      <point x="450.55" y="1262.62"/>
      <point x="870.13" y="1262.62" type="curve" smooth="yes"/>
      <point x="1249.155" y="1262.62"/>
      <point x="1466.435" y="1059.715"/>
      <point x="1438.675" y="700.615" type="curve" smooth="yes"/>
      <point x="1435.94" y="667.23"/>
      <point x="1428.675" y="580.41"/>
      <point x="1416.82" y="478.7" type="curve" smooth="yes"/>
      <point x="1390.35" y="234.26"/>
      <point x="1296.275" y="143.5"/>
      <point x="1117.055" y="143.5" type="curve" smooth="yes"/>
      <point x="1083.79" y="143.5"/>
      <point x="1067.585" y="145.235"/>
    </contour>
  </outline>
</glyph>
<glyph name="A" format="2">
  <advance width="1118.73"/>
  <unicode hex="0041"/>
  <anchor x="559.865" y="0.0" name="bottom"/>
  <anchor x="1098.825" y="0.0" name="ogonek"/>
  <anchor x="559.865" y="1278.0" name="top"/>
  <outline>
    <contour>
      <point x="66.99" y="0.0" type="line"/>
      <point x="150.92000000000002" y="0.0" type="line"/>
      <point x="545.395" y="1218.97" type="line"/>
      <point x="571.865" y="1218.97" type="line"/>
      <point x="967.81" y="0.0" type="line"/>
      <point x="1051.74" y="0.0" type="line"/>
      <point x="630.34" y="1278.0" type="line"/>
      <point x="486.92" y="1278.0" type="line"/>
    </contour>
    <contour>
      <point x="265.66" y="426.825" type="line"/>
      <point x="851.805" y="426.825" type="line"/>
      <point x="851.805" y="496.54" type="line"/>
      <point x="265.66" y="496.54" type="line"/>
    </contour>
  </outline>
</glyph>
<glyph name="B" format="2">
  <advance width="1135.515"/>
  <unicode hex="0042"/>
  <anchor x="568.155" y="0.0" name="bottom"/>
  <anchor x="568.155" y="1278.0" name="top"/>
  <outline>
    <contour>
      <point x="223.67000000000002" y="0.0" type="line"/>
      <point x="676.18" y="0.0" type="line" smooth="yes"/>
      <point x="927.165" y="0.0"/>
      <point x="1028.79" y="127.205"/>
      <point x="1028.79" y="322.685" type="curve" smooth="yes"/>
      <point x="1028.79" y="371.71" type="line" smooth="yes"/>
      <point x="1028.79" y="550.855"/>
      <point x="944.03" y="659.025"/>
      <point x="736.075" y="673.18" type="curve"/>
      <point x="740.485" y="667.745" type="line"/>
      <point x="922.295" y="681.13"/>
      <point x="1002.32" y="783.975"/>
      <point x="1002.32" y="949.735" type="curve" smooth="yes"/>
      <point x="1002.32" y="972.145" type="line" smooth="yes"/>
      <point x="1002.32" y="1159.65"/>
      <point x="906.695" y="1278.0"/>
      <point x="658.77" y="1278.0" type="curve" smooth="yes"/>
      <point x="222.61" y="1278.0" type="line"/>
      <point x="222.61" y="1208.815" type="line"/>
      <point x="653.735" y="1208.815" type="line" smooth="yes"/>
      <point x="851.425" y="1208.815"/>
      <point x="920.39" y="1114.15"/>
      <point x="920.39" y="963.665" type="curve" smooth="yes"/>
      <point x="920.39" y="941.05" type="line" smooth="yes"/>
      <point x="920.39" y="789.035"/>
      <point x="845.22" y="693.84"/>
      <point x="655.47" y="693.84" type="curve" smooth="yes"/>
      <point x="227.815" y="693.84" type="line"/>
      <point x="227.815" y="626.98" type="line"/>
      <point x="656.0" y="626.98" type="line" smooth="yes"/>
      <point x="871.1" y="626.98"/>
      <point x="946.065" y="530.05"/>
      <point x="946.065" y="371.3" type="curve" smooth="yes"/>
      <point x="946.065" y="325.6" type="line" smooth="yes"/>
      <point x="946.065" y="169.585"/>
      <point x="871.835" y="69.45"/>
      <point x="670.615" y="69.45" type="curve" smooth="yes"/>
      <point x="223.67000000000002" y="69.45" type="line"/>
    </contour>
    <contour>
      <point x="173.605" y="0.0" type="line"/>
      <point x="254.74" y="0.0" type="line"/>
      <point x="254.74" y="1278.0" type="line"/>
      <point x="173.605" y="1278.0" type="line"/>
    </contour>
  </outline>
</glyph>
<glyph name="C" format="2">
  <advance width="1001.89"/>
  <unicode hex="0043"/>
  <anchor x="531.395" y="0.0" name="bottom"/>
  <anchor x="531.395" y="1278.0" name="top"/>
  <outline>
    <contour>
      <point x="560.275" y="-19.855" type="curve" smooth="yes"/>
      <point x="717.95" y="-19.855"/>
      <point x="832.745" y="38.64"/>
      <point x="897.865" y="92.255" type="curve"/>
      <point x="905.78" y="174.68" type="line"/>
      <point x="824.31" y="108.125"/>
      <point x="716.575" y="55.040000000000006"/>
      <point x="569.02" y="55.040000000000006" type="curve" smooth="yes"/>
      <point x="324.945" y="55.040000000000006"/>
      <point x="202.04000000000002" y="204.35500000000002"/>
      <point x="202.04000000000002" y="466.78" type="curve" smooth="yes"/>
      <point x="202.04000000000002" y="813.545" type="line" smooth="yes"/>
      <point x="202.04000000000002" y="1077.44"/>
      <point x="324.21000000000004" y="1225.02"/>
      <point x="560.08" y="1225.02" type="curve" smooth="yes"/>
      <point x="707.695" y="1225.02"/>
      <point x="816.045" y="1168.465"/>
      <point x="895.78" y="1105.91" type="curve"/>
      <point x="887.13" y="1187.01" type="line"/>
      <point x="822.745" y="1238.89"/>
      <point x="708.54" y="1297.855"/>
      <point x="552.925" y="1297.855" type="curve" smooth="yes"/>
      <point x="266.35" y="1297.855"/>
      <point x="119.315" y="1123.085"/>
      <point x="119.315" y="814.34" type="curve" smooth="yes"/>
      <point x="119.315" y="464.925" type="line" smooth="yes"/>
      <point x="119.315" y="156.385"/>
      <point x="266.35" y="-19.855"/>
    </contour>
  </outline>
</glyph>
<glyph name="D" format="2">
  <advance width="1152.37"/>
  <unicode hex="0044"/>
  <anchor x="570.625" y="0.0" name="bottom"/>
  <anchor x="584.685" y="639.0" name="center"/>
  <anchor x="570.625" y="1278.0" name="top"/>
  <outline>
    <contour>
      <point x="224.61" y="0.0" type="line"/>
      <point x="555.19" y="0.0" type="line" smooth="yes"/>
      <point x="866.26" y="0.0"/>
      <point x="1033.38" y="174.325"/>
      <point x="1033.38" y="487.505" type="curve" smooth="yes"/>
      <point x="1033.38" y="791.025" type="line" smooth="yes"/>
      <point x="1033.38" y="1104.675"/>
      <point x="865.995" y="1278.0"/>
      <point x="555.19" y="1278.0" type="curve" smooth="yes"/>
      <point x="222.875" y="1278.0" type="line"/>
      <point x="222.875" y="1208.02" type="line"/>
      <point x="552.6" y="1208.02" type="line" smooth="yes"/>
      <point x="814.05" y="1208.02"/>
      <point x="951.185" y="1060.885"/>
      <point x="951.185" y="790.025" type="curve" smooth="yes"/>
      <point x="951.185" y="488.505" type="line" smooth="yes"/>
      <point x="951.185" y="218.64499999999998"/>
      <point x="814.05" y="70.51"/>
      <point x="552.6" y="70.51" type="curve" smooth="yes"/>
      <point x="224.61" y="70.51" type="line"/>
    </contour>
    <contour>
      <point x="173.605" y="0.0" type="line"/>
      <point x="254.74" y="0.0" type="line"/>
      <point x="254.74" y="1278.0" type="line"/>
      <point x="173.605" y="1278.0" type="line"/>
    </contour>
  </outline>
</glyph>
<glyph name="E" format="2">
  <advance width="1024.865"/>
  <unicode hex="0045"/>
  <anchor x="550.12" y="0.0" name="bottom"/>
  <anchor x="959.805" y="0.0" name="ogonek"/>
  <anchor x="550.12" y="1278.0" name="top"/>
  <anchor x="24.41" y="1278.0" name="topleft"/>
  <outline>
    <contour>
      <point x="173.605" y="0.0" type="line"/>
      <point x="254.74" y="0.0" type="line"/>
      <point x="254.74" y="1278.0" type="line"/>
      <point x="173.605" y="1278.0" type="line"/>
    </contour>
    <contour>
      <point x="198.795" y="0.0" type="line"/>
      <point x="914.96" y="0.0" type="line"/>
      <point x="914.96" y="70.245" type="line"/>
      <point x="198.795" y="70.245" type="line"/>
    </contour>
    <contour>
      <point x="218.515" y="619.45" type="line"/>
      <point x="895.165" y="619.45" type="line"/>
      <point x="895.165" y="689.165" type="line"/>
      <point x="218.515" y="689.165" type="line"/>
    </contour>
    <contour>
      <point x="197.06" y="1208.02" type="line"/>
      <point x="909.43" y="1208.02" type="line"/>
      <point x="909.43" y="1278.0" type="line"/>
      <point x="197.06" y="1278.0" type="line"/>
    </contour>
  </outline>
</glyph>
<glyph name="F" format="2">
  <advance width="983.275"/>
  <unicode hex="0046"/>
  <anchor x="491.77" y="0.0" name="bottom"/>
  <anchor x="491.77" y="1278.0" name="top"/>
  <outline>
    <contour>
      <point x="173.605" y="0.0" type="line"/>
      <point x="255.26999999999998" y="0.0" type="line"/>
      <point x="255.26999999999998" y="1278.0" type="line"/>
      <point x="173.605" y="1278.0" type="line"/>
    </contour>
    <contour>
      <point x="218.515" y="586.03" type="line"/>
      <point x="876.31" y="586.03" type="line"/>
      <point x="876.31" y="656.275" type="line"/>
      <point x="218.515" y="656.275" type="line"/>
    </contour>
    <contour>
      <point x="197.06" y="1207.755" type="line"/>
      <point x="890.575" y="1207.755" type="line"/>
      <point x="890.575" y="1278.0" type="line"/>
      <point x="197.06" y="1278.0" type="line"/>
    </contour>
  </outline>
</glyph>
<glyph name="G" format="2">
  <advance width="1142.345"/>
  <unicode hex="0047"/>
  <anchor x="565.13" y="0.0" name="bottom"/>
  <anchor x="565.13" y="1278.0" name="top"/>
  <outline>
    <contour>
      <point x="552.495" y="-20.12" type="curve" smooth="yes"/>
      <point x="776.255" y="-20.12"/>
      <point x="883.835" y="105.93"/>
      <point x="916.1" y="236.28" type="curve"/>
      <point x="991.62" y="234.54500000000002" type="line"/>
      <point x="991.62" y="691.66" type="line"/>
      <point x="588.925" y="691.66" type="line"/>
      <point x="588.925" y="622.68" type="line"/>
      <point x="930.725" y="622.68" type="line"/>
      <point x="911.015" y="655.93" type="line"/>
      <point x="911.015" y="299.865" type="line"/>
      <point x="875.34" y="164.32"/>
      <point x="766.025" y="51.92"/>
      <point x="571.925" y="51.92" type="curve" smooth="yes"/>
      <point x="327.5" y="51.92"/>
      <point x="202.04000000000002" y="200.115"/>
      <point x="202.04000000000002" y="463.625" type="curve" smooth="yes"/>
      <point x="202.04000000000002" y="795.4" type="line" smooth="yes"/>
      <point x="202.04000000000002" y="1072.09"/>
      <point x="333.74" y="1225.815"/>
      <point x="589.765" y="1225.815" type="curve" smooth="yes"/>
      <point x="758.115" y="1225.815"/>
      <point x="879.91" y="1168.73"/>
      <point x="968.03" y="1103.44" type="curve"/>
      <point x="958.85" y="1181.745" type="line"/>
      <point x="886.345" y="1237.36"/>
      <point x="760.695" y="1297.855"/>
      <point x="580.96" y="1297.855" type="curve" smooth="yes"/>
      <point x="277.795" y="1297.855"/>
      <point x="119.315" y="1117.41"/>
      <point x="119.315" y="796.46" type="curve" smooth="yes"/>
      <point x="119.315" y="462.625" type="line" smooth="yes"/>
      <point x="119.315" y="153.855"/>
      <point x="269.05" y="-20.12"/>
    </contour>
    <contour>
      <point x="916.34" y="264.735" type="line"/>
      <point x="911.015" y="0.0" type="line"/>
      <point x="991.62" y="0.0" type="line"/>
      <point x="991.62" y="264.735" type="line"/>
    </contour>
  </outline>
</glyph>
<glyph name="H" format="2">
  <advance width="1206.225"/>
  <unicode hex="0048"/>
  <anchor x="603.48" y="0.0" name="bottom"/>
  <anchor x="603.48" y="639.0" name="center"/>
  <anchor x="603.48" y="1278.0" name="top"/>
  <anchor x="24.41" y="1278.0" name="topleft"/>
  <outline>
    <contour>
      <point x="255.535" y="0.0" type="line"/>
      <point x="255.535" y="1278.0" type="line"/>
      <point x="173.605" y="1278.0" type="line"/>
      <point x="173.605" y="0.0" type="line"/>
    </contour>
    <contour>
      <point x="1032.62" y="0.0" type="line"/>
      <point x="1032.62" y="1278.0" type="line"/>
      <point x="950.69" y="1278.0" type="line"/>
      <point x="950.69" y="0.0" type="line"/>
    </contour>
    <contour>
      <point x="220.25" y="697.165" type="line"/>
      <point x="220.25" y="626.92" type="line"/>
      <point x="987.53" y="626.92" type="line"/>
      <point x="987.53" y="697.165" type="line"/>
    </contour>
  </outline>
</glyph>
<glyph name="I" format="2">
  <advance width="434.08"/>
  <unicode hex="0049"/>
  <anchor x="217.275" y="0.0" name="bottom"/>
  <anchor x="306.825" y="0.0" name="ogonek"/>
  <anchor x="217.275" y="1278.0" name="top"/>
  <anchor x="24.41" y="1278.0" name="topleft"/>
  <outline>
    <contour>
      <point x="258.005" y="0.0" type="line"/>
      <point x="258.005" y="1278.0" type="line"/>
      <point x="176.075" y="1278.0" type="line"/>
      <point x="176.075" y="0.0" type="line"/>
    </contour>
  </outline>
</glyph>
<glyph name="J" format="2">
  <advance width="827.88"/>
  <unicode hex="004A"/>
  <anchor x="414.94" y="0.0" name="bottom"/>
  <anchor x="621.545" y="1278.0" name="top"/>
  <outline>
    <contour>
      <point x="322.435" y="-14.06" type="curve" smooth="yes"/>
      <point x="571.975" y="-14.06"/>
      <point x="663.275" y="108.505"/>
      <point x="663.275" y="337.165" type="curve" smooth="yes"/>
      <point x="663.275" y="1278.0" type="line"/>
      <point x="581.345" y="1278.0" type="line"/>
      <point x="581.345" y="341.08" type="line" smooth="yes"/>
      <point x="581.345" y="151.68"/>
      <point x="512.645" y="59.245000000000005"/>
      <point x="311.305" y="59.245000000000005" type="curve" smooth="yes"/>
      <point x="230.22" y="59.245000000000005"/>
      <point x="149.195" y="76.45"/>
      <point x="74.11" y="111.33" type="curve"/>
      <point x="81.76" y="34.025" type="line"/>
      <point x="148.76" y="4.084999999999999"/>
      <point x="234.495" y="-14.06"/>
    </contour>
  </outline>
</glyph>
<glyph name="K" format="2">
  <advance width="1095.345"/>
  <unicode hex="004B"/>
  <anchor x="558.07" y="0.0" name="bottom"/>
  <anchor x="558.07" y="1278.0" name="top"/>
  <outline>
    <contour>
      <point x="931.51" y="0.0" type="line"/>
      <point x="1032.74" y="0.0" type="line"/>
      <point x="482.11" y="671.565" type="line"/>
      <point x="483.11" y="644.145" type="line"/>
      <point x="1020.475" y="1278.0" type="line"/>
      <point x="923.305" y="1278.0" type="line"/>
      <point x="421.78" y="686.695" type="line"/>
      <point x="246.15" y="686.695" type="line"/>
      <point x="246.15" y="618.835" type="line"/>
      <point x="421.78" y="618.835" type="line"/>
    </contour>
    <contour>
      <point x="173.605" y="0.0" type="line"/>
      <point x="255.005" y="0.0" type="line"/>
      <point x="255.005" y="1278.0" type="line"/>
      <point x="173.605" y="1278.0" type="line"/>
    </contour>
  </outline>
</glyph>
<glyph name="L" format="2">
  <advance width="962.095"/>
  <unicode hex="004C"/>
  <anchor x="528.205" y="0.0" name="bottom"/>
  <anchor x="472.555" y="651.145" name="center"/>
  <anchor x="215.07" y="1278.0" name="top"/>
  <anchor x="676.23" y="1278.0" name="topright"/>
  <outline>
    <contour>
      <point x="255.535" y="0.0" type="line"/>
      <point x="255.535" y="1278.0" type="line"/>
      <point x="173.605" y="1278.0" type="line"/>
      <point x="173.605" y="0.0" type="line"/>
    </contour>
    <contour>
      <point x="212.31" y="70.775" type="line"/>
      <point x="212.31" y="0.0" type="line"/>
      <point x="894.805" y="0.0" type="line"/>
      <point x="894.805" y="70.775" type="line"/>
    </contour>
  </outline>
</glyph>
<glyph name="M" format="2">
  <advance width="1453.14"/>
  <unicode hex="004D"/>
  <anchor x="727.07" y="0.0" name="bottom"/>
  <anchor x="727.07" y="1278.0" name="top"/>
  <outline>
    <contour>
      <point x="147.725" y="0.0" type="line"/>
      <point x="228.8" y="0.0" type="line"/>
      <point x="253.825" y="606.285" type="line"/>
      <point x="278.38" y="1197.83" type="line"/>
      <point x="298.79" y="1197.83" type="line"/>
      <point x="673.11" y="145.795" type="line"/>
      <point x="780.03" y="145.795" type="line"/>
      <point x="1154.35" y="1197.83" type="line"/>
      <point x="1175.495" y="1197.83" type="line"/>
      <point x="1199.785" y="607.285" type="line"/>
      <point x="1225.075" y="0.0" type="line"/>
      <point x="1305.415" y="0.0" type="line"/>
      <point x="1248.39" y="1278.0" type="line"/>
      <point x="1105.09" y="1278.0" type="line"/>
      <point x="734.54" y="237.36" type="line"/>
      <point x="718.6" y="237.36" type="line"/>
      <point x="348.05" y="1278.0" type="line"/>
      <point x="205.485" y="1278.0" type="line"/>
    </contour>
  </outline>
</glyph>
<glyph name="N" format="2">
  <advance width="1206.225"/>
  <unicode hex="004E"/>
  <anchor x="604.275" y="0.0" name="bottom"/>
  <anchor x="604.275" y="1278.0" name="top"/>
  <outline>
    <contour>
      <point x="308.23" y="1278.0" type="line"/>
      <point x="173.605" y="1278.0" type="line"/>
      <point x="173.605" y="0.0" type="line"/>
      <point x="253.945" y="0.0" type="line"/>
      <point x="253.945" y="591.815" type="line"/>
      <point x="250.35500000000002" y="1199.89" type="line"/>
      <point x="263.825" y="1199.89" type="line"/>
      <point x="899.85" y="0.0" type="line"/>
      <point x="1032.62" y="0.0" type="line"/>
      <point x="1032.62" y="1278.0" type="line"/>
      <point x="952.28" y="1278.0" type="line"/>
      <point x="952.28" y="653.135" type="line"/>
      <point x="955.87" y="82.025" type="line"/>
      <point x="942.4" y="82.025" type="line"/>
    </contour>
  </outline>
</glyph>
<glyph name="O" format="2">
  <advance width="1154.465"/>
  <unicode hex="004F"/>
  <anchor x="577.6" y="0.0" name="bottom"/>
  <anchor x="577.6" y="639.0" name="center"/>
  <anchor x="790.005" y="5.0" name="ogonek"/>
  <anchor x="577.6" y="1278.0" name="top"/>
  <anchor x="6.735" y="1278.0" name="topleft"/>
  <anchor x="939.195" y="1278.0" name="topright"/>
  <outline>
    <contour>
      <point x="576.865" y="-20.12" type="curve" smooth="yes"/>
      <point x="873.85" y="-20.12"/>
      <point x="1035.15" y="157.59"/>
      <point x="1035.15" y="474.01" type="curve" smooth="yes"/>
      <point x="1035.15" y="804.255" type="line" smooth="yes"/>
      <point x="1035.15" y="1120.41"/>
      <point x="873.85" y="1298.12"/>
      <point x="576.865" y="1298.12" type="curve" smooth="yes"/>
      <point x="279.615" y="1298.12"/>
      <point x="119.315" y="1120.41"/>
      <point x="119.315" y="804.255" type="curve" smooth="yes"/>
      <point x="119.315" y="474.01" type="line" smooth="yes"/>
      <point x="119.315" y="157.59"/>
      <point x="279.615" y="-20.12"/>
    </contour>
    <contour>
      <point x="576.865" y="50.595" type="curve" smooth="yes"/>
      <point x="330.5" y="50.595"/>
      <point x="202.04000000000002" y="203.32"/>
      <point x="202.04000000000002" y="471.89" type="curve" smooth="yes"/>
      <point x="202.04000000000002" y="807.11" type="line" smooth="yes"/>
      <point x="202.04000000000002" y="1075.945"/>
      <point x="330.5" y="1227.405"/>
      <point x="576.865" y="1227.405" type="curve" smooth="yes"/>
      <point x="823.7" y="1227.405"/>
      <point x="952.425" y="1075.945"/>
      <point x="952.425" y="807.11" type="curve" smooth="yes"/>
      <point x="952.425" y="471.89" type="line" smooth="yes"/>
      <point x="952.425" y="203.32"/>
      <point x="823.7" y="50.595"/>
    </contour>
  </outline>
</glyph>
<glyph name="P" format="2">
  <advance width="1089.165"/>
  <unicode hex="0050"/>
  <anchor x="542.215" y="0.0" name="bottom"/>
  <anchor x="542.215" y="1278.0" name="top"/>
  <outline>
    <contour>
      <point x="223.285" y="461.45" type="line"/>
      <point x="611.42" y="461.45" type="line" smooth="yes"/>
      <point x="874.285" y="461.45"/>
      <point x="987.645" y="603.715"/>
      <point x="987.645" y="825.4" type="curve" smooth="yes"/>
      <point x="987.645" y="918.725" type="line" smooth="yes"/>
      <point x="987.645" y="1137.94"/>
      <point x="875.285" y="1278.0"/>
      <point x="613.89" y="1278.0" type="curve" smooth="yes"/>
      <point x="221.55" y="1278.0" type="line"/>
      <point x="221.55" y="1209.285" type="line"/>
      <point x="611.36" y="1209.285" type="line" smooth="yes"/>
      <point x="821.545" y="1209.285"/>
      <point x="905.98" y="1096.945"/>
      <point x="905.98" y="915.93" type="curve" smooth="yes"/>
      <point x="905.98" y="828.195" type="line" smooth="yes"/>
      <point x="905.98" y="645.77"/>
      <point x="820.81" y="531.165"/>
      <point x="608.625" y="531.165" type="curve" smooth="yes"/>
      <point x="223.285" y="531.165" type="line"/>
    </contour>
    <contour>
      <point x="173.605" y="0.0" type="line"/>
      <point x="254.74" y="0.0" type="line"/>
      <point x="254.74" y="475.22" type="line"/>
      <point x="254.47500000000002" y="510.83" type="line"/>
      <point x="254.47500000000002" y="1278.0" type="line"/>
      <point x="173.605" y="1278.0" type="line"/>
    </contour>
  </outline>
</glyph>
<glyph name="Q" format="2">
  <advance width="1155.73"/>
  <unicode hex="0051"/>
  <anchor x="577.865" y="0.0" name="bottom"/>
  <anchor x="577.865" y="1278.0" name="top"/>
  <outline>
    <contour>
      <point x="1151.85" y="-29.505000000000003" type="line"/>
      <point x="1151.85" y="46.269999999999996" type="line"/>
      <point x="693.8199999999999" y="42.150000000000006" type="line"/>
      <point x="707.05" y="41.86" type="line"/>
      <point x="886.605" y="65.245"/>
      <point x="1035.15" y="196.41500000000002"/>
      <point x="1035.15" y="481.02" type="curve" smooth="yes"/>
      <point x="1035.15" y="804.255" type="line" smooth="yes"/>
      <point x="1035.15" y="1122.615"/>
      <point x="874.585" y="1298.12"/>
      <point x="576.865" y="1298.12" type="curve" smooth="yes"/>
      <point x="278.88" y="1298.12"/>
      <point x="119.315" y="1122.615"/>
      <point x="119.315" y="804.255" type="curve" smooth="yes"/>
      <point x="119.315" y="474.01" type="line" smooth="yes"/>
      <point x="119.315" y="160.325"/>
      <point x="281.82" y="-11.795"/>
      <point x="621.08" y="-18.65" type="curve" smooth="yes"/>
    </contour>
    <contour>
      <point x="611.54" y="50.86" type="line" smooth="yes"/>
      <point x="349.5" y="53.245000000000005"/>
      <point x="202.04000000000002" y="204.055"/>
      <point x="202.04000000000002" y="471.89" type="curve" smooth="yes"/>
      <point x="202.04000000000002" y="807.11" type="line" smooth="yes"/>
      <point x="202.04000000000002" y="1077.415"/>
      <point x="330.5" y="1227.405"/>
      <point x="576.865" y="1227.405" type="curve" smooth="yes"/>
      <point x="823.7" y="1227.405"/>
      <point x="952.425" y="1077.415"/>
      <point x="952.425" y="807.11" type="curve" smooth="yes"/>
      <point x="952.425" y="470.42" type="line" smooth="yes"/>
      <point x="952.425" y="197.03"/>
      <point x="807.82" y="83.535"/>
      <point x="628.925" y="50.595" type="curve"/>
    </contour>
  </outline>
</glyph>
<glyph name="R" format="2">
  <advance width="1121.84"/>
  <unicode hex="0052"/>
  <anchor x="572.155" y="0.0" name="bottom"/>
  <anchor x="561.42" y="1278.0" name="top"/>
  <outline>
    <contour>
      <point x="935.595" y="0.0" type="line"/>
      <point x="1020.115" y="0.0" type="line"/>
      <point x="974.91" y="279.53" type="line" smooth="yes"/>
      <point x="944.91" y="466.77"/>
      <point x="892.44" y="590.06"/>
      <point x="673.38" y="605.325" type="curve"/>
      <point x="711.075" y="590.29" type="line"/>
      <point x="712.545" y="595.71" type="line"/>
      <point x="917.885" y="607.745"/>
      <point x="1000.585" y="733.12"/>
      <point x="1000.585" y="910.555" type="curve" smooth="yes"/>
      <point x="1000.585" y="949.17" type="line" smooth="yes"/>
      <point x="1000.585" y="1150.0"/>
      <point x="894.225" y="1278.0"/>
      <point x="644.77" y="1278.0" type="curve" smooth="yes"/>
      <point x="222.345" y="1278.0" type="line"/>
      <point x="222.345" y="1208.55" type="line"/>
      <point x="635.88" y="1208.55" type="line" smooth="yes"/>
      <point x="838.895" y="1208.55"/>
      <point x="918.125" y="1106.295"/>
      <point x="918.125" y="939.16" type="curve" smooth="yes"/>
      <point x="918.125" y="903.075" type="line" smooth="yes"/>
      <point x="918.125" y="735.145"/>
      <point x="842.1" y="623.48"/>
      <point x="642.085" y="623.48" type="curve" smooth="yes"/>
      <point x="227.815" y="622.48" type="line"/>
      <point x="227.815" y="555.62" type="line"/>
      <point x="610.795" y="555.355" type="line" smooth="yes"/>
      <point x="820.69" y="555.09"/>
      <point x="870.1" y="431.605"/>
      <point x="894.98" y="270.025" type="curve" smooth="yes"/>
    </contour>
    <contour>
      <point x="173.605" y="0.0" type="line"/>
      <point x="254.74" y="0.0" type="line"/>
      <point x="254.74" y="571.125" type="line"/>
      <point x="254.47500000000002" y="603.495" type="line"/>
      <point x="254.47500000000002" y="1278.0" type="line"/>
      <point x="173.605" y="1278.0" type="line"/>
    </contour>
  </outline>
</glyph>
<glyph name="S" format="2">
  <advance width="1025.48"/>
  <unicode hex="0053"/>
  <anchor x="504.24" y="0.0" name="bottom"/>
  <anchor x="504.24" y="1278.0" name="top"/>
  <outline>
    <contour>
      <point x="505.53" y="-19.59" type="curve" smooth="yes"/>
      <point x="776.515" y="-19.59"/>
      <point x="917.02" y="97.53"/>
      <point x="917.02" y="315.89" type="curve" smooth="yes"/>
      <point x="917.02" y="339.565" type="line" smooth="yes"/>
      <point x="917.02" y="549.395"/>
      <point x="822.395" y="631.805"/>
      <point x="532.165" y="692.985" type="curve" smooth="yes"/>
      <point x="258.475" y="750.515"/>
      <point x="187.45" y="821.95"/>
      <point x="187.45" y="975.845" type="curve" smooth="yes"/>
      <point x="187.45" y="981.315" type="line" smooth="yes"/>
      <point x="187.45" y="1134.885"/>
      <point x="279.97" y="1225.345"/>
      <point x="498.31" y="1225.345" type="curve" smooth="yes"/>
      <point x="667.335" y="1225.345"/>
      <point x="789.925" y="1176.465"/>
      <point x="879.575" y="1117.525" type="curve"/>
      <point x="871.13" y="1196.89" type="line"/>
      <point x="798.155" y="1246.035"/>
      <point x="670.625" y="1296.855"/>
      <point x="491.565" y="1296.855" type="curve" smooth="yes"/>
      <point x="228.615" y="1296.855"/>
      <point x="104.725" y="1181.735"/>
      <point x="104.725" y="983.17" type="curve" smooth="yes"/>
      <point x="104.725" y="976.11" type="line" smooth="yes"/>
      <point x="104.725" y="783.425"/>
      <point x="195.675" y="690.1"/>
      <point x="493.64" y="628.45" type="curve" smooth="yes"/>
      <point x="752.27" y="576.92"/>
      <point x="834.295" y="509.81"/>
      <point x="834.295" y="338.565" type="curve" smooth="yes"/>
      <point x="834.295" y="316.95" type="line" smooth="yes"/>
      <point x="834.295" y="144.175"/>
      <point x="722.1" y="53.510000000000005"/>
      <point x="502.76" y="53.510000000000005" type="curve" smooth="yes"/>
      <point x="335.085" y="53.510000000000005"/>
      <point x="198.435" y="107.98"/>
      <point x="98.375" y="174.32999999999998" type="curve"/>
      <point x="107.82" y="89.05" type="line"/>
      <point x="182.0" y="39.435"/>
      <point x="319.855" y="-19.59"/>
    </contour>
  </outline>
</glyph>
<glyph name="T" format="2">
  <advance width="1026.755"/>
  <unicode hex="0054"/>
  <anchor x="513.745" y="0.0" name="bottom"/>
  <anchor x="513.745" y="639.0" name="center"/>
  <anchor x="513.745" y="1278.0" name="top"/>
  <outline>
    <contour>
      <point x="472.545" y="0.0" type="line"/>
      <point x="554.475" y="0.0" type="line"/>
      <point x="554.475" y="1268.725" type="line"/>
      <point x="472.545" y="1268.725" type="line"/>
    </contour>
    <contour>
      <point x="72.28999999999999" y="1208.49" type="line"/>
      <point x="954.465" y="1208.49" type="line"/>
      <point x="954.465" y="1278.0" type="line"/>
      <point x="72.28999999999999" y="1278.0" type="line"/>
    </contour>
  </outline>
</glyph>
<glyph name="U" format="2">
  <advance width="1186.96"/>
  <unicode hex="0055"/>
  <anchor x="593.48" y="0.0" name="bottom"/>
  <anchor x="804.705" y="5.0" name="ogonek"/>
  <anchor x="593.48" y="1278.0" name="top"/>
  <anchor x="1151.26" y="1278.0" name="topright"/>
  <outline>
    <contour>
      <point x="593.48" y="-20.12" type="curve" smooth="yes"/>
      <point x="883.85" y="-20.12"/>
      <point x="1024.09" y="144.735"/>
      <point x="1024.09" y="443.215" type="curve" smooth="yes"/>
      <point x="1024.09" y="1278.0" type="line"/>
      <point x="942.16" y="1278.0" type="line"/>
      <point x="942.16" y="441.625" type="line" smooth="yes"/>
      <point x="942.16" y="191.525"/>
      <point x="833.435" y="51.655"/>
      <point x="593.48" y="51.655" type="curve" smooth="yes"/>
      <point x="353.525" y="51.655"/>
      <point x="244.8" y="191.525"/>
      <point x="244.8" y="441.625" type="curve" smooth="yes"/>
      <point x="244.8" y="1278.0" type="line"/>
      <point x="162.87" y="1278.0" type="line"/>
      <point x="162.87" y="443.215" type="line" smooth="yes"/>
      <point x="162.87" y="144.735"/>
      <point x="302.64" y="-20.12"/>
    </contour>
  </outline>
</glyph>
<glyph name="V" format="2">
  <advance width="1099.67"/>
  <unicode hex="0056"/>
  <anchor x="550.335" y="0.0" name="bottom"/>
  <anchor x="550.335" y="1278.0" name="top"/>
  <outline>
    <contour>
      <point x="477.86" y="0.0" type="line"/>
      <point x="622.81" y="0.0" type="line"/>
      <point x="1034.15" y="1278.0" type="line"/>
      <point x="948.365" y="1278.0" type="line"/>
      <point x="562.07" y="64.27" type="line"/>
      <point x="537.6" y="64.27" type="line"/>
      <point x="151.305" y="1278.0" type="line"/>
      <point x="65.52" y="1278.0" type="line"/>
    </contour>
  </outline>
</glyph>
<glyph name="W" format="2">
  <advance width="1590.525"/>
  <unicode hex="0057"/>
  <anchor x="796.13" y="0.0" name="bottom"/>
  <anchor x="796.13" y="1278.0" name="top"/>
  <outline>
    <contour>
      <point x="370.8" y="0.0" type="line"/>
      <point x="514.015" y="0.0" type="line"/>
      <point x="708.635" y="828.565" type="line"/>
      <point x="787.395" y="1174.08" type="line"/>
      <point x="803.395" y="1174.08" type="line"/>
      <point x="882.155" y="828.565" type="line"/>
      <point x="1078.51" y="0.0" type="line"/>
      <point x="1219.99" y="0.0" type="line"/>
      <point x="1507.535" y="1278.0" type="line"/>
      <point x="1424.075" y="1278.0" type="line"/>
      <point x="1177.08" y="158.74" type="line"/>
      <point x="1158.6" y="69.51" type="line"/>
      <point x="1136.455" y="69.51" type="line"/>
      <point x="1118.505" y="158.74" type="line"/>
      <point x="861.28" y="1241.59" type="line"/>
      <point x="729.51" y="1241.59" type="line"/>
      <point x="473.49" y="159.475" type="line"/>
      <point x="454.805" y="69.51" type="line"/>
      <point x="432.925" y="69.51" type="line"/>
      <point x="414.445" y="159.475" type="line"/>
      <point x="167.45" y="1278.0" type="line"/>
      <point x="82.99" y="1278.0" type="line"/>
    </contour>
  </outline>
</glyph>
<glyph name="X" format="2">
  <advance width="1097.02"/>
  <unicode hex="0058"/>
  <anchor x="549.01" y="0.0" name="bottom"/>
  <anchor x="549.01" y="1278.0" name="top"/>
  <outline>
    <contour>
      <point x="72.195" y="0.0" type="line"/>
      <point x="164.10000000000002" y="0.0" type="line"/>
      <point x="543.48" y="610.475" type="line"/>
      <point x="554.54" y="610.475" type="line"/>
      <point x="933.655" y="0.0" type="line"/>
      <point x="1024.825" y="0.0" type="line"/>
      <point x="607.015" y="671.035" type="line"/>
      <point x="607.015" y="648.82" type="line"/>
      <point x="1018.765" y="1278.0" type="line"/>
      <point x="927.92" y="1278.0" type="line"/>
      <point x="554.54" y="704.73" type="line"/>
      <point x="543.745" y="704.73" type="line"/>
      <point x="169.365" y="1278.0" type="line"/>
      <point x="79.255" y="1278.0" type="line"/>
      <point x="491.005" y="648.82" type="line"/>
      <point x="491.005" y="671.035" type="line"/>
    </contour>
  </outline>
</glyph>
<glyph name="Y" format="2">
  <advance width="1058.345"/>
  <unicode hex="0059"/>
  <anchor x="529.54" y="0.0" name="bottom"/>
  <anchor x="529.54" y="1278.0" name="top"/>
  <anchor x="24.41" y="1278.0" name="topleft"/>
  <outline>
    <contour>
      <point x="493.52" y="412.425" type="line"/>
      <point x="565.09" y="412.425" type="line"/>
      <point x="1001.885" y="1278.0" type="line"/>
      <point x="914.1" y="1278.0" type="line"/>
      <point x="640.505" y="731.415" type="line"/>
      <point x="535.07" y="516.005" type="line"/>
      <point x="523.54" y="516.005" type="line"/>
      <point x="418.105" y="731.415" type="line"/>
      <point x="144.245" y="1278.0" type="line"/>
      <point x="56.46" y="1278.0" type="line"/>
    </contour>
    <contour>
      <point x="488.87" y="0.0" type="line"/>
      <point x="569.74" y="0.0" type="line"/>
      <point x="569.74" y="494.055" type="line"/>
      <point x="488.87" y="494.055" type="line"/>
    </contour>
  </outline>
</glyph>
<glyph name="Z" format="2">
  <advance width="1015.335"/>
  <unicode hex="005A"/>
  <anchor x="508.3" y="0.0" name="bottom"/>
  <anchor x="508.3" y="639.0" name="center"/>
  <anchor x="508.3" y="1278.0" name="top"/>
  <outline>
    <contour>
      <point x="914.285" y="70.51" type="line"/>
      <point x="195.87" y="70.51" type="line"/>
      <point x="908.49" y="1214.61" type="line"/>
      <point x="908.49" y="1278.0" type="line"/>
      <point x="105.11" y="1278.0" type="line"/>
      <point x="105.11" y="1208.755" type="line"/>
      <point x="813.2" y="1208.755" type="line"/>
      <point x="101.315" y="64.655" type="line"/>
      <point x="101.315" y="0.0" type="line"/>
      <point x="914.285" y="0.0" type="line"/>
    </contour>
  </outline>
</glyph>
<glyph name="bracketleft" format="2">
  <advance width="597.42"/>
  <unicode hex="005B"/>
  <outline>
    <contour>
      <point x="174.605" y="-238.12" type="line"/>
      <point x="538.745" y="-238.12" type="line"/>
      <point x="538.745" y="-174.64499999999998" type="line"/>
      <point x="250.03" y="-174.64499999999998" type="line"/>
      <point x="250.03" y="1286.79" type="line"/>
      <point x="538.745" y="1286.79" type="line"/>
      <point x="538.745" y="1350.265" type="line"/>
      <point x="174.605" y="1350.265" type="line"/>
    </contour>
  </outline>
</glyph>
<glyph name="backslash" format="2">
  <advance width="788.26"/>
  <unicode hex="005C"/>
  <outline>
    <contour>
      <point x="729.775" y="-233.915" type="line"/>
      <point x="135.85" y="1337.12" type="line"/>
      <point x="58.485" y="1337.12" type="line"/>
      <point x="652.145" y="-233.915" type="line"/>
    </contour>
  </outline>
</glyph>
<glyph name="bracketright" format="2">
  <advance width="597.42"/>
  <unicode hex="005D"/>
  <outline>
    <contour>
      <point x="422.815" y="-238.12" type="line"/>
      <point x="422.815" y="1350.265" type="line"/>
      <point x="58.675" y="1350.265" type="line"/>
      <point x="58.675" y="1286.79" type="line"/>
      <point x="347.39" y="1286.79" type="line"/>
      <point x="347.39" y="-174.64499999999998" type="line"/>
      <point x="58.675" y="-174.64499999999998" type="line"/>
      <point x="58.675" y="-238.12" type="line"/>
    </contour>
  </outline>
</glyph>
<glyph name="asciicircum" format="2">
  <advance width="809.225"/>
  <unicode hex="005E"/>
  <outline>
    <contour>
      <point x="346.04" y="1278.0" type="line"/>
      <point x="75.195" y="615.675" type="line"/>
      <point x="150.38" y="615.675" type="line"/>
      <point x="396.01" y="1222.475" type="line"/>
      <point x="412.95" y="1222.475" type="line"/>
      <point x="658.845" y="615.675" type="line"/>
      <point x="734.03" y="615.675" type="line"/>
      <point x="462.92" y="1278.0" type="line"/>
    </contour>
  </outline>
</glyph>
<glyph name="underscore" format="2">
  <advance width="923.99"/>
  <unicode hex="005F"/>
  <outline>
    <contour>
      <point x="69.845" y="-167.14" type="line"/>
      <point x="854.145" y="-167.14" type="line"/>
      <point x="854.145" y="-103.34" type="line"/>
      <point x="69.845" y="-103.34" type="line"/>
    </contour>
  </outline>
</glyph>
<glyph name="grave" format="2">
  <advance width="504.595"/>
  <unicode hex="0060"/>
  <anchor x="368.96" y="972.855" name="_top"/>
  <anchor x="364.49" y="1305.07" name="top"/>
  <outline>
    <contour>
      <point x="198.075" y="1362.12" type="line"/>
      <point x="105.555" y="1362.12" type="line"/>
      <point x="105.555" y="1359.855" type="line"/>
      <point x="329.735" y="1106.23" type="line"/>
      <point x="403.98" y="1106.23" type="line"/>
      <point x="403.98" y="1107.76" type="line"/>
    </contour>
  </outline>
</glyph>
<glyph name="a" format="2">
  <advance width="954.96"/>
  <unicode hex="0061"/>
  <anchor x="466.805" y="0.0" name="bottom"/>
  <anchor x="863.645" y="0.0" name="ogonek"/>
  <anchor x="466.805" y="972.855" name="top"/>
  <outline>
    <contour>
      <point x="739.425" y="0.0" type="line"/>
      <point x="819.03" y="0.0" type="line"/>
      <point x="819.03" y="657.28" type="line" smooth="yes"/>
      <point x="819.03" y="867.435"/>
      <point x="714.5" y="992.915"/>
      <point x="473.625" y="992.915" type="curve" smooth="yes"/>
      <point x="312.36" y="992.915"/>
      <point x="197.445" y="935.83"/>
      <point x="130.675" y="888.36" type="curve"/>
      <point x="122.23" y="814.03" type="line"/>
      <point x="205.205" y="871.38"/>
      <point x="321.0" y="924.73"/>
      <point x="464.88" y="924.73" type="curve" smooth="yes"/>
      <point x="653.725" y="924.73"/>
      <point x="740.69" y="832.21"/>
      <point x="740.69" y="655.75" type="curve"/>
      <point x="740.425" y="580.29" type="line"/>
      <point x="740.425" y="262.735" type="line"/>
      <point x="744.485" y="249.64" type="line"/>
    </contour>
    <contour>
      <point x="391.52" y="-19.795" type="curve" smooth="yes"/>
      <point x="614.75" y="-19.795"/>
      <point x="727.945" y="113.34"/>
      <point x="748.92" y="262.27" type="curve"/>
      <point x="767.28" y="262.27" type="line"/>
      <point x="746.16" y="324.18" type="line"/>
      <point x="719.425" y="167.465"/>
      <point x="606.11" y="47.655"/>
      <point x="412.155" y="47.655" type="curve" smooth="yes"/>
      <point x="253.585" y="47.655"/>
      <point x="169.185" y="119.705"/>
      <point x="169.185" y="256.48" type="curve" smooth="yes"/>
      <point x="169.185" y="277.095" type="line" smooth="yes"/>
      <point x="169.185" y="402.845"/>
      <point x="243.97" y="462.485"/>
      <point x="426.745" y="488.835" type="curve" smooth="yes"/>
      <point x="763.135" y="537.655" type="line"/>
      <point x="759.485" y="600.275" type="line"/>
      <point x="415.505" y="549.455" type="line" smooth="yes"/>
      <point x="183.675" y="515.19"/>
      <point x="90.315" y="435.925"/>
      <point x="90.315" y="272.71" type="curve" smooth="yes"/>
      <point x="90.315" y="247.855" type="line" smooth="yes"/>
      <point x="90.315" y="73.325"/>
      <point x="197.785" y="-19.795"/>
    </contour>
  </outline>
</glyph>
<glyph name="b" format="2">
  <advance width="1044.105"/>
  <unicode hex="0062"/>
  <anchor x="528.215" y="0.0" name="bottom"/>
  <anchor x="528.215" y="1327.675" name="top"/>
  <outline>
    <contour>
      <point x="564.645" y="-19.795" type="curve" smooth="yes"/>
      <point x="804.645" y="-19.795"/>
      <point x="934.32" y="126.325"/>
      <point x="934.32" y="397.83" type="curve" smooth="yes"/>
      <point x="934.32" y="574.88" type="line" smooth="yes"/>
      <point x="934.32" y="845.59"/>
      <point x="805.645" y="992.65"/>
      <point x="568.97" y="992.65" type="curve" smooth="yes"/>
      <point x="365.62" y="992.65"/>
      <point x="244.81" y="865.455"/>
      <point x="222.10000000000002" y="707.91" type="curve"/>
      <point x="199.175" y="707.91" type="line"/>
      <point x="223.8" y="645.205" type="line"/>
      <point x="252.26999999999998" y="811.125"/>
      <point x="374.67" y="926.26"/>
      <point x="547.215" y="926.26" type="curve" smooth="yes"/>
      <point x="747.46" y="926.26"/>
      <point x="854.92" y="805.185"/>
      <point x="854.92" y="579.12" type="curve" smooth="yes"/>
      <point x="854.92" y="394.65" type="line" smooth="yes"/>
      <point x="854.92" y="167.995"/>
      <point x="745.99" y="47.655"/>
      <point x="549.95" y="47.655" type="curve" smooth="yes"/>
      <point x="377.96" y="47.655"/>
      <point x="238.21" y="150.70499999999998"/>
      <point x="227.535" y="355.13" type="curve"/>
      <point x="196.26" y="281.85" type="line"/>
      <point x="222.305" y="281.85" type="line"/>
      <point x="233.05" y="99.075"/>
      <point x="371.27" y="-19.795"/>
    </contour>
    <contour>
      <point x="151.93" y="0.0" type="line"/>
      <point x="231.065" y="0.0" type="line"/>
      <point x="225.26999999999998" y="252.52" type="line"/>
      <point x="227.535" y="279.975" type="line"/>
      <point x="227.535" y="694.06" type="line"/>
      <point x="226.535" y="717.035" type="line"/>
      <point x="230.8" y="995.095" type="line"/>
      <point x="230.8" y="1327.675" type="line"/>
      <point x="151.93" y="1327.675" type="line"/>
    </contour>
  </outline>
</glyph>
<glyph name="c" format="2">
  <advance width="857.565"/>
  <unicode hex="0063"/>
  <anchor x="472.3" y="0.0" name="bottom"/>
  <anchor x="472.3" y="972.855" name="top"/>
  <outline>
    <contour>
      <point x="490.01" y="-20.06" type="curve" smooth="yes"/>
      <point x="628.445" y="-20.06"/>
      <point x="718.83" y="26.759999999999998"/>
      <point x="773.215" y="70.905" type="curve"/>
      <point x="782.13" y="148.29500000000002" type="line"/>
      <point x="718.275" y="95.21000000000001"/>
      <point x="631.07" y="49.655"/>
      <point x="499.695" y="49.655" type="curve" smooth="yes"/>
      <point x="292.765" y="49.655"/>
      <point x="188.92000000000002" y="174.91"/>
      <point x="188.92000000000002" y="401.215" type="curve" smooth="yes"/>
      <point x="188.92000000000002" y="574.375" type="line" smooth="yes"/>
      <point x="188.92000000000002" y="801.005"/>
      <point x="293.5" y="924.995"/>
      <point x="497.49" y="924.995" type="curve" smooth="yes"/>
      <point x="624.925" y="924.995"/>
      <point x="711.335" y="880.91"/>
      <point x="773.865" y="827.09" type="curve"/>
      <point x="765.685" y="903.215" type="line"/>
      <point x="714.3" y="944.89"/>
      <point x="624.445" y="993.18"/>
      <point x="490.01" y="993.18" type="curve" smooth="yes"/>
      <point x="236.76" y="993.18"/>
      <point x="109.52" y="844.205"/>
      <point x="109.52" y="575.435" type="curve" smooth="yes"/>
      <point x="109.52" y="399.155" type="line" smooth="yes"/>
      <point x="109.52" y="129.18"/>
      <point x="236.495" y="-20.06"/>
    </contour>
  </outline>
</glyph>
<glyph name="d" format="2">
  <advance width="1044.105"/>
  <unicode hex="0064"/>
  <anchor x="515.89" y="0.0" name="bottom"/>
  <anchor x="515.89" y="487.06" name="center"/>
  <anchor x="515.89" y="1327.675" name="top"/>
  <anchor x="1075.07" y="1327.675" name="topright"/>
  <outline>
    <contour>
      <point x="475.135" y="-19.795" type="curve" smooth="yes"/>
      <point x="678.75" y="-19.795"/>
      <point x="799.825" y="107.4"/>
      <point x="822.535" y="264.945" type="curve"/>
      <point x="845.725" y="264.945" type="line"/>
      <point x="820.305" y="328.71" type="line"/>
      <point x="791.835" y="162.79"/>
      <point x="669.435" y="47.655"/>
      <point x="497.155" y="47.655" type="curve" smooth="yes"/>
      <point x="296.645" y="47.655"/>
      <point x="189.185" y="168.73000000000002"/>
      <point x="189.185" y="394.53" type="curve" smooth="yes"/>
      <point x="189.185" y="580.06" type="line" smooth="yes"/>
      <point x="189.185" y="805.92"/>
      <point x="298.38" y="926.26"/>
      <point x="494.95" y="926.26" type="curve" smooth="yes"/>
      <point x="667.47" y="926.26"/>
      <point x="806.16" y="822.15"/>
      <point x="816.57" y="618.785" type="curve"/>
      <point x="847.315" y="691.005" type="line"/>
      <point x="821.27" y="691.005" type="line"/>
      <point x="810.525" y="873.78"/>
      <point x="672.57" y="992.65"/>
      <point x="479.46" y="992.65" type="curve" smooth="yes"/>
      <point x="238.93" y="992.65"/>
      <point x="109.785" y="846.53"/>
      <point x="109.785" y="575.025" type="curve" smooth="yes"/>
      <point x="109.785" y="397.975" type="line" smooth="yes"/>
      <point x="109.785" y="127.265"/>
      <point x="238.46" y="-19.795"/>
    </contour>
    <contour>
      <point x="813.04" y="0.0" type="line"/>
      <point x="892.175" y="0.0" type="line"/>
      <point x="892.175" y="1327.675" type="line"/>
      <point x="813.305" y="1327.675" type="line"/>
      <point x="813.305" y="995.095" type="line"/>
      <point x="817.57" y="718.095" type="line"/>
      <point x="816.57" y="694.06" type="line"/>
      <point x="816.57" y="279.975" type="line"/>
      <point x="818.835" y="252.52" type="line"/>
    </contour>
  </outline>
</glyph>
<glyph name="e" format="2">
  <advance width="966.43"/>
  <unicode hex="0065"/>
  <anchor x="497.215" y="0.0" name="bottom"/>
  <anchor x="745.86" y="5.795" name="ogonek"/>
  <anchor x="491.01" y="972.855" name="top"/>
  <outline>
    <contour>
      <point x="516.25" y="-20.06" type="curve" smooth="yes"/>
      <point x="649.165" y="-20.06"/>
      <point x="762.755" y="19.085"/>
      <point x="844.14" y="79.905" type="curve"/>
      <point x="852.585" y="156.5" type="line"/>
      <point x="758.26" y="87.8"/>
      <point x="651.465" y="49.39"/>
      <point x="525.73" y="49.39" type="curve" smooth="yes"/>
      <point x="305.46500000000003" y="49.39"/>
      <point x="188.39" y="169.70499999999998"/>
      <point x="188.39" y="368.625" type="curve" smooth="yes"/>
      <point x="188.39" y="477.675" type="line"/>
      <point x="188.125" y="489.65" type="line"/>
      <point x="188.125" y="586.06" type="line" smooth="yes"/>
      <point x="188.125" y="809.595"/>
      <point x="291.79" y="930.26"/>
      <point x="490.42" y="930.26" type="curve" smooth="yes"/>
      <point x="687.845" y="930.26"/>
      <point x="793.04" y="809.39"/>
      <point x="793.04" y="592.265" type="curve" smooth="yes"/>
      <point x="793.04" y="552.29"/>
      <point x="792.775" y="504.255"/>
      <point x="792.245" y="451.425" type="curve"/>
      <point x="864.935" y="451.425" type="line"/>
      <point x="868.995" y="489.28"/>
      <point x="870.055" y="521.58"/>
      <point x="870.055" y="555.82" type="curve" smooth="yes"/>
      <point x="870.055" y="590.615" type="line" smooth="yes"/>
      <point x="870.055" y="846.145"/>
      <point x="736.875" y="996.65"/>
      <point x="490.42" y="996.65" type="curve" smooth="yes"/>
      <point x="242.085" y="996.65"/>
      <point x="109.52" y="849.675"/>
      <point x="109.52" y="581.025" type="curve" smooth="yes"/>
      <point x="109.52" y="373.985" type="line" smooth="yes"/>
      <point x="109.52" y="122.65"/>
      <point x="254.23" y="-20.06"/>
    </contour>
    <contour>
      <point x="149.575" y="451.425" type="line"/>
      <point x="844.78" y="451.425" type="line"/>
      <point x="844.78" y="514.635" type="line"/>
      <point x="149.575" y="514.635" type="line"/>
    </contour>
  </outline>
</glyph>
<glyph name="f" format="2">
  <advance width="752.205"/>
  <unicode hex="0066"/>
  <anchor x="377.795" y="0.0" name="bottom"/>
  <anchor x="377.795" y="1313.0" name="top"/>
  <outline>
    <contour>
      <point x="467.29" y="1350.53" type="curve" smooth="yes"/>
      <point x="259.845" y="1350.53"/>
      <point x="170.34" y="1256.06"/>
      <point x="170.34" y="1109.445" type="curve" smooth="yes"/>
      <point x="170.34" y="1104.445" type="line" smooth="yes"/>
      <point x="170.34" y="1034.735"/>
      <point x="196.11" y="975.53"/>
      <point x="219.65" y="937.915" type="curve"/>
      <point x="219.65" y="926.675" type="line"/>
      <point x="278.355" y="931.41" type="line"/>
      <point x="263.355" y="972.7"/>
      <point x="247.885" y="1024.195"/>
      <point x="247.885" y="1082.63" type="curve" smooth="yes"/>
      <point x="247.885" y="1088.1" type="line" smooth="yes"/>
      <point x="247.885" y="1209.44"/>
      <point x="312.58500000000004" y="1282.61"/>
      <point x="484.25" y="1282.61" type="curve" smooth="yes"/>
      <point x="572.335" y="1282.61"/>
      <point x="637.01" y="1263.935"/>
      <point x="709.565" y="1237.055" type="curve"/>
      <point x="700.855" y="1303.06" type="line"/>
      <point x="633.855" y="1330.795"/>
      <point x="564.615" y="1350.53"/>
    </contour>
    <contour>
      <point x="202.605" y="0.0" type="line"/>
      <point x="281.475" y="0.0" type="line"/>
      <point x="281.475" y="909.665" type="line"/>
      <point x="202.605" y="909.665" type="line"/>
    </contour>
    <contour>
      <point x="25.085" y="876.08" type="line"/>
      <point x="694.445" y="876.08" type="line"/>
      <point x="702.625" y="940.94" type="line"/>
      <point x="262.79" y="940.94" type="line"/>
      <point x="232.77" y="940.675" type="line"/>
      <point x="25.085" y="940.94" type="line"/>
    </contour>
  </outline>
</glyph>
<glyph name="g" format="2">
  <advance width="999.72"/>
  <unicode hex="0067"/>
  <anchor x="504.035" y="-345.325" name="bottom"/>
  <anchor x="502.3" y="973.915" name="top"/>
  <outline>
    <contour>
      <point x="501.565" y="281.3" type="curve"/>
      <point x="747.84" y="281.3"/>
      <point x="877.08" y="391.095"/>
      <point x="877.08" y="604.18" type="curve" smooth="yes"/>
      <point x="877.08" y="650.46" type="line" smooth="yes"/>
      <point x="877.08" y="804.92"/>
      <point x="809.73" y="915.73"/>
      <point x="619.76" y="940.85" type="curve"/>
      <point x="620.495" y="940.09" type="line"/>
      <point x="967.465" y="933.97" type="line"/>
      <point x="967.465" y="1000.24" type="line"/>
      <point x="495.48" y="989.12" type="line" smooth="yes"/>
      <point x="227.435" y="982.795"/>
      <point x="120.4" y="849.65"/>
      <point x="120.4" y="656.145" type="curve" smooth="yes"/>
      <point x="120.4" y="612.215" type="line" smooth="yes"/>
      <point x="120.4" y="395.95"/>
      <point x="255.965" y="281.3"/>
    </contour>
    <contour>
      <point x="495.77" y="-305.525" type="line" smooth="yes"/>
      <point x="295.695" y="-305.525"/>
      <point x="158.74" y="-265.175"/>
      <point x="158.74" y="-136.16" type="curve" smooth="yes"/>
      <point x="158.74" y="-133.425" type="line" smooth="yes"/>
      <point x="158.74" y="-20.145"/>
      <point x="262.225" y="27.675"/>
      <point x="411.88" y="46.615" type="curve"/>
      <point x="374.64" y="45.35" type="line"/>
      <point x="636.795" y="23.494999999999997" type="line" smooth="yes"/>
      <point x="795.485" y="10.29"/>
      <point x="856.595" y="-42.025"/>
      <point x="856.595" y="-134.28" type="curve" smooth="yes"/>
      <point x="856.595" y="-138.015" type="line" smooth="yes"/>
      <point x="856.595" y="-262.235"/>
      <point x="717.7" y="-305.525"/>
      <point x="514.89" y="-305.525" type="curve" smooth="yes"/>
    </contour>
    <contour>
      <point x="492.59" y="-371.855" type="curve" smooth="yes"/>
      <point x="513.83" y="-371.855" type="line" smooth="yes"/>
      <point x="764.49" y="-371.855"/>
      <point x="932.55" y="-307.495"/>
      <point x="932.55" y="-137.605" type="curve" smooth="yes"/>
      <point x="932.55" y="-133.34" type="line" smooth="yes"/>
      <point x="932.55" y="-6.355000000000004"/>
      <point x="849.575" y="66.645"/>
      <point x="651.335" y="85.235" type="curve" smooth="yes"/>
      <point x="418.48" y="106.825" type="line" smooth="yes"/>
      <point x="268.115" y="120.295"/>
      <point x="214.885" y="148.79"/>
      <point x="214.885" y="205.695" type="curve" smooth="yes"/>
      <point x="214.885" y="206.695" type="line" smooth="yes"/>
      <point x="214.885" y="259.805"/>
      <point x="254.585" y="287.155"/>
      <point x="375.48" y="288.89" type="curve"/>
      <point x="451.95" y="288.095" type="line"/>
      <point x="315.775" y="326.335" type="line"/>
      <point x="315.775" y="310.95" type="line"/>
      <point x="191.665" y="307.565"/>
      <point x="140.93" y="264.035"/>
      <point x="140.93" y="191.71" type="curve" smooth="yes"/>
      <point x="140.93" y="190.71" type="line" smooth="yes"/>
      <point x="140.93" y="115.505"/>
      <point x="200.425" y="70.975"/>
      <point x="340.055" y="56.855000000000004" type="curve"/>
      <point x="341.525" y="58.615" type="line"/>
      <point x="201.125" y="44.555"/>
      <point x="83.315" y="-11.77"/>
      <point x="83.315" y="-146.085" type="curve" smooth="yes"/>
      <point x="83.315" y="-150.085" type="line" smooth="yes"/>
      <point x="83.315" y="-316.41"/>
      <point x="247.57999999999998" y="-371.855"/>
    </contour>
    <contour>
      <point x="500.77" y="343.71500000000003" type="curve" smooth="yes"/>
      <point x="298.405" y="343.71500000000003"/>
      <point x="197.15" y="436.97"/>
      <point x="197.15" y="613.54" type="curve" smooth="yes"/>
      <point x="197.15" y="656.94" type="line" smooth="yes"/>
      <point x="197.15" y="815.425"/>
      <point x="283.26" y="927.235"/>
      <point x="498.77" y="927.235" type="curve" smooth="yes"/>
      <point x="507.445" y="927.235" type="line" smooth="yes"/>
      <point x="700.87" y="927.235"/>
      <point x="801.125" y="829.04"/>
      <point x="801.125" y="658.675" type="curve" smooth="yes"/>
      <point x="801.125" y="611.335" type="line" smooth="yes"/>
      <point x="801.125" y="436.235"/>
      <point x="698.135" y="343.71500000000003"/>
    </contour>
  </outline>
</glyph>
<glyph name="h" format="2">
  <advance width="1032.96"/>
  <unicode hex="0068"/>
  <anchor x="517.48" y="0.0" name="bottom"/>
  <anchor x="517.48" y="657.0" name="center"/>
  <anchor x="191.865" y="1327.675" name="top"/>
  <outline>
    <contour>
      <point x="816.1" y="0.0" type="line"/>
      <point x="895.235" y="0.0" type="line"/>
      <point x="895.235" y="623.06" type="line" smooth="yes"/>
      <point x="895.235" y="854.505"/>
      <point x="806.85" y="992.65"/>
      <point x="569.03" y="992.65" type="curve" smooth="yes"/>
      <point x="360.45" y="992.65"/>
      <point x="244.075" y="863.985"/>
      <point x="222.10000000000002" y="711.585" type="curve"/>
      <point x="198.09" y="711.585" type="line"/>
      <point x="224.595" y="648.35" type="line"/>
      <point x="251.595" y="807.86"/>
      <point x="362.525" y="925.2"/>
      <point x="547.155" y="925.2" type="curve" smooth="yes"/>
      <point x="744.99" y="925.2"/>
      <point x="816.1" y="808.21"/>
      <point x="816.1" y="615.76" type="curve" smooth="yes"/>
    </contour>
    <contour>
      <point x="151.93" y="0.0" type="line"/>
      <point x="231.065" y="0.0" type="line"/>
      <point x="231.065" y="710.12" type="line"/>
      <point x="226.535" y="718.24" type="line"/>
      <point x="230.8" y="996.565" type="line"/>
      <point x="230.8" y="1327.675" type="line"/>
      <point x="151.93" y="1327.675" type="line"/>
    </contour>
  </outline>
</glyph>
<glyph name="i" format="2">
  <advance width="390.46500000000003"/>
  <unicode hex="0069"/>
  <anchor x="195.6" y="0.0" name="bottom"/>
  <anchor x="279.415" y="0.0" name="ogonek"/>
  <outline>
    <contour>
      <point x="155.665" y="0.0" type="line"/>
      <point x="234.8" y="0.0" type="line"/>
      <point x="234.8" y="972.855" type="line"/>
      <point x="155.665" y="972.855" type="line"/>
    </contour>
    <contour>
      <point x="195.6" y="1171.245" type="curve" smooth="yes"/>
      <point x="236.585" y="1171.245"/>
      <point x="256.945" y="1195.075"/>
      <point x="256.945" y="1241.085" type="curve" smooth="yes"/>
      <point x="256.945" y="1248.76" type="line" smooth="yes"/>
      <point x="256.945" y="1293.505"/>
      <point x="236.585" y="1317.865"/>
      <point x="195.6" y="1317.865" type="curve" smooth="yes"/>
      <point x="154.35" y="1317.865"/>
      <point x="133.52" y="1293.505"/>
      <point x="133.52" y="1248.76" type="curve" smooth="yes"/>
      <point x="133.52" y="1241.085" type="line" smooth="yes"/>
      <point x="133.52" y="1195.34"/>
      <point x="154.35" y="1171.245"/>
    </contour>
  </outline>
</glyph>
<glyph name="j" format="2">
  <advance width="425.755"/>
  <unicode hex="006A"/>
  <outline>
    <contour>
      <point x="190.95499999999998" y="45.05" type="line"/>
      <point x="270.09000000000003" y="45.05" type="line"/>
      <point x="270.09000000000003" y="972.855" type="line"/>
      <point x="190.95499999999998" y="972.855" type="line"/>
    </contour>
    <contour>
      <point x="230.89" y="1171.245" type="curve" smooth="yes"/>
      <point x="271.875" y="1171.245"/>
      <point x="292.235" y="1195.075"/>
      <point x="292.235" y="1241.085" type="curve" smooth="yes"/>
      <point x="292.235" y="1248.76" type="line" smooth="yes"/>
      <point x="292.235" y="1293.505"/>
      <point x="271.875" y="1317.865"/>
      <point x="230.89" y="1317.865" type="curve" smooth="yes"/>
      <point x="189.64" y="1317.865"/>
      <point x="168.81" y="1293.505"/>
      <point x="168.81" y="1248.76" type="curve" smooth="yes"/>
      <point x="168.81" y="1241.085" type="line" smooth="yes"/>
      <point x="168.81" y="1195.34"/>
      <point x="189.64" y="1171.245"/>
    </contour>
    <component base="jbottom"/>
  </outline>
</glyph>
<glyph name="k" format="2">
  <advance width="934.09"/>
  <unicode hex="006B"/>
  <anchor x="488.805" y="0.0" name="bottom"/>
  <anchor x="480.13" y="1327.675" name="top"/>
  <outline>
    <contour>
      <point x="786.665" y="0.0" type="line"/>
      <point x="886.365" y="0.0" type="line"/>
      <point x="388.445" y="537.915" type="line"/>
      <point x="388.445" y="508.88" type="line"/>
      <point x="865.69" y="972.855" type="line"/>
      <point x="766.05" y="972.855" type="line"/>
      <point x="333.115" y="553.31" type="line"/>
      <point x="216.74" y="553.31" type="line"/>
      <point x="216.74" y="488.04" type="line"/>
      <point x="332.85" y="488.04" type="line"/>
    </contour>
    <contour>
      <point x="151.93" y="0.0" type="line"/>
      <point x="230.8" y="0.0" type="line"/>
      <point x="230.8" y="1327.675" type="line"/>
      <point x="151.93" y="1327.675" type="line"/>
    </contour>
  </outline>
</glyph>
<glyph name="l" format="2">
  <advance width="393.935"/>
  <unicode hex="006C"/>
  <anchor x="197.6" y="0.0" name="bottom"/>
  <anchor x="197.6" y="657.0" name="center"/>
  <anchor x="197.6" y="1327.675" name="top"/>
  <anchor x="420.43" y="1327.675" name="topright"/>
  <outline>
    <contour>
      <point x="157.4" y="0.0" type="line"/>
      <point x="236.535" y="0.0" type="line"/>
      <point x="236.535" y="1327.675" type="line"/>
      <point x="157.4" y="1327.675" type="line"/>
    </contour>
  </outline>
</glyph>
<glyph name="m" format="2">
  <advance width="1596.285"/>
  <unicode hex="006D"/>
  <anchor x="798.01" y="0.0" name="bottom"/>
  <anchor x="798.01" y="972.855" name="top"/>
  <outline>
    <contour>
      <point x="1379.425" y="0.0" type="line"/>
      <point x="1458.56" y="0.0" type="line"/>
      <point x="1458.56" y="624.385" type="line" smooth="yes"/>
      <point x="1458.56" y="855.035"/>
      <point x="1376.175" y="992.65"/>
      <point x="1156.03" y="992.65" type="curve" smooth="yes"/>
      <point x="962.56" y="992.65"/>
      <point x="851.57" y="864.13"/>
      <point x="828.8" y="722.61" type="curve"/>
      <point x="815.355" y="722.61" type="line"/>
      <point x="837.6800000000001" y="657.17" type="line"/>
      <point x="861.945" y="809.33"/>
      <point x="968.345" y="925.2"/>
      <point x="1134.155" y="925.2" type="curve" smooth="yes"/>
      <point x="1314.05" y="925.2"/>
      <point x="1379.425" y="808.74"/>
      <point x="1379.425" y="617.085" type="curve" smooth="yes"/>
    </contour>
    <contour>
      <point x="151.93" y="0.0" type="line"/>
      <point x="231.065" y="0.0" type="line"/>
      <point x="231.065" y="720.83" type="line"/>
      <point x="226.005" y="724.01" type="line"/>
      <point x="231.065" y="972.855" type="line"/>
      <point x="151.93" y="972.855" type="line"/>
    </contour>
    <contour>
      <point x="765.81" y="0.0" type="line"/>
      <point x="844.6800000000001" y="0.0" type="line"/>
      <point x="844.6800000000001" y="630.12" type="line" smooth="yes"/>
      <point x="844.6800000000001" y="660.12"/>
      <point x="842.885" y="689.24"/>
      <point x="838.355" y="718.65" type="curve"/>
      <point x="813.62" y="900.59"/>
      <point x="721.6800000000001" y="992.65"/>
      <point x="543.62" y="992.65" type="curve" smooth="yes"/>
      <point x="349.92" y="992.65"/>
      <point x="242.54500000000002" y="863.985"/>
      <point x="221.57" y="711.585" type="curve"/>
      <point x="200.15" y="711.585" type="line"/>
      <point x="224.065" y="647.615" type="line"/>
      <point x="249.065" y="807.86"/>
      <point x="351.79" y="925.2"/>
      <point x="522.01" y="925.2" type="curve" smooth="yes"/>
      <point x="701.17" y="925.2"/>
      <point x="765.81" y="808.74"/>
      <point x="765.81" y="616.35" type="curve" smooth="yes"/>
    </contour>
  </outline>
</glyph>
<glyph name="n" format="2">
  <advance width="1032.96"/>
  <unicode hex="006E"/>
  <anchor x="517.48" y="0.0" name="bottom"/>
  <anchor x="517.48" y="972.855" name="top"/>
  <outline>
    <contour>
      <point x="816.1" y="0.0" type="line"/>
      <point x="895.235" y="0.0" type="line"/>
      <point x="895.235" y="623.06" type="line" smooth="yes"/>
      <point x="895.235" y="854.505"/>
      <point x="806.85" y="992.65"/>
      <point x="569.03" y="992.65" type="curve" smooth="yes"/>
      <point x="360.125" y="992.65"/>
      <point x="243.81" y="863.985"/>
      <point x="221.57" y="711.585" type="curve"/>
      <point x="202.35500000000002" y="711.585" type="line"/>
      <point x="224.065" y="647.615" type="line"/>
      <point x="251.065" y="807.86"/>
      <point x="362.995" y="925.2"/>
      <point x="547.155" y="925.2" type="curve" smooth="yes"/>
      <point x="744.99" y="925.2"/>
      <point x="816.1" y="808.21"/>
      <point x="816.1" y="615.76" type="curve" smooth="yes"/>
    </contour>
    <contour>
      <point x="151.93" y="0.0" type="line"/>
      <point x="231.065" y="0.0" type="line"/>
      <point x="231.065" y="722.3" type="line"/>
      <point x="226.005" y="725.48" type="line"/>
      <point x="231.065" y="972.855" type="line"/>
      <point x="151.93" y="972.855" type="line"/>
    </contour>
  </outline>
</glyph>
<glyph name="o" format="2">
  <advance width="1012.045"/>
  <unicode hex="006F"/>
  <anchor x="506.155" y="0.0" name="bottom"/>
  <anchor x="514.095" y="331.645" name="center"/>
  <anchor x="712.465" y="1.3250000000000002" name="ogonek"/>
  <anchor x="506.155" y="972.855" name="top"/>
  <anchor x="857.45" y="972.855" name="topright"/>
  <outline>
    <contour>
      <point x="506.155" y="-23.53" type="curve" smooth="yes"/>
      <point x="764.755" y="-23.53"/>
      <point x="902.525" y="127.12"/>
      <point x="902.525" y="401.89" type="curve"/>
      <point x="902.525" y="573.23" type="line"/>
      <point x="902.525" y="847.0"/>
      <point x="764.755" y="996.65"/>
      <point x="506.155" y="996.65" type="curve" smooth="yes"/>
      <point x="247.555" y="996.65"/>
      <point x="109.52" y="847.0"/>
      <point x="109.52" y="573.23" type="curve"/>
      <point x="109.52" y="401.89" type="line"/>
      <point x="109.52" y="127.855"/>
      <point x="246.82" y="-23.53"/>
    </contour>
    <contour>
      <point x="506.155" y="42.86" type="curve" smooth="yes"/>
      <point x="299.38" y="42.86"/>
      <point x="188.92000000000002" y="167.79"/>
      <point x="188.92000000000002" y="398.71" type="curve" smooth="yes"/>
      <point x="188.92000000000002" y="576.41" type="line" smooth="yes"/>
      <point x="188.92000000000002" y="805.33"/>
      <point x="299.38" y="930.26"/>
      <point x="506.155" y="930.26" type="curve" smooth="yes"/>
      <point x="712.93" y="930.26"/>
      <point x="823.39" y="805.33"/>
      <point x="823.39" y="576.41" type="curve" smooth="yes"/>
      <point x="823.39" y="398.71" type="line" smooth="yes"/>
      <point x="823.39" y="167.79"/>
      <point x="712.195" y="42.86"/>
    </contour>
  </outline>
</glyph>
<glyph name="q" format="2">
  <advance width="1044.105"/>
  <unicode hex="0071"/>
  <anchor x="515.89" y="0.0" name="bottom"/>
  <anchor x="515.89" y="972.855" name="top"/>
  <outline>
    <contour>
      <point x="475.135" y="-19.795" type="curve" smooth="yes"/>
      <point x="678.485" y="-19.795"/>
      <point x="799.295" y="107.4"/>
      <point x="822.005" y="264.945" type="curve"/>
      <point x="844.93" y="264.945" type="line"/>
      <point x="820.305" y="328.71" type="line"/>
      <point x="791.835" y="162.79"/>
      <point x="669.435" y="47.655"/>
      <point x="496.89" y="47.655" type="curve" smooth="yes"/>
      <point x="296.645" y="47.655"/>
      <point x="189.185" y="168.73000000000002"/>
      <point x="189.185" y="394.795" type="curve" smooth="yes"/>
      <point x="189.185" y="579.265" type="line" smooth="yes"/>
      <point x="189.185" y="805.92"/>
      <point x="298.115" y="926.26"/>
      <point x="494.155" y="926.26" type="curve" smooth="yes"/>
      <point x="666.145" y="926.26"/>
      <point x="805.895" y="823.21"/>
      <point x="816.57" y="618.785" type="curve"/>
      <point x="847.845" y="691.005" type="line"/>
      <point x="821.8" y="691.005" type="line"/>
      <point x="811.055" y="873.78"/>
      <point x="672.835" y="992.65"/>
      <point x="479.46" y="992.65" type="curve" smooth="yes"/>
      <point x="239.46" y="992.65"/>
      <point x="109.785" y="846.53"/>
      <point x="109.785" y="575.025" type="curve" smooth="yes"/>
      <point x="109.785" y="397.975" type="line" smooth="yes"/>
      <point x="109.785" y="127.265"/>
      <point x="238.46" y="-19.795"/>
    </contour>
    <contour>
      <point x="813.305" y="-344.0" type="line"/>
      <point x="892.175" y="-344.0" type="line"/>
      <point x="892.175" y="972.855" type="line"/>
      <point x="813.04" y="972.855" type="line"/>
      <point x="818.1" y="721.805" type="line"/>
      <point x="816.57" y="692.47" type="line"/>
      <point x="816.57" y="278.385" type="line"/>
      <point x="818.305" y="260.965" type="line"/>
      <point x="813.305" y="-9.010000000000002" type="line"/>
    </contour>
  </outline>
</glyph>
<glyph name="r" format="2">
  <advance width="728.275"/>
  <unicode hex="0072"/>
  <anchor x="191.865" y="0.0" name="bottom"/>
  <anchor x="400.12" y="972.855" name="top"/>
  <outline>
    <contour>
      <point x="224.535" y="610.11" type="line"/>
      <point x="277.885" y="808.85"/>
      <point x="405.26" y="911.31"/>
      <point x="563.695" y="911.31" type="curve" smooth="yes"/>
      <point x="616.575" y="911.31"/>
      <point x="660.25" y="901.37"/>
      <point x="694.455" y="888.43" type="curve"/>
      <point x="689.07" y="965.505" type="line"/>
      <point x="660.13" y="977.18"/>
      <point x="620.575" y="987.12"/>
      <point x="568.815" y="987.12" type="curve" smooth="yes"/>
      <point x="386.85" y="987.12"/>
      <point x="263.45" y="866.395"/>
      <point x="220.245" y="674.91" type="curve"/>
      <point x="199.44" y="668.295" type="line"/>
    </contour>
    <contour>
      <point x="151.93" y="0.0" type="line"/>
      <point x="231.065" y="0.0" type="line"/>
      <point x="231.065" y="668.71" type="line"/>
      <point x="223.68" y="676.095" type="line"/>
      <point x="229.74" y="972.855" type="line"/>
      <point x="151.93" y="972.855" type="line"/>
    </contour>
  </outline>
</glyph>
<glyph name="s" format="2">
  <advance width="858.19"/>
  <unicode hex="0073"/>
  <anchor x="427.36" y="0.0" name="bottom"/>
  <anchor x="427.095" y="972.855" name="top"/>
  <outline>
    <contour>
      <point x="428.975" y="-20.06" type="curve" smooth="yes"/>
      <point x="651.755" y="-20.06"/>
      <point x="776.875" y="69.325"/>
      <point x="776.875" y="236.805" type="curve" smooth="yes"/>
      <point x="776.875" y="256.95" type="line" smooth="yes"/>
      <point x="776.875" y="415.72"/>
      <point x="698.37" y="483.925"/>
      <point x="445.49" y="533.25" type="curve" smooth="yes"/>
      <point x="229.62" y="575.455"/>
      <point x="165.655" y="620.13"/>
      <point x="165.655" y="742.64" type="curve" smooth="yes"/>
      <point x="165.655" y="751.845" type="line" smooth="yes"/>
      <point x="165.655" y="859.535"/>
      <point x="244.115" y="925.055"/>
      <point x="420.19" y="925.055" type="curve" smooth="yes"/>
      <point x="562.13" y="925.055"/>
      <point x="665.575" y="883.645"/>
      <point x="749.695" y="828.295" type="curve"/>
      <point x="740.515" y="901.625" type="line"/>
      <point x="674.335" y="948.3"/>
      <point x="565.95" y="992.445"/>
      <point x="415.625" y="992.445" type="curve" smooth="yes"/>
      <point x="196.35" y="992.445"/>
      <point x="87.315" y="906.325"/>
      <point x="87.315" y="752.375" type="curve" smooth="yes"/>
      <point x="87.315" y="742.64" type="line" smooth="yes"/>
      <point x="87.315" y="585.64"/>
      <point x="165.11" y="520.075"/>
      <point x="411.845" y="471.69" type="curve" smooth="yes"/>
      <point x="641.39" y="425.485"/>
      <point x="698.535" y="373.11"/>
      <point x="698.535" y="254.42000000000002" type="curve" smooth="yes"/>
      <point x="698.535" y="237.6" type="line" smooth="yes"/>
      <point x="698.535" y="113.44"/>
      <point x="599.665" y="49.39"/>
      <point x="427.53" y="49.39" type="curve" smooth="yes"/>
      <point x="281.0" y="49.39"/>
      <point x="172.82" y="92.125"/>
      <point x="78.495" y="148.74" type="curve"/>
      <point x="87.675" y="69.7" type="line"/>
      <point x="159.59" y="26.29"/>
      <point x="272.445" y="-20.06"/>
    </contour>
  </outline>
</glyph>
<glyph name="t" format="2">
  <advance width="791.0"/>
  <unicode hex="0074"/>
  <anchor x="453.675" y="0.0" name="bottom"/>
  <anchor x="397.06" y="487.06" name="center"/>
  <anchor x="236.13" y="1219.29" name="top"/>
  <anchor x="605.75" y="1406.24" name="topright"/>
  <outline>
    <contour>
      <point x="483.59" y="-18.53" type="curve" smooth="yes"/>
      <point x="570.18" y="-18.53"/>
      <point x="657.915" y="3.1449999999999996"/>
      <point x="720.445" y="37.35" type="curve"/>
      <point x="728.625" y="110.74" type="line"/>
      <point x="657.6" y="71.45"/>
      <point x="578.985" y="52.245000000000005"/>
      <point x="497.575" y="52.245000000000005" type="curve" smooth="yes"/>
      <point x="334.5" y="52.245000000000005"/>
      <point x="273.005" y="120.94500000000001"/>
      <point x="273.005" y="268.875" type="curve" smooth="yes"/>
      <point x="273.005" y="918.11" type="line"/>
      <point x="194.4" y="918.11" type="line"/>
      <point x="194.4" y="260.575" type="line" smooth="yes"/>
      <point x="194.4" y="72.3"/>
      <point x="278.99" y="-18.53"/>
    </contour>
    <contour>
      <point x="19.35" y="886.44" type="line"/>
      <point x="708.505" y="886.44" type="line"/>
      <point x="716.685" y="951.3" type="line"/>
      <point x="19.35" y="951.3" type="line"/>
    </contour>
    <contour>
      <point x="194.93" y="939.445" type="line"/>
      <point x="270.945" y="939.445" type="line"/>
      <point x="275.27" y="1242.47" type="line"/>
      <point x="194.665" y="1225.35" type="line"/>
    </contour>
  </outline>
</glyph>
<glyph name="u" format="2">
  <advance width="1032.96"/>
  <unicode hex="0075"/>
  <anchor x="513.07" y="0.0" name="bottom"/>
  <anchor x="921.235" y="0.0" name="ogonek"/>
  <anchor x="513.07" y="972.855" name="top"/>
  <anchor x="1005.935" y="972.855" name="topright"/>
  <outline>
    <contour>
      <point x="216.86" y="972.855" type="line"/>
      <point x="137.725" y="972.855" type="line"/>
      <point x="137.725" y="349.795" type="line" smooth="yes"/>
      <point x="137.725" y="118.35"/>
      <point x="226.11" y="-19.795"/>
      <point x="463.93" y="-19.795" type="curve" smooth="yes"/>
      <point x="672.835" y="-19.795"/>
      <point x="789.15" y="108.87"/>
      <point x="811.39" y="261.27" type="curve"/>
      <point x="830.605" y="261.27" type="line"/>
      <point x="808.895" y="325.24" type="line"/>
      <point x="781.895" y="164.995"/>
      <point x="669.965" y="47.655"/>
      <point x="485.805" y="47.655" type="curve" smooth="yes"/>
      <point x="287.97" y="47.655"/>
      <point x="216.86" y="164.64499999999998"/>
      <point x="216.86" y="357.095" type="curve" smooth="yes"/>
    </contour>
    <contour>
      <point x="881.03" y="972.855" type="line"/>
      <point x="801.895" y="972.855" type="line"/>
      <point x="801.895" y="250.555" type="line"/>
      <point x="806.955" y="247.375" type="line"/>
      <point x="801.895" y="0.0" type="line"/>
      <point x="881.03" y="0.0" type="line"/>
    </contour>
  </outline>
</glyph>
<glyph name="v" format="2">
  <advance width="955.43"/>
  <unicode hex="0076"/>
  <anchor x="478.215" y="0.0" name="bottom"/>
  <anchor x="478.215" y="972.855" name="top"/>
  <outline>
    <contour>
      <point x="489.95" y="59.235" type="line"/>
      <point x="466.215" y="59.235" type="line"/>
      <point x="144.45" y="972.855" type="line"/>
      <point x="60.519999999999996" y="972.855" type="line"/>
      <point x="407.885" y="0.0" type="line"/>
      <point x="548.28" y="0.0" type="line"/>
      <point x="894.91" y="972.855" type="line"/>
      <point x="810.98" y="972.855" type="line"/>
    </contour>
  </outline>
</glyph>
<glyph name="w" format="2">
  <advance width="1461.755"/>
  <unicode hex="0077"/>
  <anchor x="731.01" y="0.0" name="bottom"/>
  <anchor x="731.01" y="972.855" name="top"/>
  <outline>
    <contour>
      <point x="339.74" y="0.0" type="line"/>
      <point x="474.04" y="0.0" type="line"/>
      <point x="682.045" y="735.065" type="line"/>
      <point x="724.48" y="885.235" type="line"/>
      <point x="736.805" y="885.235" type="line"/>
      <point x="779.505" y="735.8" type="line"/>
      <point x="988.245" y="0.0" type="line"/>
      <point x="1122.015" y="0.0" type="line"/>
      <point x="1387.295" y="972.855" type="line"/>
      <point x="1304.16" y="972.855" type="line"/>
      <point x="1064.48" y="61.620000000000005" type="line"/>
      <point x="1042.6" y="61.620000000000005" type="line"/>
      <point x="790.835" y="944.65" type="line"/>
      <point x="671.185" y="944.65" type="line"/>
      <point x="419.42" y="61.620000000000005" type="line"/>
      <point x="397.275" y="61.620000000000005" type="line"/>
      <point x="158.125" y="972.855" type="line"/>
      <point x="74.46000000000001" y="972.855" type="line"/>
    </contour>
  </outline>
</glyph>
<glyph name="x" format="2">
  <advance width="931.26"/>
  <unicode hex="0078"/>
  <anchor x="466.13" y="0.0" name="bottom"/>
  <anchor x="466.13" y="972.855" name="top"/>
  <outline>
    <contour>
      <point x="71.4" y="0.0" type="line"/>
      <point x="161.185" y="0.0" type="line"/>
      <point x="460.6" y="459.245" type="line"/>
      <point x="471.925" y="459.245" type="line"/>
      <point x="770.81" y="0.0" type="line"/>
      <point x="859.86" y="0.0" type="line"/>
      <point x="521.87" y="517.155" type="line"/>
      <point x="521.87" y="492.29" type="line"/>
      <point x="854.33" y="972.855" type="line"/>
      <point x="765.28" y="972.855" type="line"/>
      <point x="471.925" y="543.285" type="line"/>
      <point x="460.6" y="543.285" type="line"/>
      <point x="166.715" y="972.855" type="line"/>
      <point x="77.66499999999999" y="972.855" type="line"/>
      <point x="410.125" y="491.555" type="line"/>
      <point x="410.125" y="516.42" type="line"/>
    </contour>
  </outline>
</glyph>
<glyph name="y" format="2">
  <advance width="955.695"/>
  <unicode hex="0079"/>
  <anchor x="654.105" y="-26.995000000000005" name="bottom"/>
  <anchor x="477.745" y="972.855" name="top"/>
  <outline>
    <contour>
      <point x="519.5" y="98.03" type="line"/>
      <point x="464.89" y="98.03" type="line"/>
      <point x="144.45" y="972.855" type="line"/>
      <point x="60.519999999999996" y="972.855" type="line"/>
      <point x="408.68" y="38.795" type="line"/>
      <point x="504.73" y="38.795" type="line"/>
      <point x="474.06" y="69.43" type="line"/>
      <point x="320.53" y="-344.0" type="line"/>
      <point x="403.135" y="-344.0" type="line"/>
      <point x="895.175" y="972.855" type="line"/>
      <point x="811.775" y="972.855" type="line"/>
      <point x="479.445" y="79.49000000000001" type="line"/>
    </contour>
  </outline>
</glyph>
<glyph name="z" format="2">
  <advance width="881.13"/>
  <unicode hex="007A"/>
  <anchor x="440.565" y="0.0" name="bottom"/>
  <anchor x="441.565" y="487.06" name="center"/>
  <anchor x="440.565" y="972.855" name="top"/>
  <outline>
    <contour>
      <point x="788.96" y="67.185" type="line"/>
      <point x="186.785" y="67.185" type="line"/>
      <point x="785.43" y="912.115" type="line"/>
      <point x="785.43" y="972.855" type="line"/>
      <point x="93.7" y="972.855" type="line"/>
      <point x="93.7" y="906.67" type="line"/>
      <point x="690.08" y="906.67" type="line"/>
      <point x="91.435" y="61.739999999999995" type="line"/>
      <point x="91.435" y="0.0" type="line"/>
      <point x="788.96" y="0.0" type="line"/>
    </contour>
  </outline>
</glyph>
<glyph name="braceleft" format="2">
  <advance width="668.445"/>
  <unicode hex="007B"/>
  <outline>
    <contour>
      <point x="604.42" y="1326.325" type="line"/>
      <point x="565.3" y="1341.06"/>
      <point x="513.975" y="1351.795"/>
      <point x="456.71" y="1351.795" type="curve" smooth="yes"/>
      <point x="302.375" y="1351.795"/>
      <point x="233.54500000000002" y="1277.145"/>
      <point x="233.54500000000002" y="1113.075" type="curve" smooth="yes"/>
      <point x="233.54500000000002" y="1017.17"/>
      <point x="249.015" y="874.29"/>
      <point x="249.015" y="784.385" type="curve" smooth="yes"/>
      <point x="249.015" y="670.01"/>
      <point x="214.28" y="607.515"/>
      <point x="75.23" y="596.105" type="curve"/>
      <point x="75.23" y="522.98" type="line"/>
      <point x="214.28" y="509.835"/>
      <point x="249.015" y="446.605"/>
      <point x="249.015" y="330.495" type="curve" smooth="yes"/>
      <point x="249.015" y="242.325"/>
      <point x="233.54500000000002" y="96.975"/>
      <point x="233.54500000000002" y="-1.9299999999999997" type="curve" smooth="yes"/>
      <point x="233.54500000000002" y="-165.265"/>
      <point x="303.11" y="-240.18"/>
      <point x="456.71" y="-240.18" type="curve" smooth="yes"/>
      <point x="513.975" y="-240.18"/>
      <point x="565.3" y="-229.445"/>
      <point x="604.42" y="-213.975" type="curve"/>
      <point x="604.42" y="-150.56" type="line"/>
      <point x="571.01" y="-164.235"/>
      <point x="526.19" y="-175.91"/>
      <point x="471.225" y="-175.91" type="curve" smooth="yes"/>
      <point x="357.58500000000004" y="-175.91"/>
      <point x="310.765" y="-123.62"/>
      <point x="310.765" y="5.575000000000003" type="curve" smooth="yes"/>
      <point x="310.765" y="92.95"/>
      <point x="325.5" y="235.77"/>
      <point x="325.5" y="334.615" type="curve" smooth="yes"/>
      <point x="325.5" y="462.29"/>
      <point x="283.355" y="543.82"/>
      <point x="142.885" y="558.615" type="curve"/>
      <point x="146.47500000000002" y="548.615" type="line"/>
      <point x="146.47500000000002" y="561.735" type="line"/>
      <point x="283.355" y="578.795"/>
      <point x="325.5" y="655.06"/>
      <point x="325.5" y="781.0" type="curve" smooth="yes"/>
      <point x="325.5" y="878.11"/>
      <point x="310.765" y="1019.93"/>
      <point x="310.765" y="1106.57" type="curve" smooth="yes"/>
      <point x="310.765" y="1234.765"/>
      <point x="357.58500000000004" y="1287.055"/>
      <point x="470.695" y="1287.055" type="curve" smooth="yes"/>
      <point x="525.925" y="1287.055"/>
      <point x="571.01" y="1276.115"/>
      <point x="604.42" y="1262.705" type="curve"/>
    </contour>
  </outline>
</glyph>
<glyph name="bar" format="2">
  <advance width="467.54"/>
  <unicode hex="007C"/>
  <outline>
    <contour>
      <point x="268.995" y="-445.965" type="line"/>
      <point x="268.995" y="1421.0" type="line"/>
      <point x="198.54500000000002" y="1421.0" type="line"/>
      <point x="198.54500000000002" y="-445.965" type="line"/>
    </contour>
  </outline>
</glyph>
<glyph name="braceright" format="2">
  <advance width="668.445"/>
  <unicode hex="007D"/>
  <outline>
    <contour>
      <point x="64.025" y="1326.325" type="curve"/>
      <point x="64.025" y="1262.705" type="line"/>
      <point x="97.435" y="1276.115"/>
      <point x="142.52" y="1287.055"/>
      <point x="197.75" y="1287.055" type="curve" smooth="yes"/>
      <point x="310.86" y="1287.055"/>
      <point x="357.68" y="1234.765"/>
      <point x="357.68" y="1106.57" type="curve" smooth="yes"/>
      <point x="357.68" y="1019.93"/>
      <point x="342.945" y="878.11"/>
      <point x="342.945" y="781.0" type="curve" smooth="yes"/>
      <point x="342.945" y="655.06"/>
      <point x="385.09000000000003" y="578.795"/>
      <point x="521.97" y="561.735" type="curve"/>
      <point x="521.97" y="548.615" type="line"/>
      <point x="525.56" y="558.615" type="line"/>
      <point x="385.09000000000003" y="543.82"/>
      <point x="342.945" y="462.29"/>
      <point x="342.945" y="334.615" type="curve" smooth="yes"/>
      <point x="342.945" y="235.77"/>
      <point x="357.68" y="92.95"/>
      <point x="357.68" y="5.575000000000003" type="curve" smooth="yes"/>
      <point x="357.68" y="-123.62"/>
      <point x="310.86" y="-175.91"/>
      <point x="197.22" y="-175.91" type="curve" smooth="yes"/>
      <point x="142.255" y="-175.91"/>
      <point x="97.435" y="-164.235"/>
      <point x="64.025" y="-150.56" type="curve"/>
      <point x="64.025" y="-213.975" type="line"/>
      <point x="103.145" y="-229.445"/>
      <point x="154.47" y="-240.18"/>
      <point x="211.735" y="-240.18" type="curve" smooth="yes"/>
      <point x="365.335" y="-240.18"/>
      <point x="434.9" y="-165.265"/>
      <point x="434.9" y="-1.9299999999999997" type="curve" smooth="yes"/>
      <point x="434.9" y="96.975"/>
      <point x="419.43" y="242.325"/>
      <point x="419.43" y="330.495" type="curve" smooth="yes"/>
      <point x="419.43" y="446.605"/>
      <point x="454.165" y="509.835"/>
      <point x="593.215" y="522.98" type="curve"/>
      <point x="593.215" y="596.105" type="line"/>
      <point x="454.165" y="607.515"/>
      <point x="419.43" y="670.01"/>
      <point x="419.43" y="784.385" type="curve" smooth="yes"/>
      <point x="419.43" y="874.29"/>
      <point x="434.9" y="1017.17"/>
      <point x="434.9" y="1113.075" type="curve" smooth="yes"/>
      <point x="434.9" y="1277.145"/>
      <point x="366.07" y="1351.795"/>
      <point x="211.735" y="1351.795" type="curve" smooth="yes"/>
      <point x="154.47" y="1351.795"/>
      <point x="103.145" y="1341.06"/>
    </contour>
  </outline>
</glyph>
<glyph name="asciitilde" format="2">
  <advance width="1070.035"/>
  <unicode hex="007E"/>
  <outline>
    <contour>
      <point x="746.265" y="487.76" type="curve" smooth="yes"/>
      <point x="870.25" y="487.76"/>
      <point x="924.37" y="556.77"/>
      <point x="924.37" y="691.515" type="curve" smooth="yes"/>
      <point x="924.37" y="718.02" type="line"/>
      <point x="860.955" y="718.02" type="line"/>
      <point x="860.955" y="699.55" type="line" smooth="yes"/>
      <point x="860.955" y="603.295"/>
      <point x="824.99" y="555.945"/>
      <point x="742.82" y="555.945" type="curve" smooth="yes"/>
      <point x="612.975" y="555.945"/>
      <point x="472.83" y="695.08"/>
      <point x="324.505" y="695.08" type="curve" smooth="yes"/>
      <point x="199.52" y="695.08"/>
      <point x="145.665" y="625.275"/>
      <point x="145.665" y="489.59" type="curve" smooth="yes"/>
      <point x="145.665" y="464.085" type="line"/>
      <point x="208.07999999999998" y="464.085" type="line"/>
      <point x="208.07999999999998" y="483.025" type="line" smooth="yes"/>
      <point x="208.07999999999998" y="578.75"/>
      <point x="245.31" y="627.365"/>
      <point x="326.95" y="627.365" type="curve" smooth="yes"/>
      <point x="456.59" y="627.365"/>
      <point x="594.53" y="487.76"/>
    </contour>
  </outline>
</glyph>
<glyph name="exclamdown" format="2">
  <advance width="437.25"/>
  <unicode hex="00A1"/>
  <outline>
    <contour>
      <point x="251.38" y="600.255" type="line"/>
      <point x="185.87" y="600.255" type="line"/>
      <point x="175.365" y="-305.145" type="line"/>
      <point x="261.15" y="-305.145" type="line"/>
    </contour>
    <contour>
      <point x="217.89" y="987.24" type="curve" smooth="yes"/>
      <point x="176.11" y="987.24"/>
      <point x="155.28" y="961.35"/>
      <point x="155.28" y="912.75" type="curve" smooth="yes"/>
      <point x="155.28" y="902.75" type="line" smooth="yes"/>
      <point x="155.28" y="855.15"/>
      <point x="176.11" y="829.995"/>
      <point x="217.89" y="829.995" type="curve" smooth="yes"/>
      <point x="260.875" y="829.995"/>
      <point x="281.97" y="855.15"/>
      <point x="281.97" y="902.75" type="curve" smooth="yes"/>
      <point x="281.97" y="912.75" type="line" smooth="yes"/>
      <point x="281.97" y="961.35"/>
      <point x="260.875" y="987.24"/>
    </contour>
  </outline>
</glyph>
<glyph name="cent" format="2">
  <advance width="857.565"/>
  <unicode hex="00A2"/>
  <anchor x="472.3" y="0.0" name="bottom"/>
  <anchor x="472.3" y="972.855" name="top"/>
  <outline>
    <contour>
      <point x="518.235" y="959.075" type="line"/>
      <point x="518.235" y="1193.145" type="line"/>
      <point x="447.99" y="1193.145" type="line"/>
      <point x="447.99" y="959.075" type="line"/>
    </contour>
    <contour>
      <point x="518.235" y="-224.29" type="line"/>
      <point x="518.235" y="20.67" type="line"/>
      <point x="447.99" y="20.67" type="line"/>
      <point x="447.99" y="-224.29" type="line"/>
    </contour>
    <component base="c"/>
  </outline>
</glyph>
<glyph name="sterling" format="2">
  <advance width="1066.71"/>
  <unicode hex="00A3"/>
  <outline>
    <contour>
      <point x="91.23" y="619.69" type="line"/>
      <point x="878.805" y="619.69" type="line"/>
      <point x="886.13" y="684.96" type="line"/>
      <point x="99.28999999999999" y="684.96" type="line"/>
    </contour>
    <contour>
      <point x="206.95499999999998" y="70.775" type="line"/>
      <point x="214.305" y="68.28" type="line"/>
      <point x="324.92" y="121.16"/>
      <point x="383.86" y="218.26999999999998"/>
      <point x="383.86" y="390.62" type="curve" smooth="yes"/>
      <point x="383.86" y="582.07"/>
      <point x="310.98" y="747.215"/>
      <point x="310.98" y="938.93" type="curve" smooth="yes"/>
      <point x="310.98" y="1132.235"/>
      <point x="420.58500000000004" y="1225.815"/>
      <point x="626.285" y="1225.815" type="curve" smooth="yes"/>
      <point x="729.37" y="1225.815"/>
      <point x="828.455" y="1205.61"/>
      <point x="923.865" y="1163.465" type="curve"/>
      <point x="915.95" y="1237.65" type="line"/>
      <point x="836.36" y="1271.65"/>
      <point x="726.565" y="1297.59"/>
      <point x="615.83" y="1297.59" type="curve" smooth="yes"/>
      <point x="355.11" y="1297.59"/>
      <point x="227.195" y="1180.735"/>
      <point x="227.195" y="944.82" type="curve" smooth="yes"/>
      <point x="227.195" y="740.925"/>
      <point x="301.87" y="577.13"/>
      <point x="300.87" y="384.90999999999997" type="curve" smooth="yes"/>
      <point x="300.135" y="209.595"/>
      <point x="243.435" y="108.715"/>
      <point x="124.28999999999999" y="74.305" type="curve" smooth="yes"/>
      <point x="96.495" y="66.305" type="line"/>
      <point x="96.495" y="0.0" type="line"/>
      <point x="990.48" y="0.0" type="line"/>
      <point x="990.48" y="70.775" type="line"/>
    </contour>
  </outline>
</glyph>
<glyph name="currency" format="2">
  <advance width="962.235"/>
  <unicode hex="00A4"/>
  <outline>
    <contour>
      <point x="480.985" y="260.52" type="curve" smooth="yes"/>
      <point x="691.32" y="260.52"/>
      <point x="809.56" y="378.23"/>
      <point x="809.56" y="593.795" type="curve" smooth="yes"/>
      <point x="809.56" y="650.76" type="line" smooth="yes"/>
      <point x="809.56" y="865.325"/>
      <point x="692.32" y="982.3"/>
      <point x="481.985" y="982.3" type="curve" smooth="yes"/>
      <point x="271.65" y="982.3"/>
      <point x="153.41" y="865.325"/>
      <point x="153.41" y="650.76" type="curve" smooth="yes"/>
      <point x="153.41" y="593.795" type="line" smooth="yes"/>
      <point x="153.41" y="378.23"/>
      <point x="270.65" y="260.52"/>
    </contour>
    <contour>
      <point x="481.985" y="324.73" type="curve" smooth="yes"/>
      <point x="317.765" y="324.73"/>
      <point x="226.98000000000002" y="418.045"/>
      <point x="226.98000000000002" y="593.0" type="curve" smooth="yes"/>
      <point x="226.98000000000002" y="651.555" type="line" smooth="yes"/>
      <point x="226.98000000000002" y="825.775"/>
      <point x="317.765" y="918.09"/>
      <point x="481.985" y="918.09" type="curve" smooth="yes"/>
      <point x="644.47" y="918.09"/>
      <point x="735.725" y="825.775"/>
      <point x="735.725" y="651.555" type="curve" smooth="yes"/>
      <point x="735.99" y="593.0" type="line" smooth="yes"/>
      <point x="735.99" y="418.045"/>
      <point x="644.47" y="324.73"/>
    </contour>
    <contour>
      <point x="712.115" y="379.165" type="line"/>
      <point x="663.385" y="336.29" type="line"/>
      <point x="829.54" y="142.255" type="line"/>
      <point x="878.065" y="182.6" type="line"/>
    </contour>
    <contour>
      <point x="298.85" y="337.025" type="line"/>
      <point x="252.65" y="381.165" type="line"/>
      <point x="84.435" y="182.6" type="line"/>
      <point x="133.695" y="142.255" type="line"/>
    </contour>
    <contour>
      <point x="247.53" y="865.715" type="line"/>
      <point x="297.32" y="905.795" type="line"/>
      <point x="132.695" y="1099.035" type="line"/>
      <point x="84.435" y="1058.425" type="line"/>
    </contour>
    <contour>
      <point x="663.385" y="903.0" type="line"/>
      <point x="712.585" y="861.33" type="line"/>
      <point x="877.8" y="1058.425" type="line"/>
      <point x="829.54" y="1099.035" type="line"/>
    </contour>
  </outline>
</glyph>
<glyph name="yen" format="2">
  <advance width="1094.78"/>
  <unicode hex="00A5"/>
  <anchor x="544.42" y="0.0" name="bottom"/>
  <anchor x="544.42" y="1278.0" name="top"/>
  <anchor x="39.29" y="1278.0" name="topleft"/>
  <outline>
    <contour>
      <point x="640.12" y="591.125" type="line"/>
      <point x="961.02" y="591.125" type="line"/>
      <point x="969.875" y="654.07" type="line"/>
      <point x="661.89" y="654.07" type="line"/>
    </contour>
    <contour>
      <point x="135.29" y="338.695" type="line"/>
      <point x="126.435" y="276.015" type="line"/>
      <point x="961.02" y="276.015" type="line"/>
      <point x="969.875" y="338.695" type="line"/>
    </contour>
    <contour>
      <point x="428.89" y="654.07" type="line"/>
      <point x="135.29" y="654.07" type="line"/>
      <point x="126.435" y="591.125" type="line"/>
      <point x="451.66" y="591.125" type="line"/>
    </contour>
    <component base="Y" xOffset="14.879999999999999"/>
  </outline>
</glyph>
<glyph name="brokenbar" format="2">
  <advance width="467.54"/>
  <unicode hex="00A6"/>
  <outline>
    <contour>
      <point x="268.995" y="592.88" type="line"/>
      <point x="268.995" y="1421.0" type="line"/>
      <point x="198.54500000000002" y="1421.0" type="line"/>
      <point x="198.54500000000002" y="592.88" type="line"/>
    </contour>
    <contour>
      <point x="268.995" y="-445.965" type="line"/>
      <point x="268.995" y="385.215" type="line"/>
      <point x="198.54500000000002" y="385.215" type="line"/>
      <point x="198.54500000000002" y="-445.965" type="line"/>
    </contour>
  </outline>
</glyph>
<glyph name="section" format="2">
  <advance width="936.095"/>
  <unicode hex="00A7"/>
  <outline>
    <contour>
      <point x="555.675" y="370.55" type="curve"/>
      <point x="622.405" y="336.6" type="line"/>
      <point x="622.14" y="358.575" type="line"/>
      <point x="742.695" y="385.13"/>
      <point x="811.635" y="479.095"/>
      <point x="811.635" y="586.625" type="curve" smooth="yes"/>
      <point x="811.635" y="594.095" type="line" smooth="yes"/>
      <point x="811.635" y="744.805"/>
      <point x="732.66" y="811.36"/>
      <point x="480.31" y="864.215" type="curve" smooth="yes"/>
      <point x="265.705" y="908.685"/>
      <point x="202.005" y="956.59"/>
      <point x="202.005" y="1057.4" type="curve" smooth="yes"/>
      <point x="202.005" y="1065.195" type="line" smooth="yes"/>
      <point x="202.005" y="1170.62"/>
      <point x="280.935" y="1229.2"/>
      <point x="455.745" y="1229.2" type="curve" smooth="yes"/>
      <point x="597.42" y="1229.2"/>
      <point x="700.6" y="1187.79"/>
      <point x="784.455" y="1132.44" type="curve"/>
      <point x="775.275" y="1205.77" type="line"/>
      <point x="709.36" y="1252.445"/>
      <point x="601.24" y="1296.59"/>
      <point x="451.18" y="1296.59" type="curve" smooth="yes"/>
      <point x="233.17" y="1296.59"/>
      <point x="123.66499999999999" y="1217.145"/>
      <point x="123.66499999999999" y="1066.255" type="curve" smooth="yes"/>
      <point x="123.66499999999999" y="1058.195" type="line" smooth="yes"/>
      <point x="123.66499999999999" y="926.015"/>
      <point x="201.195" y="853.98"/>
      <point x="446.665" y="804.185" type="curve" smooth="yes"/>
      <point x="677.475" y="757.775"/>
      <point x="734.885" y="702.52"/>
      <point x="734.885" y="583.085" type="curve" smooth="yes"/>
      <point x="734.885" y="576.82" type="line" smooth="yes"/>
      <point x="734.885" y="487.095"/>
      <point x="676.775" y="398.225"/>
    </contour>
    <contour>
      <point x="377.83" y="832.005" type="curve"/>
      <point x="312.15999999999997" y="861.1" type="line"/>
      <point x="312.425" y="841.86" type="line"/>
      <point x="191.54500000000002" y="812.655"/>
      <point x="123.66499999999999" y="722.4"/>
      <point x="123.66499999999999" y="614.34" type="curve" smooth="yes"/>
      <point x="123.66499999999999" y="606.605" type="line" smooth="yes"/>
      <point x="123.66499999999999" y="461.99"/>
      <point x="203.05" y="388.52"/>
      <point x="447.4" y="337.81" type="curve" smooth="yes"/>
      <point x="676.15" y="291.015"/>
      <point x="733.295" y="240.495"/>
      <point x="733.295" y="128.275" type="curve" smooth="yes"/>
      <point x="733.295" y="121.215" type="line" smooth="yes"/>
      <point x="733.295" y="0.7049999999999983"/>
      <point x="636.16" y="-58.875"/>
      <point x="463.085" y="-58.875" type="curve" smooth="yes"/>
      <point x="316.82" y="-58.875"/>
      <point x="208.17" y="-16.14"/>
      <point x="114.11" y="40.47500000000001" type="curve"/>
      <point x="123.28999999999999" y="-38.565" type="line"/>
      <point x="194.94" y="-81.975"/>
      <point x="308.265" y="-128.325"/>
      <point x="464.53" y="-128.325" type="curve" smooth="yes"/>
      <point x="688.25" y="-128.325"/>
      <point x="811.635" y="-43.41"/>
      <point x="811.635" y="119.89" type="curve" smooth="yes"/>
      <point x="811.635" y="128.54" type="line" smooth="yes"/>
      <point x="811.635" y="280.66"/>
      <point x="733.395" y="345.66"/>
      <point x="481.045" y="397.84000000000003" type="curve" smooth="yes"/>
      <point x="263.645" y="442.635"/>
      <point x="200.41500000000002" y="496.54"/>
      <point x="200.41500000000002" y="620.265" type="curve" smooth="yes"/>
      <point x="200.41500000000002" y="627.06" type="line"/>
      <point x="200.41500000000002" y="718.11"/>
      <point x="259.055" y="804.33"/>
    </contour>
  </outline>
</glyph>
<glyph name="copyright" format="2">
  <advance width="1368.6"/>
  <unicode hex="00A9"/>
  <outline>
    <contour>
      <point x="684.3" y="-20.12" type="curve" smooth="yes"/>
      <point x="1044.25" y="-20.12"/>
      <point x="1249.285" y="189.0"/>
      <point x="1249.285" y="546.36" type="curve" smooth="yes"/>
      <point x="1249.285" y="733.23" type="line" smooth="yes"/>
      <point x="1249.285" y="1089.795"/>
      <point x="1044.25" y="1298.12"/>
      <point x="684.3" y="1298.12" type="curve" smooth="yes"/>
      <point x="324.085" y="1298.12"/>
      <point x="119.315" y="1089.795"/>
      <point x="119.315" y="733.23" type="curve" smooth="yes"/>
      <point x="119.315" y="546.36" type="line" smooth="yes"/>
      <point x="119.315" y="189.0"/>
      <point x="324.085" y="-20.12"/>
    </contour>
    <contour>
      <point x="715.48" y="312.47" type="curve" smooth="yes"/>
      <point x="810.3" y="312.47"/>
      <point x="872.095" y="344.35"/>
      <point x="909.155" y="376.025" type="curve"/>
      <point x="914.745" y="436.165" type="line"/>
      <point x="870.745" y="399.285"/>
      <point x="813.07" y="367.935"/>
      <point x="723.84" y="367.935" type="curve" smooth="yes"/>
      <point x="587.79" y="367.935"/>
      <point x="521.765" y="449.78"/>
      <point x="521.765" y="596.325" type="curve" smooth="yes"/>
      <point x="521.765" y="687.0" type="line" smooth="yes"/>
      <point x="521.765" y="833.28"/>
      <point x="587.73" y="913.39"/>
      <point x="721.31" y="913.39" type="curve" smooth="yes"/>
      <point x="808.335" y="913.39"/>
      <point x="865.745" y="882.775"/>
      <point x="909.745" y="845.895" type="curve"/>
      <point x="903.89" y="905.77" type="line"/>
      <point x="869.565" y="935.71"/>
      <point x="808.035" y="968.06"/>
      <point x="716.215" y="968.06" type="curve" smooth="yes"/>
      <point x="544.65" y="968.06"/>
      <point x="459.795" y="867.265"/>
      <point x="459.795" y="685.47" type="curve" smooth="yes"/>
      <point x="459.795" y="595.59" type="line" smooth="yes"/>
      <point x="459.795" y="413.53"/>
      <point x="543.65" y="312.47"/>
    </contour>
    <contour>
      <point x="684.3" y="33.550000000000004" type="curve" smooth="yes"/>
      <point x="364.9" y="33.550000000000004"/>
      <point x="181.49" y="220.925"/>
      <point x="181.49" y="543.71" type="curve" smooth="yes"/>
      <point x="181.49" y="736.615" type="line" smooth="yes"/>
      <point x="181.49" y="1057.87"/>
      <point x="364.9" y="1244.45"/>
      <point x="684.3" y="1244.45" type="curve" smooth="yes"/>
      <point x="1003.435" y="1244.45"/>
      <point x="1187.11" y="1057.87"/>
      <point x="1187.11" y="736.615" type="curve" smooth="yes"/>
      <point x="1187.11" y="543.71" type="line" smooth="yes"/>
      <point x="1187.11" y="220.925"/>
      <point x="1003.435" y="33.550000000000004"/>
    </contour>
  </outline>
</glyph>
<glyph name="ordfeminine" format="2">
  <advance width="664.265"/>
  <unicode hex="00AA"/>
  <outline>
    <contour>
      <point x="486.305" y="643.47" type="line"/>
      <point x="548.865" y="643.47" type="line"/>
      <point x="548.865" y="1067.7" type="line" smooth="yes"/>
      <point x="548.865" y="1208.375"/>
      <point x="484.19" y="1292.0"/>
      <point x="329.675" y="1292.0" type="curve" smooth="yes"/>
      <point x="229.0" y="1292.0"/>
      <point x="154.205" y="1256.385"/>
      <point x="109.76" y="1223.915" type="curve"/>
      <point x="104.375" y="1165.655" type="line"/>
      <point x="156.29" y="1203.065"/>
      <point x="232.23" y="1237.74"/>
      <point x="322.11" y="1237.74" type="curve" smooth="yes"/>
      <point x="438.075" y="1237.74"/>
      <point x="487.365" y="1177.1"/>
      <point x="487.365" y="1068.495" type="curve"/>
      <point x="487.365" y="1012.025" type="line"/>
      <point x="487.365" y="802.47" type="line"/>
      <point x="490.1" y="796.615" type="line"/>
    </contour>
    <contour>
      <point x="275.725" y="631.205" type="curve" smooth="yes"/>
      <point x="410.63" y="631.205"/>
      <point x="480.41499999999996" y="707.52"/>
      <point x="494.125" y="800.16" type="curve"/>
      <point x="507.1" y="800.16" type="line"/>
      <point x="490.365" y="844.445" type="line"/>
      <point x="474.835" y="755.985"/>
      <point x="405.34" y="685.73"/>
      <point x="293.59" y="685.73" type="curve" smooth="yes"/>
      <point x="194.72" y="685.73"/>
      <point x="146.07999999999998" y="734.37"/>
      <point x="146.07999999999998" y="812.83" type="curve" smooth="yes"/>
      <point x="146.07999999999998" y="826.035" type="line" smooth="yes"/>
      <point x="146.07999999999998" y="901.82"/>
      <point x="185.9" y="942.725"/>
      <point x="305.265" y="961.34" type="curve" smooth="yes"/>
      <point x="503.075" y="991.485" type="line"/>
      <point x="499.22" y="1040.77" type="line"/>
      <point x="292.64" y="1008.36" type="line" smooth="yes"/>
      <point x="140.435" y="984.625"/>
      <point x="83.255" y="928.155"/>
      <point x="83.255" y="822.915" type="curve" smooth="yes"/>
      <point x="83.255" y="807.915" type="line" smooth="yes"/>
      <point x="83.255" y="693.795"/>
      <point x="152.46" y="631.205"/>
    </contour>
  </outline>
</glyph>
<glyph name="logicalnot" format="2">
  <advance width="1022.41"/>
  <unicode hex="00AC"/>
  <outline>
    <contour>
      <point x="880.745" y="207.555" type="line"/>
      <point x="880.745" y="627.505" type="line"/>
      <point x="811.03" y="627.505" type="line"/>
      <point x="811.03" y="207.555" type="line"/>
    </contour>
    <contour>
      <point x="114.435" y="590.775" type="line"/>
      <point x="880.745" y="590.775" type="line"/>
      <point x="880.745" y="657.37" type="line"/>
      <point x="114.435" y="657.37" type="line"/>
    </contour>
  </outline>
</glyph>
<glyph name="registered" format="2">
  <advance width="824.915"/>
  <unicode hex="00AE"/>
  <outline>
    <contour>
      <point x="412.59" y="562.195" type="curve" smooth="yes"/>
      <point x="620.95" y="562.195"/>
      <point x="739.395" y="678.64"/>
      <point x="739.395" y="886.29" type="curve" smooth="yes"/>
      <point x="739.395" y="970.7" type="line" smooth="yes"/>
      <point x="739.395" y="1179.085"/>
      <point x="620.95" y="1294.795"/>
      <point x="412.59" y="1294.795" type="curve" smooth="yes"/>
      <point x="203.965" y="1294.795"/>
      <point x="85.52" y="1179.085"/>
      <point x="85.52" y="970.7" type="curve" smooth="yes"/>
      <point x="85.52" y="886.29" type="line" smooth="yes"/>
      <point x="85.52" y="678.64"/>
      <point x="203.965" y="562.195"/>
    </contour>
    <contour>
      <point x="412.59" y="604.855" type="curve" smooth="yes"/>
      <point x="231.18" y="604.855"/>
      <point x="133.3" y="699.53"/>
      <point x="133.3" y="885.495" type="curve" smooth="yes"/>
      <point x="133.3" y="971.76" type="line" smooth="yes"/>
      <point x="133.3" y="1157.46"/>
      <point x="231.18" y="1251.4"/>
      <point x="412.59" y="1251.4" type="curve" smooth="yes"/>
      <point x="593.735" y="1251.4"/>
      <point x="691.35" y="1157.46"/>
      <point x="691.35" y="971.76" type="curve" smooth="yes"/>
      <point x="691.35" y="885.495" type="line" smooth="yes"/>
      <point x="691.35" y="699.53"/>
      <point x="593.735" y="604.855"/>
    </contour>
    <contour>
      <point x="515.375" y="739.35" type="line"/>
      <point x="562.36" y="739.35" type="line"/>
      <point x="547.89" y="817.555" type="line" smooth="yes"/>
      <point x="536.155" y="881.82"/>
      <point x="518.155" y="914.76"/>
      <point x="454.155" y="919.29" type="curve"/>
      <point x="464.745" y="911.025" type="line"/>
      <point x="467.685" y="916.615" type="line"/>
      <point x="530.565" y="921.145"/>
      <point x="555.83" y="957.29"/>
      <point x="555.83" y="1007.555" type="curve" smooth="yes"/>
      <point x="555.83" y="1018.965" type="line" smooth="yes"/>
      <point x="555.83" y="1086.82"/>
      <point x="519.505" y="1123.085"/>
      <point x="440.06" y="1123.085" type="curve" smooth="yes"/>
      <point x="322.505" y="1123.085" type="line"/>
      <point x="322.505" y="1084.545" type="line"/>
      <point x="436.41" y="1084.545" type="line" smooth="yes"/>
      <point x="490.17" y="1084.545"/>
      <point x="510.11" y="1056.195"/>
      <point x="510.11" y="1014.58" type="curve" smooth="yes"/>
      <point x="510.11" y="1002.64" type="line" smooth="yes"/>
      <point x="510.11" y="958.29"/>
      <point x="488.435" y="931.675"/>
      <point x="436.88" y="931.675" type="curve" smooth="yes"/>
      <point x="324.24" y="931.675" type="line"/>
      <point x="324.24" y="893.4" type="line"/>
      <point x="421.41" y="893.4" type="line" smooth="yes"/>
      <point x="471.29" y="893.4"/>
      <point x="492.965" y="874.195"/>
      <point x="503.17" y="813.17" type="curve" smooth="yes"/>
    </contour>
    <contour>
      <point x="293.025" y="739.35" type="line"/>
      <point x="338.48" y="739.35" type="line"/>
      <point x="338.48" y="903.255" type="line"/>
      <point x="338.48" y="919.23" type="line"/>
      <point x="338.48" y="1123.085" type="line"/>
      <point x="293.025" y="1123.085" type="line"/>
    </contour>
  </outline>
</glyph>
<glyph name="degree" format="2">
  <advance width="645.505"/>
  <unicode hex="00B0"/>
  <outline>
    <contour>
      <point x="322.385" y="811.28" type="curve" smooth="yes"/>
      <point x="464.07" y="811.28"/>
      <point x="544.78" y="903.135"/>
      <point x="544.78" y="1050.17" type="curve" smooth="yes"/>
      <point x="544.78" y="1060.23" type="line" smooth="yes"/>
      <point x="544.78" y="1207.0"/>
      <point x="464.07" y="1298.12"/>
      <point x="322.385" y="1298.12" type="curve" smooth="yes"/>
      <point x="181.435" y="1298.12"/>
      <point x="100.725" y="1207.0"/>
      <point x="100.725" y="1060.23" type="curve" smooth="yes"/>
      <point x="100.725" y="1050.17" type="line" smooth="yes"/>
      <point x="100.725" y="903.135"/>
      <point x="181.435" y="811.28"/>
    </contour>
    <contour>
      <point x="322.385" y="869.455" type="curve" smooth="yes"/>
      <point x="221.985" y="869.455"/>
      <point x="165.875" y="938.035"/>
      <point x="165.875" y="1049.17" type="curve" smooth="yes"/>
      <point x="165.875" y="1060.965" type="line" smooth="yes"/>
      <point x="165.875" y="1172.1"/>
      <point x="221.985" y="1239.945"/>
      <point x="322.385" y="1239.945" type="curve" smooth="yes"/>
      <point x="423.785" y="1239.945"/>
      <point x="478.895" y="1172.1"/>
      <point x="478.895" y="1060.965" type="curve" smooth="yes"/>
      <point x="478.895" y="1049.17" type="line" smooth="yes"/>
      <point x="478.895" y="938.035"/>
      <point x="423.785" y="869.455"/>
    </contour>
  </outline>
</glyph>
<glyph name="plusminus" format="2">
  <advance width="1033.205"/>
  <unicode hex="00B1"/>
  <outline>
    <contour>
      <point x="133.57999999999998" y="183.655" type="line"/>
      <point x="899.625" y="183.655" type="line"/>
      <point x="899.625" y="249.25" type="line"/>
      <point x="133.57999999999998" y="249.25" type="line"/>
    </contour>
    <contour>
      <point x="551.96" y="398.65" type="line"/>
      <point x="551.96" y="1081.095" type="line"/>
      <point x="481.245" y="1081.095" type="line"/>
      <point x="481.245" y="398.65" type="line"/>
    </contour>
    <contour>
      <point x="133.57999999999998" y="707.075" type="line"/>
      <point x="899.625" y="707.075" type="line"/>
      <point x="899.625" y="772.67" type="line"/>
      <point x="133.57999999999998" y="772.67" type="line"/>
    </contour>
  </outline>
</glyph>
<glyph name="twosuperior" format="2">
  <advance width="587.12"/>
  <unicode hex="00B2"/>
  <outline>
    <contour>
      <point x="50.230000000000004" y="725.265" type="line"/>
      <point x="529.685" y="725.265" type="line"/>
      <point x="529.685" y="781.115" type="line"/>
      <point x="103.91" y="781.115" type="line"/>
      <point x="131.425" y="767.67" type="line"/>
      <point x="131.425" y="785.175" type="line"/>
      <point x="304.61" y="921.01" type="line" smooth="yes"/>
      <point x="436.515" y="1025.445"/>
      <point x="515.54" y="1099.855"/>
      <point x="515.54" y="1214.47" type="curve" smooth="yes"/>
      <point x="515.54" y="1223.265" type="line" smooth="yes"/>
      <point x="515.54" y="1346.735"/>
      <point x="435.095" y="1414.59"/>
      <point x="286.675" y="1414.59" type="curve" smooth="yes"/>
      <point x="198.47" y="1414.59"/>
      <point x="112.205" y="1382.77"/>
      <point x="62.144999999999996" y="1349.625" type="curve"/>
      <point x="56.025" y="1291.04" type="line"/>
      <point x="122.17" y="1330.535"/>
      <point x="197.785" y="1358.475"/>
      <point x="280.58" y="1358.475" type="curve" smooth="yes"/>
      <point x="391.485" y="1358.475"/>
      <point x="450.065" y="1312.51"/>
      <point x="450.065" y="1219.025" type="curve" smooth="yes"/>
      <point x="450.065" y="1212.025" type="line" smooth="yes"/>
      <point x="450.065" y="1114.685"/>
      <point x="384.92" y="1056.01"/>
      <point x="259.845" y="956.08" type="curve" smooth="yes"/>
      <point x="50.230000000000004" y="788.26" type="line"/>
    </contour>
  </outline>
</glyph>
<glyph name="threesuperior" format="2">
  <advance width="613.325"/>
  <unicode hex="00B3"/>
  <outline>
    <contour>
      <point x="286.615" y="713.675" type="curve" smooth="yes"/>
      <point x="472.12" y="713.675"/>
      <point x="546.155" y="798.41"/>
      <point x="546.155" y="903.65" type="curve" smooth="yes"/>
      <point x="546.155" y="917.06" type="line" smooth="yes"/>
      <point x="546.155" y="1009.795"/>
      <point x="496.745" y="1069.35"/>
      <point x="373.55" y="1078.53" type="curve"/>
      <point x="370.46500000000003" y="1073.41" type="line"/>
      <point x="374.875" y="1077.65" type="line"/>
      <point x="494.745" y="1083.83"/>
      <point x="539.685" y="1152.47"/>
      <point x="539.685" y="1229.265" type="curve" smooth="yes"/>
      <point x="539.685" y="1241.41" type="line" smooth="yes"/>
      <point x="539.685" y="1350.325"/>
      <point x="463.65" y="1413.59"/>
      <point x="296.085" y="1413.59" type="curve" smooth="yes"/>
      <point x="189.47" y="1413.59"/>
      <point x="110.47" y="1386.18"/>
      <point x="65.82" y="1359.915" type="curve"/>
      <point x="59.435" y="1303.45" type="line"/>
      <point x="113.435" y="1331.595"/>
      <point x="188.495" y="1358.8"/>
      <point x="288.58" y="1358.8" type="curve" smooth="yes"/>
      <point x="419.425" y="1358.8"/>
      <point x="473.74" y="1312.63"/>
      <point x="473.74" y="1234.905" type="curve" smooth="yes"/>
      <point x="473.74" y="1224.495" type="line" smooth="yes"/>
      <point x="473.74" y="1149.915"/>
      <point x="422.715" y="1101.335"/>
      <point x="295.99" y="1100.07" type="curve" smooth="yes"/>
      <point x="161.785" y="1098.54" type="line"/>
      <point x="161.785" y="1049.135" type="line"/>
      <point x="298.93" y="1047.605" type="line" smooth="yes"/>
      <point x="427.775" y="1046.34"/>
      <point x="479.68" y="1004.315"/>
      <point x="479.68" y="920.18" type="curve" smooth="yes"/>
      <point x="479.68" y="909.3" type="line" smooth="yes"/>
      <point x="479.68" y="827.37"/>
      <point x="424.63" y="769.26"/>
      <point x="282.52" y="769.26" type="curve" smooth="yes"/>
      <point x="191.17" y="769.26"/>
      <point x="107.76" y="795.2"/>
      <point x="54.7" y="821.405" type="curve"/>
      <point x="61.085" y="761.82" type="line"/>
      <point x="101.94" y="741.82"/>
      <point x="182.06" y="713.675"/>
    </contour>
  </outline>
</glyph>
<glyph name="micro" format="2">
  <advance width="1047.43"/>
  <unicode hex="00B5"/>
  <outline>
    <contour>
      <point x="895.5" y="972.855" type="line"/>
      <point x="816.365" y="972.855" type="line"/>
      <point x="816.365" y="250.555" type="line"/>
      <point x="821.425" y="247.375" type="line"/>
      <point x="816.365" y="0.0" type="line"/>
      <point x="895.5" y="0.0" type="line"/>
    </contour>
    <contour>
      <point x="231.065" y="352.66" type="curve" smooth="yes"/>
      <point x="231.065" y="972.855" type="line"/>
      <point x="151.93" y="972.855" type="line"/>
      <point x="151.93" y="-344.0" type="line"/>
      <point x="230.005" y="-344.0" type="line"/>
      <point x="230.005" y="-102.135" type="line"/>
      <point x="222.41500000000002" y="188.62" type="line"/>
      <point x="222.32999999999998" y="189.35500000000002" type="line"/>
      <point x="251.185" y="78.97999999999999"/>
      <point x="330.415" y="-19.53"/>
      <point x="512.83" y="-19.53" type="curve" smooth="yes"/>
      <point x="695.46" y="-19.53"/>
      <point x="805.68" y="104.895"/>
      <point x="825.86" y="259.945" type="curve"/>
      <point x="844.81" y="259.945" type="line"/>
      <point x="823.1" y="325.77" type="line"/>
      <point x="798.1" y="165.525"/>
      <point x="686.435" y="48.185"/>
      <point x="516.95" y="48.185" type="curve" smooth="yes"/>
      <point x="325.26" y="48.185"/>
      <point x="231.065" y="164.38"/>
    </contour>
  </outline>
</glyph>
<glyph name="paragraph" format="2">
  <advance width="673.765"/>
  <unicode hex="00B6"/>
  <outline>
    <contour>
      <point x="360.18" y="670.435" type="curve"/>
      <point x="445.565" y="670.435" type="line"/>
      <point x="444.565" y="1278.0" type="line"/>
      <point x="359.445" y="1278.0" type="line" smooth="yes"/>
      <point x="183.435" y="1278.0"/>
      <point x="100.99" y="1172.0"/>
      <point x="100.99" y="1005.7" type="curve" smooth="yes"/>
      <point x="100.99" y="944.47" type="line" smooth="yes"/>
      <point x="100.99" y="777.17"/>
      <point x="183.435" y="670.435"/>
    </contour>
    <contour>
      <point x="500.15999999999997" y="0.0" type="line"/>
      <point x="500.15999999999997" y="1278.0" type="line"/>
      <point x="419.82" y="1278.0" type="line"/>
      <point x="419.82" y="0.0" type="line"/>
    </contour>
  </outline>
</glyph>
<glyph name="onesuperior" format="2">
  <advance width="412.83"/>
  <unicode hex="00B9"/>
  <outline>
    <contour>
      <point x="246.22" y="725.265" type="line"/>
      <point x="308.84000000000003" y="725.265" type="line"/>
      <point x="308.84000000000003" y="1403.265" type="line"/>
      <point x="237.785" y="1403.265" type="line"/>
      <point x="40.085" y="1277.215" type="line"/>
      <point x="38.025" y="1213.45" type="line"/>
      <point x="239.69" y="1340.055" type="line"/>
      <point x="246.22" y="1340.055" type="line"/>
    </contour>
  </outline>
</glyph>
<glyph name="ordmasculine" format="2">
  <advance width="688.855"/>
  <unicode hex="00BA"/>
  <outline>
    <contour>
      <point x="344.795" y="631.205" type="curve" smooth="yes"/>
      <point x="512.155" y="631.205"/>
      <point x="603.335" y="729.06"/>
      <point x="603.335" y="912.71" type="curve" smooth="yes"/>
      <point x="603.335" y="1013.23" type="line" smooth="yes"/>
      <point x="603.335" y="1196.615"/>
      <point x="512.42" y="1293.735"/>
      <point x="344.795" y="1293.735" type="curve" smooth="yes"/>
      <point x="177.435" y="1293.735"/>
      <point x="85.52" y="1196.615"/>
      <point x="85.52" y="1013.23" type="curve" smooth="yes"/>
      <point x="85.52" y="912.71" type="line" smooth="yes"/>
      <point x="85.52" y="729.06"/>
      <point x="176.7" y="631.205"/>
    </contour>
    <contour>
      <point x="344.795" y="685.995" type="curve" smooth="yes"/>
      <point x="218.25" y="685.995"/>
      <point x="150.67000000000002" y="764.84"/>
      <point x="150.67000000000002" y="910.12" type="curve" smooth="yes"/>
      <point x="150.67000000000002" y="1016.085" type="line" smooth="yes"/>
      <point x="150.67000000000002" y="1161.1"/>
      <point x="218.25" y="1238.945"/>
      <point x="344.795" y="1238.945" type="curve" smooth="yes"/>
      <point x="471.34" y="1238.945"/>
      <point x="538.185" y="1161.835"/>
      <point x="538.185" y="1016.085" type="curve" smooth="yes"/>
      <point x="538.185" y="910.12" type="line" smooth="yes"/>
      <point x="538.185" y="763.84"/>
      <point x="470.34" y="685.995"/>
    </contour>
  </outline>
</glyph>
<glyph name="guillemetright" format="2">
  <advance width="968.865"/>
  <unicode hex="00BB"/>
  <outline>
    <contour>
      <point x="387.945" y="485.59" type="line"/>
      <point x="71.87" y="97.555" type="line"/>
      <point x="156.56" y="97.555" type="line"/>
      <point x="459.43" y="465.795" type="line"/>
      <point x="459.43" y="505.385" type="line"/>
      <point x="156.56" y="872.035" type="line"/>
      <point x="71.87" y="872.035" type="line"/>
    </contour>
    <contour>
      <point x="801.51" y="485.59" type="line"/>
      <point x="485.435" y="97.555" type="line"/>
      <point x="570.125" y="97.555" type="line"/>
      <point x="872.995" y="465.795" type="line"/>
      <point x="872.995" y="505.385" type="line"/>
      <point x="570.125" y="872.035" type="line"/>
      <point x="485.435" y="872.035" type="line"/>
    </contour>
  </outline>
</glyph>
<glyph name="questiondown" format="2">
  <advance width="871.13"/>
  <unicode hex="00BF"/>
  <outline>
    <contour>
      <point x="573.465" y="587.735" type="line"/>
      <point x="489.07" y="566.41" type="line" smooth="yes"/>
      <point x="233.88" y="500.735"/>
      <point x="108.195" y="382.53"/>
      <point x="108.195" y="145.255" type="curve" smooth="yes"/>
      <point x="108.195" y="33.915" type="line" smooth="yes"/>
      <point x="108.195" y="-196.675"/>
      <point x="211.675" y="-323.0"/>
      <point x="456.275" y="-323.0" type="curve" smooth="yes"/>
      <point x="605.19" y="-323.0"/>
      <point x="728.455" y="-269.18"/>
      <point x="793.575" y="-222.3" type="curve"/>
      <point x="803.815" y="-144.79" type="line"/>
      <point x="720.575" y="-201.405"/>
      <point x="599.84" y="-251.755"/>
      <point x="465.225" y="-251.755" type="curve" smooth="yes"/>
      <point x="265.09000000000003" y="-251.755"/>
      <point x="188.86" y="-149.29500000000002"/>
      <point x="188.86" y="39.155" type="curve" smooth="yes"/>
      <point x="188.86" y="146.05" type="line" smooth="yes"/>
      <point x="188.86" y="342.885"/>
      <point x="293.26" y="441.2"/>
      <point x="506.105" y="497.43" type="curve" smooth="yes"/>
      <point x="573.465" y="514.96" type="line"/>
    </contour>
    <contour>
      <point x="531.095" y="987.24" type="curve" smooth="yes"/>
      <point x="488.11" y="987.24"/>
      <point x="467.015" y="961.35"/>
      <point x="467.015" y="912.75" type="curve" smooth="yes"/>
      <point x="467.015" y="902.75" type="line" smooth="yes"/>
      <point x="467.015" y="855.15"/>
      <point x="488.11" y="829.995"/>
      <point x="531.095" y="829.995" type="curve" smooth="yes"/>
      <point x="572.875" y="829.995"/>
      <point x="593.705" y="855.15"/>
      <point x="593.705" y="902.75" type="curve" smooth="yes"/>
      <point x="593.705" y="912.75" type="line" smooth="yes"/>
      <point x="593.705" y="961.35"/>
      <point x="572.875" y="987.24"/>
    </contour>
  </outline>
</glyph>
<glyph name="AE" format="2">
  <advance width="1696.235"/>
  <unicode hex="00C6"/>
  <anchor x="845.78" y="0.0" name="bottom"/>
  <anchor x="845.78" y="1278.0" name="top"/>
  <outline>
    <contour>
      <point x="64.99" y="0.0" type="line"/>
      <point x="152.775" y="0.0" type="line"/>
      <point x="784.685" y="1218.97" type="line"/>
      <point x="861.805" y="1218.97" type="line"/>
      <point x="861.805" y="1278.0" type="line"/>
      <point x="729.27" y="1278.0" type="line"/>
    </contour>
    <contour>
      <point x="345.265" y="426.825" type="line"/>
      <point x="873.345" y="426.825" type="line"/>
      <point x="873.345" y="496.54" type="line"/>
      <point x="345.265" y="496.54" type="line"/>
    </contour>
    <contour>
      <point x="870.165" y="0.0" type="line"/>
      <point x="1586.33" y="0.0" type="line"/>
      <point x="1586.33" y="70.245" type="line"/>
      <point x="870.165" y="70.245" type="line"/>
    </contour>
    <contour>
      <point x="844.975" y="0.0" type="line"/>
      <point x="926.11" y="0.0" type="line"/>
      <point x="926.11" y="1278.0" type="line"/>
      <point x="844.975" y="1278.0" type="line"/>
    </contour>
    <contour>
      <point x="889.885" y="619.45" type="line"/>
      <point x="1566.535" y="619.45" type="line"/>
      <point x="1566.535" y="689.165" type="line"/>
      <point x="889.885" y="689.165" type="line"/>
    </contour>
    <contour>
      <point x="868.43" y="1208.02" type="line"/>
      <point x="1580.8" y="1208.02" type="line"/>
      <point x="1580.8" y="1278.0" type="line"/>
      <point x="868.43" y="1278.0" type="line"/>
    </contour>
  </outline>
</glyph>
<glyph name="Eth" format="2">
  <advance width="1152.37"/>
  <unicode hex="00D0"/>
  <anchor x="570.625" y="0.0" name="bottom"/>
  <anchor x="584.685" y="639.0" name="center"/>
  <anchor x="570.625" y="1278.0" name="top"/>
  <outline>
    <contour>
      <point x="11.615" y="630.245" type="line"/>
      <point x="615.625" y="630.245" type="line"/>
      <point x="615.625" y="694.985" type="line"/>
      <point x="11.615" y="694.985" type="line"/>
    </contour>
    <component base="D"/>
  </outline>
</glyph>
<glyph name="multiply" format="2">
  <advance width="966.085"/>
  <unicode hex="00D7"/>
  <outline>
    <contour>
      <point x="833.455" y="300.865" type="line"/>
      <point x="188.155" y="989.42" type="line"/>
      <point x="139.1" y="946.22" type="line"/>
      <point x="783.665" y="257.4" type="line"/>
    </contour>
    <contour>
      <point x="132.63" y="300.865" type="line"/>
      <point x="182.42000000000002" y="257.4" type="line"/>
      <point x="826.985" y="946.22" type="line"/>
      <point x="777.93" y="989.42" type="line"/>
    </contour>
  </outline>
</glyph>
<glyph name="Oslash" format="2">
  <advance width="1154.465"/>
  <unicode hex="00D8"/>
  <anchor x="577.6" y="0.0" name="bottom"/>
  <anchor x="577.6" y="639.265" name="center"/>
  <anchor x="1049.345" y="10.265" name="ogonek"/>
  <anchor x="577.6" y="1278.0" name="top"/>
  <anchor x="6.735" y="1278.265" name="topleft"/>
  <anchor x="1147.465" y="1278.265" name="topright"/>
  <outline>
    <contour>
      <point x="576.865" y="-20.12" type="curve" smooth="yes"/>
      <point x="873.85" y="-20.12"/>
      <point x="1035.15" y="157.59"/>
      <point x="1035.15" y="474.01" type="curve" smooth="yes"/>
      <point x="1035.15" y="804.255" type="line" smooth="yes"/>
      <point x="1035.15" y="1117.76"/>
      <point x="871.2" y="1298.12"/>
      <point x="576.865" y="1298.12" type="curve" smooth="yes"/>
      <point x="279.615" y="1298.12"/>
      <point x="119.315" y="1120.41"/>
      <point x="119.315" y="804.255" type="curve" smooth="yes"/>
      <point x="119.315" y="474.01" type="line" smooth="yes"/>
      <point x="119.315" y="160.24"/>
      <point x="282.265" y="-20.12"/>
    </contour>
    <contour>
      <point x="143.485" y="-66.06" type="line"/>
      <point x="223.32" y="-66.06" type="line"/>
      <point x="308.825" y="85.445" type="line"/>
      <point x="318.68" y="103.89" type="line"/>
      <point x="883.985" y="1128.355" type="line"/>
      <point x="901.465" y="1156.28" type="line"/>
      <point x="1010.98" y="1343.325" type="line"/>
      <point x="930.675" y="1343.325" type="line"/>
      <point x="849.82" y="1201.18" type="line"/>
      <point x="837.7" y="1177.085" type="line"/>
      <point x="271.07" y="150.235" type="line"/>
      <point x="254.0" y="125.045" type="line"/>
    </contour>
    <contour>
      <point x="576.865" y="50.595" type="curve" smooth="yes"/>
      <point x="327.85" y="50.595"/>
      <point x="202.04000000000002" y="203.32"/>
      <point x="202.04000000000002" y="471.89" type="curve" smooth="yes"/>
      <point x="202.04000000000002" y="807.11" type="line" smooth="yes"/>
      <point x="202.04000000000002" y="1075.945"/>
      <point x="330.5" y="1227.405"/>
      <point x="576.865" y="1227.405" type="curve" smooth="yes"/>
      <point x="826.35" y="1227.405"/>
      <point x="952.425" y="1075.945"/>
      <point x="952.425" y="807.11" type="curve" smooth="yes"/>
      <point x="952.425" y="471.89" type="line" smooth="yes"/>
      <point x="952.425" y="203.32"/>
      <point x="823.7" y="50.595"/>
    </contour>
  </outline>
</glyph>
<glyph name="Thorn" format="2">
  <advance width="1089.165"/>
  <unicode hex="00DE"/>
  <anchor x="542.215" y="0.0" name="bottom"/>
  <anchor x="542.215" y="1278.0" name="top"/>
  <outline>
    <contour>
      <point x="223.285" y="233.255" type="line"/>
      <point x="611.42" y="233.255" type="line" smooth="yes"/>
      <point x="874.285" y="233.255"/>
      <point x="987.645" y="375.52"/>
      <point x="987.645" y="597.205" type="curve" smooth="yes"/>
      <point x="987.645" y="690.53" type="line" smooth="yes"/>
      <point x="987.645" y="909.745"/>
      <point x="875.285" y="1049.805"/>
      <point x="613.89" y="1049.805" type="curve" smooth="yes"/>
      <point x="221.55" y="1049.805" type="line"/>
      <point x="221.55" y="981.09" type="line"/>
      <point x="611.36" y="981.09" type="line" smooth="yes"/>
      <point x="821.545" y="981.09"/>
      <point x="905.98" y="868.75"/>
      <point x="905.98" y="687.735" type="curve" smooth="yes"/>
      <point x="905.98" y="600.0" type="line" smooth="yes"/>
      <point x="905.98" y="417.575"/>
      <point x="820.81" y="302.97"/>
      <point x="608.625" y="302.97" type="curve" smooth="yes"/>
      <point x="223.285" y="302.97" type="line"/>
    </contour>
    <contour>
      <point x="173.605" y="0.0" type="line"/>
      <point x="254.47500000000002" y="0.0" type="line"/>
      <point x="254.47500000000002" y="255.855" type="line"/>
      <point x="254.47500000000002" y="279.925" type="line"/>
      <point x="254.47500000000002" y="1001.425" type="line"/>
      <point x="254.47500000000002" y="1031.855" type="line"/>
      <point x="254.47500000000002" y="1278.0" type="line"/>
      <point x="173.605" y="1278.0" type="line"/>
    </contour>
  </outline>
</glyph>
<glyph name="germandbls" format="2">
  <advance width="1095.405"/>
  <unicode hex="00DF"/>
  <anchor x="522.6" y="0.0" name="bottom"/>
  <anchor x="522.6" y="972.855" name="top"/>
  <outline>
    <contour>
      <point x="151.93" y="1001.05" type="curve" smooth="yes"/>
      <point x="151.93" y="0.0" type="line"/>
      <point x="230.26999999999998" y="0.0" type="line"/>
      <point x="230.26999999999998" y="997.725" type="line" smooth="yes"/>
      <point x="230.26999999999998" y="1178.945"/>
      <point x="295.97" y="1284.2"/>
      <point x="498.48" y="1284.2" type="curve" smooth="yes"/>
      <point x="668.845" y="1284.2"/>
      <point x="744.015" y="1207.475"/>
      <point x="744.015" y="1108.545" type="curve" smooth="yes"/>
      <point x="744.015" y="938.77"/>
      <point x="478.65" y="893.29"/>
      <point x="478.65" y="698.94" type="curve" smooth="yes"/>
      <point x="478.65" y="692.94" type="line" smooth="yes"/>
      <point x="478.65" y="569.29"/>
      <point x="543.24" y="521.7"/>
      <point x="717.795" y="464.785" type="curve" smooth="yes"/>
      <point x="872.785" y="414.52"/>
      <point x="922.075" y="365.615"/>
      <point x="922.075" y="248.66" type="curve" smooth="yes"/>
      <point x="922.075" y="236.45499999999998" type="line" smooth="yes"/>
      <point x="922.075" y="115.765"/>
      <point x="846.435" y="50.185"/>
      <point x="701.445" y="50.185" type="curve" smooth="yes"/>
      <point x="601.275" y="50.185"/>
      <point x="533.095" y="73.185"/>
      <point x="454.685" y="110.33" type="curve"/>
      <point x="463.6" y="32.82" type="line"/>
      <point x="523.6" y="6.145"/>
      <point x="596.925" y="-19.0"/>
      <point x="706.48" y="-19.0" type="curve" smooth="yes"/>
      <point x="894.08" y="-19.0"/>
      <point x="1000.15" y="70.65"/>
      <point x="1000.15" y="236.395" type="curve" smooth="yes"/>
      <point x="1000.15" y="249.925" type="line" smooth="yes"/>
      <point x="1000.15" y="403.84000000000003"/>
      <point x="930.705" y="464.78"/>
      <point x="756.15" y="522.37" type="curve" smooth="yes"/>
      <point x="609.28" y="570.78"/>
      <point x="556.255" y="603.455"/>
      <point x="556.255" y="695.65" type="curve" smooth="yes"/>
      <point x="556.255" y="701.855" type="line" smooth="yes"/>
      <point x="556.255" y="863.485"/>
      <point x="822.885" y="909.52"/>
      <point x="822.885" y="1109.87" type="curve"/>
      <point x="822.885" y="1253.795"/>
      <point x="709.695" y="1350.53"/>
      <point x="499.01" y="1350.53" type="curve" smooth="yes"/>
      <point x="246.025" y="1350.53"/>
      <point x="151.93" y="1221.265"/>
    </contour>
  </outline>
</glyph>
<glyph name="ae" format="2">
  <advance width="1597.335"/>
  <unicode hex="00E6"/>
  <anchor x="799.3" y="0.0" name="bottom"/>
  <anchor x="799.3" y="972.855" name="top"/>
  <outline>
    <contour>
      <point x="1147.155" y="-20.06" type="curve" smooth="yes"/>
      <point x="1280.07" y="-20.06"/>
      <point x="1393.66" y="19.085"/>
      <point x="1475.045" y="79.905" type="curve"/>
      <point x="1483.49" y="156.5" type="line"/>
      <point x="1389.165" y="87.8"/>
      <point x="1282.37" y="49.39"/>
      <point x="1156.635" y="49.39" type="curve" smooth="yes"/>
      <point x="936.37" y="49.39"/>
      <point x="819.295" y="170.765"/>
      <point x="819.295" y="371.275" type="curve" smooth="yes"/>
      <point x="819.295" y="472.265" type="line"/>
      <point x="819.295" y="484.24" type="line"/>
      <point x="819.295" y="585.325" type="line" smooth="yes"/>
      <point x="819.295" y="808.27"/>
      <point x="923.96" y="930.26"/>
      <point x="1123.325" y="930.26" type="curve" smooth="yes"/>
      <point x="1319.75" y="930.26"/>
      <point x="1423.945" y="809.39"/>
      <point x="1423.945" y="592.265" type="curve" smooth="yes"/>
      <point x="1423.945" y="551.76"/>
      <point x="1423.68" y="504.255"/>
      <point x="1423.15" y="451.425" type="curve"/>
      <point x="1495.84" y="451.425" type="line"/>
      <point x="1499.9" y="489.28"/>
      <point x="1500.96" y="521.58"/>
      <point x="1500.96" y="555.82" type="curve" smooth="yes"/>
      <point x="1500.96" y="590.615" type="line" smooth="yes"/>
      <point x="1500.96" y="846.145"/>
      <point x="1370.635" y="996.65"/>
      <point x="1129.42" y="996.65" type="curve" smooth="yes"/>
      <point x="933.95" y="996.65"/>
      <point x="809.335" y="894.89"/>
      <point x="777.89" y="719.055" type="curve"/>
      <point x="783.65" y="719.055" type="line"/>
      <point x="762.88" y="890.275"/>
      <point x="661.675" y="992.915"/>
      <point x="466.855" y="992.915" type="curve" smooth="yes"/>
      <point x="308.71" y="992.915"/>
      <point x="196.385" y="935.83"/>
      <point x="130.675" y="888.36" type="curve"/>
      <point x="122.23" y="814.03" type="line"/>
      <point x="204.94" y="871.38"/>
      <point x="320.0" y="924.73"/>
      <point x="463.41" y="924.73" type="curve" smooth="yes"/>
      <point x="650.34" y="924.73"/>
      <point x="740.69" y="822.655"/>
      <point x="740.69" y="629.29" type="curve"/>
      <point x="740.425" y="431.71500000000003" type="line"/>
      <point x="740.16" y="383.26"/>
      <point x="741.425" y="334.575"/>
      <point x="746.425" y="283.83" type="curve"/>
      <point x="753.93" y="266.615" type="line"/>
      <point x="789.11" y="88.35"/>
      <point x="922.615" y="-20.06"/>
    </contour>
    <contour>
      <point x="395.64" y="-19.795" type="curve" smooth="yes"/>
      <point x="619.725" y="-19.795"/>
      <point x="735.63" y="107.4"/>
      <point x="764.93" y="263.33" type="curve"/>
      <point x="782.025" y="263.33" type="line"/>
      <point x="748.955" y="323.65" type="line"/>
      <point x="721.425" y="166.67000000000002"/>
      <point x="608.11" y="47.655"/>
      <point x="413.625" y="47.655" type="curve" smooth="yes"/>
      <point x="254.32" y="47.655"/>
      <point x="169.185" y="119.705"/>
      <point x="169.185" y="256.48" type="curve" smooth="yes"/>
      <point x="169.185" y="277.095" type="line" smooth="yes"/>
      <point x="169.185" y="402.845"/>
      <point x="243.97" y="462.485"/>
      <point x="426.745" y="488.835" type="curve" smooth="yes"/>
      <point x="763.135" y="537.655" type="line"/>
      <point x="759.485" y="600.275" type="line"/>
      <point x="415.505" y="549.455" type="line" smooth="yes"/>
      <point x="184.205" y="515.19"/>
      <point x="90.315" y="435.925"/>
      <point x="90.315" y="272.71" type="curve" smooth="yes"/>
      <point x="90.315" y="247.855" type="line" smooth="yes"/>
      <point x="90.315" y="74.12"/>
      <point x="198.255" y="-19.795"/>
    </contour>
    <contour>
      <point x="780.48" y="451.425" type="line"/>
      <point x="1474.95" y="451.425" type="line"/>
      <point x="1474.95" y="514.9" type="line"/>
      <point x="780.48" y="514.9" type="line"/>
    </contour>
  </outline>
</glyph>
<glyph name="eth" format="2">
  <advance width="1012.045"/>
  <unicode hex="00F0"/>
  <outline>
    <contour>
      <point x="506.155" y="-23.53" type="curve" smooth="yes"/>
      <point x="764.755" y="-23.53"/>
      <point x="902.525" y="127.12"/>
      <point x="902.525" y="402.625" type="curve"/>
      <point x="902.525" y="550.195" type="line"/>
      <point x="902.525" y="907.895"/>
      <point x="722.61" y="1053.53"/>
      <point x="365.015" y="1327.675" type="curve"/>
      <point x="257.93" y="1327.675" type="line"/>
      <point x="257.93" y="1327.41" type="line"/>
      <point x="612.595" y="1066.435"/>
      <point x="791.655" y="923.075"/>
      <point x="822.86" y="668.89" type="curve"/>
      <point x="820.92" y="646.375"/>
      <point x="821.655" y="630.81"/>
      <point x="822.655" y="606.97" type="curve"/>
      <point x="822.655" y="534.655"/>
      <point x="822.655" y="468.375"/>
      <point x="822.655" y="398.71" type="curve" smooth="yes"/>
      <point x="822.655" y="167.79"/>
      <point x="712.195" y="42.86"/>
      <point x="506.155" y="42.86" type="curve" smooth="yes"/>
      <point x="299.38" y="42.86"/>
      <point x="188.92000000000002" y="167.79"/>
      <point x="188.92000000000002" y="398.71" type="curve" smooth="yes"/>
      <point x="188.92000000000002" y="507.315" type="line" smooth="yes"/>
      <point x="188.92000000000002" y="735.5"/>
      <point x="297.38" y="860.43"/>
      <point x="499.95" y="860.43" type="curve" smooth="yes"/>
      <point x="675.915" y="860.43"/>
      <point x="813.835" y="750.935"/>
      <point x="822.655" y="538.185" type="curve"/>
      <point x="841.8" y="634.94" type="line"/>
      <point x="818.995" y="635.64" type="line"/>
      <point x="806.54" y="812.43"/>
      <point x="670.21" y="926.025"/>
      <point x="484.11" y="926.025" type="curve" smooth="yes"/>
      <point x="246.965" y="926.025"/>
      <point x="109.52" y="775.315"/>
      <point x="109.52" y="506.99" type="curve" smooth="yes"/>
      <point x="109.52" y="401.89" type="line" smooth="yes"/>
      <point x="109.52" y="127.855"/>
      <point x="246.82" y="-23.53"/>
    </contour>
    <contour>
      <point x="216.375" y="1025.63" type="line"/>
      <point x="853.2" y="1206.45" type="line"/>
      <point x="853.2" y="1265.565" type="line"/>
      <point x="216.375" y="1084.745" type="line"/>
    </contour>
  </outline>
</glyph>
<glyph name="divide" format="2">
  <advance width="995.18"/>
  <unicode hex="00F7"/>
  <outline>
    <contour>
      <point x="114.435" y="590.98" type="line"/>
      <point x="880.745" y="590.98" type="line"/>
      <point x="880.745" y="657.635" type="line"/>
      <point x="114.435" y="657.635" type="line"/>
    </contour>
    <contour>
      <point x="500.385" y="208.98" type="curve" smooth="yes"/>
      <point x="541.25" y="208.98"/>
      <point x="561.285" y="233.81"/>
      <point x="561.285" y="280.29" type="curve" smooth="yes"/>
      <point x="561.285" y="290.025" type="line" smooth="yes"/>
      <point x="561.285" y="335.505"/>
      <point x="541.25" y="359.6"/>
      <point x="500.385" y="359.6" type="curve" smooth="yes"/>
      <point x="460.725" y="359.6"/>
      <point x="440.955" y="335.505"/>
      <point x="440.955" y="290.025" type="curve" smooth="yes"/>
      <point x="440.955" y="280.29" type="line" smooth="yes"/>
      <point x="440.955" y="233.81"/>
      <point x="460.725" y="208.98"/>
    </contour>
    <contour>
      <point x="500.385" y="889.28" type="curve" smooth="yes"/>
      <point x="541.25" y="889.28"/>
      <point x="561.285" y="914.11"/>
      <point x="561.285" y="960.59" type="curve" smooth="yes"/>
      <point x="561.285" y="970.325" type="line" smooth="yes"/>
      <point x="561.285" y="1015.805"/>
      <point x="541.25" y="1039.9"/>
      <point x="500.385" y="1039.9" type="curve" smooth="yes"/>
      <point x="460.725" y="1039.9"/>
      <point x="440.955" y="1015.805"/>
      <point x="440.955" y="970.325" type="curve" smooth="yes"/>
      <point x="440.955" y="960.59" type="line" smooth="yes"/>
      <point x="440.955" y="914.11"/>
      <point x="460.725" y="889.28"/>
    </contour>
  </outline>
</glyph>
<glyph name="oslash" format="2">
  <advance width="1012.045"/>
  <unicode hex="00F8"/>
  <anchor x="505.89" y="0.0" name="bottom"/>
  <anchor x="505.89" y="487.06" name="center"/>
  <anchor x="911.045" y="10.0" name="ogonek"/>
  <anchor x="505.89" y="972.855" name="top"/>
  <anchor x="991.9" y="972.855" name="topright"/>
  <outline>
    <contour>
      <point x="506.155" y="-23.53" type="curve" smooth="yes"/>
      <point x="764.755" y="-23.53"/>
      <point x="902.525" y="127.12"/>
      <point x="902.525" y="401.89" type="curve"/>
      <point x="902.525" y="573.23" type="line"/>
      <point x="902.525" y="847.0"/>
      <point x="764.755" y="996.65"/>
      <point x="506.155" y="996.65" type="curve" smooth="yes"/>
      <point x="247.555" y="996.65"/>
      <point x="109.52" y="847.0"/>
      <point x="109.52" y="573.23" type="curve"/>
      <point x="109.52" y="401.89" type="line"/>
      <point x="109.52" y="128.12"/>
      <point x="246.82" y="-23.53"/>
    </contour>
    <contour>
      <point x="140.22" y="-66.06" type="line"/>
      <point x="214.875" y="-66.06" type="line"/>
      <point x="286.79" y="53.855000000000004" type="line"/>
      <point x="300.825" y="78.6" type="line"/>
      <point x="760.95" y="861.33" type="line"/>
      <point x="778.49" y="887.52" type="line"/>
      <point x="871.825" y="1038.915" type="line"/>
      <point x="798.17" y="1038.915" type="line"/>
      <point x="727.905" y="920.975" type="line"/>
      <point x="715.87" y="901.23" type="line"/>
      <point x="254.42000000000002" y="117.44" type="line"/>
      <point x="236.41" y="91.31" type="line"/>
    </contour>
    <contour>
      <point x="506.155" y="42.86" type="curve" smooth="yes"/>
      <point x="299.38" y="42.86"/>
      <point x="188.92000000000002" y="168.055"/>
      <point x="188.92000000000002" y="398.71" type="curve" smooth="yes"/>
      <point x="188.92000000000002" y="576.41" type="line" smooth="yes"/>
      <point x="188.92000000000002" y="805.33"/>
      <point x="299.38" y="930.26"/>
      <point x="506.155" y="930.26" type="curve" smooth="yes"/>
      <point x="712.93" y="930.26"/>
      <point x="823.39" y="805.33"/>
      <point x="823.39" y="576.41" type="curve" smooth="yes"/>
      <point x="823.39" y="398.71" type="line" smooth="yes"/>
      <point x="823.39" y="167.79"/>
      <point x="712.195" y="42.86"/>
    </contour>
  </outline>
</glyph>
<glyph name="thorn" format="2">
  <advance width="1044.105"/>
  <unicode hex="00FE"/>
  <anchor x="528.95" y="0.0" name="bottom"/>
  <anchor x="528.95" y="972.855" name="top"/>
  <outline>
    <contour>
      <point x="564.645" y="-19.795" type="curve" smooth="yes"/>
      <point x="805.175" y="-19.795"/>
      <point x="934.32" y="126.325"/>
      <point x="934.32" y="397.83" type="curve" smooth="yes"/>
      <point x="934.32" y="574.88" type="line" smooth="yes"/>
      <point x="934.32" y="845.59"/>
      <point x="805.645" y="992.65"/>
      <point x="568.97" y="992.65" type="curve" smooth="yes"/>
      <point x="365.62" y="992.65"/>
      <point x="244.81" y="865.455"/>
      <point x="222.10000000000002" y="707.91" type="curve"/>
      <point x="198.38" y="707.91" type="line"/>
      <point x="223.8" y="645.205" type="line"/>
      <point x="252.26999999999998" y="811.125"/>
      <point x="374.67" y="926.26"/>
      <point x="546.95" y="926.26" type="curve" smooth="yes"/>
      <point x="747.46" y="926.26"/>
      <point x="854.92" y="805.185"/>
      <point x="854.92" y="579.385" type="curve" smooth="yes"/>
      <point x="854.92" y="393.855" type="line" smooth="yes"/>
      <point x="854.92" y="167.995"/>
      <point x="745.725" y="47.655"/>
      <point x="549.155" y="47.655" type="curve" smooth="yes"/>
      <point x="376.635" y="47.655"/>
      <point x="237.945" y="150.70499999999998"/>
      <point x="227.535" y="355.13" type="curve"/>
      <point x="196.79" y="281.85" type="line"/>
      <point x="222.835" y="281.85" type="line"/>
      <point x="233.57999999999998" y="99.075"/>
      <point x="371.53499999999997" y="-19.795"/>
    </contour>
    <contour>
      <point x="151.93" y="-344.0" type="line"/>
      <point x="230.8" y="-344.0" type="line"/>
      <point x="230.8" y="-9.010000000000002" type="line"/>
      <point x="225.8" y="256.23" type="line"/>
      <point x="227.535" y="277.855" type="line"/>
      <point x="227.535" y="690.88" type="line"/>
      <point x="226.535" y="721.805" type="line"/>
      <point x="230.8" y="987.555" type="line"/>
      <point x="230.8" y="1327.675" type="line"/>
      <point x="151.93" y="1327.675" type="line"/>
    </contour>
  </outline>
</glyph>
<glyph name="idotless" format="2">
  <advance width="392.405"/>
  <unicode hex="0131"/>
  <anchor x="196.335" y="0.0" name="bottom"/>
  <anchor x="280.885" y="0.0" name="ogonek"/>
  <anchor x="196.335" y="972.855" name="top"/>
  <outline>
    <contour>
      <point x="156.4" y="0.0" type="line"/>
      <point x="236.26999999999998" y="0.0" type="line"/>
      <point x="236.26999999999998" y="972.855" type="line"/>
      <point x="156.4" y="972.855" type="line"/>
    </contour>
  </outline>
</glyph>
<glyph name="OE" format="2">
  <advance width="1654.62"/>
  <unicode hex="0152"/>
  <anchor x="822.6" y="0.0" name="bottom"/>
  <anchor x="822.6" y="1278.0" name="top"/>
  <outline>
    <contour>
      <point x="576.865" y="-20.12" type="curve" smooth="yes"/>
      <point x="873.85" y="-20.12"/>
      <point x="1035.15" y="157.59"/>
      <point x="1035.15" y="474.01" type="curve" smooth="yes"/>
      <point x="1035.15" y="804.255" type="line" smooth="yes"/>
      <point x="1035.15" y="1120.41"/>
      <point x="873.85" y="1298.12"/>
      <point x="576.865" y="1298.12" type="curve" smooth="yes"/>
      <point x="279.615" y="1298.12"/>
      <point x="119.315" y="1120.41"/>
      <point x="119.315" y="804.255" type="curve" smooth="yes"/>
      <point x="119.315" y="474.01" type="line" smooth="yes"/>
      <point x="119.315" y="157.59"/>
      <point x="279.615" y="-20.12"/>
    </contour>
    <contour>
      <point x="576.865" y="50.595" type="curve" smooth="yes"/>
      <point x="330.5" y="50.595"/>
      <point x="202.04000000000002" y="203.32"/>
      <point x="202.04000000000002" y="471.89" type="curve" smooth="yes"/>
      <point x="202.04000000000002" y="807.11" type="line" smooth="yes"/>
      <point x="202.04000000000002" y="1075.945"/>
      <point x="330.5" y="1227.405"/>
      <point x="576.865" y="1227.405" type="curve" smooth="yes"/>
      <point x="823.7" y="1227.405"/>
      <point x="952.425" y="1075.945"/>
      <point x="952.425" y="807.11" type="curve" smooth="yes"/>
      <point x="952.425" y="471.89" type="line" smooth="yes"/>
      <point x="952.425" y="203.32"/>
      <point x="823.7" y="50.595"/>
    </contour>
    <contour>
      <point x="723.695" y="0.0" type="line"/>
      <point x="1544.715" y="0.0" type="line"/>
      <point x="1544.715" y="70.245" type="line"/>
      <point x="723.695" y="70.245" type="line"/>
    </contour>
    <contour>
      <point x="973.22" y="619.45" type="line"/>
      <point x="1524.92" y="619.45" type="line"/>
      <point x="1524.92" y="689.165" type="line"/>
      <point x="973.22" y="689.165" type="line"/>
    </contour>
    <contour>
      <point x="721.96" y="1208.02" type="line"/>
      <point x="1539.185" y="1208.02" type="line"/>
      <point x="1539.185" y="1278.0" type="line"/>
      <point x="721.96" y="1278.0" type="line"/>
    </contour>
  </outline>
</glyph>
<glyph name="oe" format="2">
  <advance width="1680.565"/>
  <unicode hex="0153"/>
  <anchor x="837.71" y="0.0" name="bottom"/>
  <anchor x="837.71" y="972.855" name="top"/>
  <outline>
    <contour>
      <point x="497.265" y="-23.53" type="curve" smooth="yes"/>
      <point x="700.35" y="-23.53"/>
      <point x="823.76" y="74.11"/>
      <point x="863.735" y="257.33" type="curve"/>
      <point x="860.915" y="257.33" type="line"/>
      <point x="901.48" y="74.05"/>
      <point x="1028.54" y="-20.06"/>
      <point x="1236.71" y="-20.06" type="curve" smooth="yes"/>
      <point x="1365.625" y="-20.06"/>
      <point x="1477.685" y="19.085"/>
      <point x="1558.275" y="79.905" type="curve"/>
      <point x="1566.72" y="156.5" type="line"/>
      <point x="1473.865" y="87.8"/>
      <point x="1366.335" y="49.39"/>
      <point x="1244.07" y="49.39" type="curve" smooth="yes"/>
      <point x="1017.84" y="49.39"/>
      <point x="902.525" y="169.175"/>
      <point x="902.525" y="388.915" type="curve" smooth="yes"/>
      <point x="902.525" y="471.735" type="line"/>
      <point x="902.525" y="483.71" type="line"/>
      <point x="902.525" y="586.06" type="line" smooth="yes"/>
      <point x="902.525" y="809.595"/>
      <point x="1006.925" y="930.26"/>
      <point x="1206.025" y="930.26" type="curve" smooth="yes"/>
      <point x="1402.715" y="930.26"/>
      <point x="1507.175" y="809.39"/>
      <point x="1507.175" y="592.265" type="curve" smooth="yes"/>
      <point x="1507.175" y="552.29"/>
      <point x="1506.91" y="504.255"/>
      <point x="1506.38" y="451.425" type="curve"/>
      <point x="1579.07" y="451.425" type="line"/>
      <point x="1583.13" y="489.28"/>
      <point x="1584.19" y="521.58"/>
      <point x="1584.19" y="555.82" type="curve" smooth="yes"/>
      <point x="1584.19" y="590.615" type="line" smooth="yes"/>
      <point x="1584.19" y="846.145"/>
      <point x="1453.6" y="996.65"/>
      <point x="1211.325" y="996.65" type="curve" smooth="yes"/>
      <point x="1020.095" y="996.65"/>
      <point x="896.01" y="897.275"/>
      <point x="861.65" y="719.055" type="curve"/>
      <point x="863.0" y="719.055" type="line"/>
      <point x="823.435" y="898.01"/>
      <point x="701.35" y="996.65"/>
      <point x="497.265" y="996.65" type="curve" smooth="yes"/>
      <point x="246.29" y="996.65"/>
      <point x="109.52" y="847.0"/>
      <point x="109.52" y="573.23" type="curve" smooth="yes"/>
      <point x="109.52" y="401.89" type="line" smooth="yes"/>
      <point x="109.52" y="127.855"/>
      <point x="245.555" y="-23.53"/>
    </contour>
    <contour>
      <point x="863.71" y="451.425" type="line"/>
      <point x="1558.915" y="451.425" type="line"/>
      <point x="1558.915" y="514.9" type="line"/>
      <point x="863.71" y="514.9" type="line"/>
    </contour>
    <contour>
      <point x="504.155" y="42.86" type="curve" smooth="yes"/>
      <point x="298.38" y="42.86"/>
      <point x="188.92000000000002" y="167.79"/>
      <point x="188.92000000000002" y="398.71" type="curve" smooth="yes"/>
      <point x="188.92000000000002" y="576.41" type="line" smooth="yes"/>
      <point x="188.92000000000002" y="805.33"/>
      <point x="298.38" y="930.26"/>
      <point x="504.155" y="930.26" type="curve" smooth="yes"/>
      <point x="711.195" y="930.26"/>
      <point x="823.39" y="804.595"/>
      <point x="823.39" y="574.94" type="curve" smooth="yes"/>
      <point x="823.39" y="398.71" type="line" smooth="yes"/>
      <point x="823.39" y="167.79"/>
      <point x="711.195" y="42.86"/>
    </contour>
  </outline>
</glyph>
<glyph name="gravecomb" format="2">
  <unicode hex="0300"/>
  <anchor x="368.225" y="972.855" name="_top"/>
  <anchor x="254.02" y="1305.07" name="top"/>
  <outline>
    <contour>
      <point x="198.075" y="1362.12" type="line"/>
      <point x="105.555" y="1362.12" type="line"/>
      <point x="105.555" y="1359.855" type="line"/>
      <point x="329.735" y="1106.23" type="line"/>
      <point x="403.98" y="1106.23" type="line"/>
      <point x="403.98" y="1107.76" type="line"/>
    </contour>
  </outline>
</glyph>
<glyph name="acutecomb" format="2">
  <unicode hex="0301"/>
  <anchor x="136.37" y="972.855" name="_top"/>
  <anchor x="140.84" y="1305.07" name="top"/>
  <outline>
    <contour>
      <point x="307.255" y="1362.12" type="line"/>
      <point x="101.35" y="1107.76" type="line"/>
      <point x="101.35" y="1106.23" type="line"/>
      <point x="175.595" y="1106.23" type="line"/>
      <point x="399.775" y="1359.855" type="line"/>
      <point x="399.775" y="1362.12" type="line"/>
    </contour>
  </outline>
</glyph>
<glyph name="circumflexcomb" format="2">
  <unicode hex="0302"/>
  <anchor x="349.37" y="972.855" name="_top"/>
  <anchor x="349.37" y="1303.48" name="top"/>
  <outline>
    <contour>
      <point x="303.17" y="1362.12" type="line"/>
      <point x="103.675" y="1107.76" type="line"/>
      <point x="103.675" y="1106.23" type="line"/>
      <point x="173.15" y="1106.23" type="line"/>
      <point x="346.105" y="1310.245" type="line"/>
      <point x="352.635" y="1310.245" type="line"/>
      <point x="525.59" y="1106.23" type="line"/>
      <point x="595.065" y="1106.23" type="line"/>
      <point x="595.065" y="1107.76" type="line"/>
      <point x="395.57" y="1362.12" type="line"/>
    </contour>
  </outline>
</glyph>
<glyph name="tildecomb" format="2">
  <unicode hex="0303"/>
  <anchor x="352.25" y="972.855" name="_top"/>
  <anchor x="352.25" y="1297.95" name="top"/>
  <outline>
    <contour>
      <point x="483.985" y="1141.99" type="curve" smooth="yes"/>
      <point x="564.38" y="1141.99"/>
      <point x="598.56" y="1191.145"/>
      <point x="598.56" y="1284.625" type="curve" smooth="yes"/>
      <point x="598.56" y="1315.215" type="line"/>
      <point x="542.445" y="1315.215" type="line"/>
      <point x="542.445" y="1291.66" type="line" smooth="yes"/>
      <point x="542.445" y="1230.225"/>
      <point x="524.3" y="1202.815"/>
      <point x="479.215" y="1202.815" type="curve" smooth="yes"/>
      <point x="402.72" y="1202.815"/>
      <point x="323.13" y="1306.42"/>
      <point x="226.6" y="1306.42" type="curve" smooth="yes"/>
      <point x="145.94" y="1306.42"/>
      <point x="111.76" y="1256.0"/>
      <point x="111.76" y="1162.785" type="curve" smooth="yes"/>
      <point x="111.76" y="1132.46" type="line"/>
      <point x="167.14" y="1132.46" type="line"/>
      <point x="167.14" y="1156.75" type="line" smooth="yes"/>
      <point x="167.14" y="1217.92"/>
      <point x="186.285" y="1245.33"/>
      <point x="231.10500000000002" y="1245.33" type="curve" smooth="yes"/>
      <point x="306.865" y="1245.33"/>
      <point x="386.78" y="1141.99"/>
    </contour>
  </outline>
</glyph>
<glyph name="macroncomb" format="2">
  <unicode hex="0304"/>
  <anchor x="371.36" y="972.855" name="_top"/>
  <anchor x="372.095" y="1279.505" name="top"/>
  <outline>
    <contour>
      <point x="119.7" y="1194.775" type="line"/>
      <point x="623.02" y="1194.775" type="line"/>
      <point x="623.02" y="1253.54" type="line"/>
      <point x="119.7" y="1253.54" type="line"/>
    </contour>
  </outline>
</glyph>
<glyph name="dotaccentcomb" format="2">
  <unicode hex="0307"/>
  <anchor x="165.9" y="972.855" name="_top"/>
  <anchor x="165.165" y="1305.3" name="top"/>
  <outline>
    <contour>
      <point x="164.9" y="1166.1" type="curve" smooth="yes"/>
      <point x="205.825" y="1166.1"/>
      <point x="226.39" y="1189.665"/>
      <point x="226.39" y="1234.88" type="curve" smooth="yes"/>
      <point x="226.39" y="1240.88" type="line" smooth="yes"/>
      <point x="226.39" y="1284.36"/>
      <point x="205.825" y="1308.455"/>
      <point x="164.9" y="1308.455" type="curve" smooth="yes"/>
      <point x="124.975" y="1308.455"/>
      <point x="104.41" y="1284.36"/>
      <point x="104.41" y="1240.88" type="curve" smooth="yes"/>
      <point x="104.41" y="1234.88" type="line" smooth="yes"/>
      <point x="104.41" y="1189.665"/>
      <point x="124.975" y="1166.1"/>
    </contour>
  </outline>
</glyph>
<glyph name="dieresiscomb" format="2">
  <unicode hex="0308"/>
  <anchor x="301.875" y="972.855" name="_top"/>
  <anchor x="301.875" y="1305.3" name="top"/>
  <outline>
    <contour>
      <point x="162.25" y="1166.1" type="curve" smooth="yes"/>
      <point x="201.585" y="1166.1"/>
      <point x="220.35500000000002" y="1189.4"/>
      <point x="220.35500000000002" y="1234.35" type="curve" smooth="yes"/>
      <point x="220.35500000000002" y="1240.615" type="line" smooth="yes"/>
      <point x="220.35500000000002" y="1283.83"/>
      <point x="201.585" y="1307.13"/>
      <point x="162.25" y="1307.13" type="curve" smooth="yes"/>
      <point x="123.445" y="1307.13"/>
      <point x="104.41" y="1283.83"/>
      <point x="104.41" y="1240.615" type="curve" smooth="yes"/>
      <point x="104.41" y="1234.35" type="line" smooth="yes"/>
      <point x="104.41" y="1189.4"/>
      <point x="123.445" y="1166.1"/>
    </contour>
    <contour>
      <point x="442.235" y="1166.1" type="curve" smooth="yes"/>
      <point x="480.305" y="1166.1"/>
      <point x="499.34000000000003" y="1189.4"/>
      <point x="499.34000000000003" y="1234.35" type="curve" smooth="yes"/>
      <point x="499.34000000000003" y="1240.615" type="line" smooth="yes"/>
      <point x="499.34000000000003" y="1283.83"/>
      <point x="480.305" y="1307.13"/>
      <point x="442.235" y="1307.13" type="curve" smooth="yes"/>
      <point x="403.165" y="1307.13"/>
      <point x="384.395" y="1283.83"/>
      <point x="384.395" y="1240.615" type="curve" smooth="yes"/>
      <point x="384.395" y="1234.35" type="line" smooth="yes"/>
      <point x="384.395" y="1189.4"/>
      <point x="403.165" y="1166.1"/>
    </contour>
  </outline>
</glyph>
<glyph name="ringcomb" format="2">
  <unicode hex="030A"/>
  <anchor x="271.805" y="972.855" name="_top"/>
  <anchor x="272.54" y="1366.805" name="top"/>
  <outline>
    <contour>
      <point x="108.085" y="1251.145" type="line" smooth="yes"/>
      <point x="108.085" y="1159.23"/>
      <point x="167.94" y="1100.05"/>
      <point x="272.54" y="1100.05" type="curve" smooth="yes"/>
      <point x="375.875" y="1100.05"/>
      <point x="435.995" y="1159.23"/>
      <point x="435.995" y="1251.145" type="curve" smooth="yes"/>
      <point x="435.995" y="1253.675" type="line" smooth="yes"/>
      <point x="435.995" y="1347.59"/>
      <point x="375.875" y="1405.77"/>
      <point x="272.54" y="1405.77" type="curve" smooth="yes"/>
      <point x="167.94" y="1405.77"/>
      <point x="108.085" y="1347.59"/>
      <point x="108.085" y="1253.675" type="curve" smooth="yes"/>
    </contour>
    <contour>
      <point x="162.815" y="1251.41" type="curve" smooth="yes"/>
      <point x="162.815" y="1253.675" type="line" smooth="yes"/>
      <point x="162.815" y="1319.785"/>
      <point x="202.10500000000002" y="1358.28"/>
      <point x="272.54" y="1358.28" type="curve" smooth="yes"/>
      <point x="342.71" y="1358.28"/>
      <point x="382.0" y="1319.785"/>
      <point x="382.0" y="1253.675" type="curve" smooth="yes"/>
      <point x="382.0" y="1251.41" type="line" smooth="yes"/>
      <point x="382.0" y="1186.035"/>
      <point x="342.71" y="1148.275"/>
      <point x="272.54" y="1148.275" type="curve" smooth="yes"/>
      <point x="202.10500000000002" y="1148.275"/>
      <point x="162.815" y="1186.035"/>
    </contour>
  </outline>
</glyph>
